<svg width="25" height="36" viewBox="0 0 25 36" fill="none" xmlns="http://www.w3.org/2000/svg">
<path d="M12.4996 27.7549C8.21597 27.7549 3.66336 29.1818 3.66336 31.8261C3.66336 34.4704 8.21607 35.8973 12.4996 35.8973C16.7832 35.8973 21.3359 34.4704 21.3359 31.8261C21.3359 29.1818 16.7832 27.7549 12.4996 27.7549Z" fill="#37414F"/>
<path d="M12.3499 31.8914L12.3497 31.8912C12.2412 31.8067 9.35883 29.5478 6.43503 26.0323C2.46154 21.2547 0.5 16.7325 0.5 12.5843C0.5 5.91827 5.8868 0.5 12.5 0.5C19.1132 0.5 24.5 5.91827 24.5 12.5843C24.5 16.7324 22.5385 21.2547 18.565 26.0323L18.9494 26.352L18.565 26.0323C15.642 29.5469 12.7602 31.8056 12.6503 31.8913C12.6056 31.9261 12.553 31.9431 12.5 31.9431C12.4469 31.9431 12.3943 31.926 12.3499 31.8914ZM12.5 17.8032C15.3681 17.8032 17.6874 15.4634 17.6874 12.5843C17.6874 9.70513 15.3681 7.36522 12.5 7.36522C9.63196 7.36522 7.31266 9.70513 7.31266 12.5843C7.31266 15.4634 9.63198 17.8032 12.5 17.8032Z" fill="#37414F" stroke="#838994"/>
</svg>
