<svg width="32" height="32" viewBox="0 0 32 32" fill="none" xmlns="http://www.w3.org/2000/svg">
<g opacity="0.45">
<mask id="path-1-outside-1" maskUnits="userSpaceOnUse" x="0" y="6.10352e-05" width="32" height="32" fill="black">
<rect fill="white" y="6.10352e-05" width="32" height="32"/>
<path fill-rule="evenodd" clip-rule="evenodd" d="M16 31.0001C24.2843 31.0001 31 24.2843 31 16.0001C31 7.71579 24.2843 1.00006 16 1.00006C7.71573 1.00006 1 7.71579 1 16.0001C1 24.2843 7.71573 31.0001 16 31.0001ZM16.25 22.4998C19.7018 22.4998 22.5 19.7015 22.5 16.2498C22.5 12.798 19.7018 9.99977 16.25 9.99977C12.7982 9.99977 10 12.798 10 16.2498C10 19.7015 12.7982 22.4998 16.25 22.4998Z"/>
</mask>
<path fill-rule="evenodd" clip-rule="evenodd" d="M16 31.0001C24.2843 31.0001 31 24.2843 31 16.0001C31 7.71579 24.2843 1.00006 16 1.00006C7.71573 1.00006 1 7.71579 1 16.0001C1 24.2843 7.71573 31.0001 16 31.0001ZM16.25 22.4998C19.7018 22.4998 22.5 19.7015 22.5 16.2498C22.5 12.798 19.7018 9.99977 16.25 9.99977C12.7982 9.99977 10 12.798 10 16.2498C10 19.7015 12.7982 22.4998 16.25 22.4998Z" fill="#FF7362" fill-opacity="0.4"/>
<path d="M30 16.0001C30 23.732 23.732 30.0001 16 30.0001V32.0001C24.8366 32.0001 32 24.8366 32 16.0001H30ZM16 2.00006C23.732 2.00006 30 8.26807 30 16.0001H32C32 7.16351 24.8366 6.10352e-05 16 6.10352e-05V2.00006ZM2 16.0001C2 8.26807 8.26801 2.00006 16 2.00006V6.10352e-05C7.16344 6.10352e-05 0 7.16351 0 16.0001H2ZM16 30.0001C8.26801 30.0001 2 23.732 2 16.0001H0C0 24.8366 7.16344 32.0001 16 32.0001V30.0001ZM21.5 16.2498C21.5 19.1493 19.1495 21.4998 16.25 21.4998V23.4998C20.2541 23.4998 23.5 20.2538 23.5 16.2498H21.5ZM16.25 10.9998C19.1495 10.9998 21.5 13.3503 21.5 16.2498H23.5C23.5 12.2457 20.2541 8.99977 16.25 8.99977V10.9998ZM11 16.2498C11 13.3503 13.3505 10.9998 16.25 10.9998V8.99977C12.2459 8.99977 9 12.2457 9 16.2498H11ZM16.25 21.4998C13.3505 21.4998 11 19.1493 11 16.2498H9C9 20.2538 12.2459 23.4998 16.25 23.4998V21.4998Z" fill="#FF7362" mask="url(#path-1-outside-1)"/>
</g>
</svg>
