<svg width="86" height="86" viewBox="0 0 86 86" fill="none" xmlns="http://www.w3.org/2000/svg">
<path d="M9.76563e-07 4.58462C0.705349 3.95545 1.45092 3.37288 2.232 2.84062C3.06612 2.27413 3.94972 1.78414 4.872 1.37662C5.8706 0.938303 6.9104 0.600634 7.976 0.368623C9.17534 0.115844 10.3983 -0.00752941 11.624 0.0006224C13.2375 -0.0141599 14.8426 0.23444 16.376 0.736622C17.7561 1.18246 19.0341 1.89759 20.136 2.84062C21.1822 3.74852 22.0223 4.86957 22.6 6.12862C23.2095 7.48625 23.5153 8.96057 23.496 10.4486C23.5283 11.8767 23.2838 13.2975 22.776 14.6326C22.3315 15.7568 21.7133 16.8042 20.944 17.7366C20.2338 18.5836 19.4285 19.3459 18.544 20.0086L16.144 21.8406C15.4522 22.3566 14.8022 22.9264 14.2 23.5446C13.6849 24.0465 13.343 24.6994 13.224 25.4086L12.616 30.2086H8.424L7.96 24.9366C7.83494 24.055 8.01564 23.1572 8.472 22.3926C8.94307 21.6326 9.52863 20.9499 10.208 20.3686C10.9676 19.7068 11.7693 19.0948 12.608 18.5366C13.4673 17.9475 14.2707 17.2807 15.008 16.5446C15.7513 15.8132 16.3845 14.9778 16.888 14.0646C17.4335 13.0529 17.709 11.9178 17.688 10.7686C17.7002 9.97761 17.5347 9.19393 17.2038 8.47535C16.8729 7.75677 16.385 7.12159 15.776 6.61662C15.1383 6.10696 14.4073 5.72654 13.624 5.49662C12.792 5.22731 11.9225 5.09229 11.048 5.09662C9.94705 5.06934 8.84927 5.22616 7.8 5.56062C7.01339 5.81307 6.25262 6.13988 5.528 6.53662C4.99219 6.83612 4.47644 7.17016 3.984 7.53662C3.70034 7.79571 3.34182 7.95816 2.96 8.00062C2.68312 8.01454 2.40835 7.94593 2.17051 7.80351C1.93267 7.66109 1.74246 7.45126 1.624 7.20062L9.76563e-07 4.58462ZM6.176 42.5366C6.17558 41.9874 6.28435 41.4435 6.496 40.9366C6.70053 40.4407 6.99632 39.9875 7.368 39.6006C7.74627 39.2178 8.19434 38.9109 8.688 38.6966C9.21058 38.4705 9.77462 38.3561 10.344 38.3606C10.8948 38.3613 11.4395 38.4757 11.944 38.6966C12.4437 38.9086 12.8974 39.2156 13.28 39.6006C13.664 39.9858 13.9732 40.4388 14.192 40.9366C14.413 41.4411 14.5274 41.9858 14.528 42.5366C14.5325 43.0855 14.4264 43.6296 14.216 44.1366C13.9992 44.6356 13.6897 45.0889 13.304 45.4726C12.9231 45.8577 12.4688 46.1623 11.968 46.3686C11.46 46.5755 10.9165 46.6815 10.368 46.6806C9.80096 46.6853 9.23846 46.5793 8.712 46.3686C8.21712 46.1601 7.76848 45.8556 7.392 45.4726C6.6235 44.6872 6.18788 43.6354 6.176 42.5366Z" transform="translate(31.1758 21.0635)" fill="white"/>
<path d="M40 80C62.0914 80 80 62.0914 80 40C80 17.9086 62.0914 0 40 0C17.9086 0 0 17.9086 0 40C0 62.0914 17.9086 80 40 80Z" transform="translate(3 3)" stroke="white" stroke-width="4.5" stroke-miterlimit="10"/>
</svg>
