<svg width="23" height="22" viewBox="0 0 23 22" fill="none" xmlns="http://www.w3.org/2000/svg">
<path d="M13.6757 -3.48038e-08V9.55909H5.0722H3.98367H-7.76153e-08V20.5225H20.6511V-3.48038e-08H13.6757ZM19.1956 16.7263H16.9024V19.0052H15.2722V16.7263H12.9783V15.1058H15.2722V12.8263H16.9024V15.1058H19.1956V16.7263Z" transform="translate(2.13452 1.47754)" fill="#9499A0"/>
<path d="M6.42623 0H0V4.04127H6.42623V0Z" fill="#9499A0"/>
<path d="M6.41531 0H0V4.04127H6.41531V0Z" transform="translate(7.70703)" fill="#9499A0"/>
<path d="M6.41531 0H0V4.04176H6.41531V0Z" transform="translate(7.70703 5.31738)" fill="#9499A0"/>
<path d="M6.42623 0H0V4.04176H6.42623V0Z" transform="translate(0 5.31738)" fill="#9499A0"/>
</svg>
