<svg width="86" height="86" viewBox="0 0 86 86" fill="none" xmlns="http://www.w3.org/2000/svg">
<path d="M18.79 44.96C18.124 44.9589 17.4646 44.8267 16.8497 44.5709C16.2347 44.315 15.6762 43.9405 15.2059 43.4688C14.7357 42.9971 14.363 42.4373 14.109 41.8216C13.8551 41.2058 13.725 40.5461 13.726 39.88C13.7181 39.7361 13.7181 39.5919 13.726 39.448H1.37402C1.1301 39.4435 0.891594 39.3753 0.682142 39.2502C0.47269 39.1251 0.299563 38.9474 0.179919 38.7348C0.0602737 38.5222 -0.00173517 38.282 3.7254e-05 38.0381C0.00180968 37.7941 0.0673015 37.5549 0.190023 37.344L3.34202 32.096C4.75017 29.7496 5.49402 27.0645 5.49402 24.328V19.728C5.50555 16.9276 6.39468 14.2012 8.03636 11.9325C9.67803 9.66367 11.9896 7.96662 14.646 7.08V4.144C14.646 3.04494 15.0826 1.9909 15.8598 1.21375C16.6369 0.436599 17.691 -3.05176e-07 18.79 -3.05176e-07C19.8891 -3.05176e-07 20.9431 0.436599 21.7203 1.21375C22.4974 1.9909 22.934 3.04494 22.934 4.144V7.08C25.5921 7.96345 27.9063 9.65812 29.5509 11.9255C31.1955 14.193 32.0877 16.919 32.102 19.72V24.32C32.102 27.0565 32.8459 29.7416 34.254 32.088L37.406 37.336C37.5362 37.5497 37.6067 37.7944 37.6101 38.0447C37.6136 38.2949 37.55 38.5415 37.4258 38.7587C37.3017 38.976 37.1215 39.156 36.9042 39.2801C36.6869 39.4041 36.4402 39.4676 36.19 39.464H23.838C23.838 39.608 23.838 39.76 23.838 39.896C23.8359 41.2356 23.3039 42.5201 22.3581 43.4688C21.4124 44.4176 20.1297 44.9537 18.79 44.96ZM16.566 39.464C16.5502 39.6076 16.5502 39.7524 16.566 39.896C16.5477 40.2052 16.5927 40.5148 16.6984 40.806C16.804 41.0971 16.9681 41.3635 17.1805 41.5889C17.3929 41.8143 17.6492 41.9939 17.9335 42.1167C18.2179 42.2394 18.5243 42.3028 18.834 42.3028C19.1437 42.3028 19.4502 42.2394 19.7345 42.1167C20.0189 41.9939 20.2751 41.8143 20.4875 41.5889C20.6999 41.3635 20.864 41.0971 20.9697 40.806C21.0754 40.5148 21.1204 40.2052 21.102 39.896C21.1019 39.7507 21.0858 39.6058 21.054 39.464H16.566ZM33.742 36.68L31.862 33.552C30.1894 30.7662 29.3071 27.5774 29.31 24.328V19.728C29.31 16.9379 28.2017 14.2621 26.2288 12.2892C24.2559 10.3164 21.5801 9.208 18.79 9.208C15.9999 9.208 13.3241 10.3164 11.3513 12.2892C9.37838 14.2621 8.27002 16.9379 8.27002 19.728V24.328C8.27002 27.572 7.38788 30.7548 5.71802 33.536L3.83802 36.68H33.742ZM18.79 2.792C18.4314 2.792 18.0876 2.93444 17.834 3.18799C17.5805 3.44154 17.438 3.78543 17.438 4.144V6.496C18.3362 6.38933 19.2438 6.38933 20.142 6.496V4.144C20.142 3.96645 20.1071 3.79064 20.0391 3.62661C19.9712 3.46258 19.8716 3.31354 19.746 3.18799C19.6205 3.06245 19.4714 2.96286 19.3074 2.89492C19.1434 2.82697 18.9676 2.792 18.79 2.792Z" transform="translate(24.21 20.52)" fill="white" stroke="white" stroke-width="0.5"/>
<path d="M40 80C62.0914 80 80 62.0914 80 40C80 17.9086 62.0914 0 40 0C17.9086 0 0 17.9086 0 40C0 62.0914 17.9086 80 40 80Z" transform="translate(3 3)" stroke="white" stroke-width="4.5" stroke-miterlimit="10"/>
</svg>
