<svg width="22" height="22" viewBox="0 0 22 22" fill="none" xmlns="http://www.w3.org/2000/svg">
<path d="M17.6961 0H16.6122H4.04082H0V22H3.14286H17.9592H21.551V3.85494L17.6961 0ZM15.7143 0.897959V7.18367H4.93878V0.897959H15.7143ZM4.04082 21.102V12.5714H17.0612V21.102H4.04082ZM20.6531 21.102H17.9592V11.6735H3.14286V21.102H0.897959V0.897959H4.04082V8.08163H16.6122V0.897959H17.3243L20.6531 4.22669V21.102Z" fill="#9499A0"/>
<path d="M0.44898 0.897959H3.59184C3.84012 0.897959 4.04082 0.697265 4.04082 0.44898C4.04082 0.200694 3.84012 0 3.59184 0H0.44898C0.200694 0 0 0.200694 0 0.44898C0 0.697265 0.200694 0.897959 0.44898 0.897959Z" transform="translate(5.3877 13.9185)" fill="#9499A0"/>
<path d="M4.93878 0H0.44898C0.200694 0 0 0.200694 0 0.44898C0 0.697265 0.200694 0.897959 0.44898 0.897959H4.93878C5.18706 0.897959 5.38775 0.697265 5.38775 0.44898C5.38775 0.200694 5.18706 0 4.93878 0Z" transform="translate(5.3877 15.7144)" fill="#9499A0"/>
<path d="M0.130204 0.124592C0.0489392 0.209449 0 0.326633 0 0.443367C0 0.560102 0.0489392 0.676836 0.130204 0.762142C0.215062 0.842959 0.327306 0.892347 0.44898 0.892347C0.565714 0.892347 0.682449 0.842959 0.767755 0.762142C0.848571 0.676836 0.897959 0.560102 0.897959 0.443367C0.897959 0.326633 0.848571 0.209449 0.767755 0.124592C0.601632 -0.0415302 0.296327 -0.0415302 0.130204 0.124592Z" transform="translate(11.2246 15.72)" fill="#9499A0"/>
<path d="M2.69388 0H0V4.4898H2.69388V0ZM1.79592 3.59184H0.897959V0.897959H1.79592V3.59184Z" transform="translate(12.1226 1.7959)" fill="#9499A0"/>
</svg>
