<svg width="25" height="25" viewBox="0 0 25 25" fill="none" xmlns="http://www.w3.org/2000/svg">
<path d="M12.5 25C19.4036 25 25 19.4036 25 12.5C25 5.59644 19.4036 0 12.5 0C5.59644 0 0 5.59644 0 12.5C0 19.4036 5.59644 25 12.5 25Z" fill="#F2994A"/>
<path opacity="0.37" d="M24.4283 16.2476L16.6097 8.70204L13.1685 7.15243L11.5659 5.65091L11.2185 7.68066L8.125 9.18731L16.3454 17.6269L12.5002 18.8768L8.18955 17.5576L15.4701 24.644C19.7251 23.6069 23.1271 20.3927 24.4283 16.2476Z" fill="#DC8A42"/>
<path d="M12.5011 19.3489C14.1349 19.3489 15.6708 18.7127 16.8261 17.5575C17.9812 16.4023 18.6175 14.8661 18.6175 13.2325C18.6175 13.2324 18.6175 13.2326 18.6175 13.2324C18.6175 11.5987 17.9813 10.0627 16.8261 8.90748C16.0046 8.08599 14.9737 7.51793 13.8449 7.26476C13.2323 7.12726 12.6057 7.08532 11.9865 7.13741L11.5663 5.65091L9.84588 7.41908L8.12544 9.18726L10.5169 9.79305L12.9084 10.3988L12.402 8.60714C13.6434 8.57772 14.8579 9.05067 15.7704 9.96316C17.5731 11.7658 17.5731 14.6991 15.7704 16.5017C13.9677 18.3044 11.0346 18.3044 9.23193 16.5017C7.87483 15.1447 7.4957 13.1323 8.26566 11.375L6.89811 10.7757C6.40956 11.8907 6.26539 13.1158 6.48134 14.3182C6.70251 15.5497 7.28857 16.6698 8.1762 17.5575C9.33139 18.7127 10.8674 19.3489 12.5011 19.3489Z" fill="white"/>
</svg>
