<svg width="47" height="52" viewBox="0 0 47 52" fill="none" xmlns="http://www.w3.org/2000/svg">
<path d="M3.05176e-07 13.36L15.112 16.232L7.624 -3.05176e-08L3.05176e-07 13.36Z" transform="translate(7.47949 0.631836)" fill="white"/>
<path d="M11.5834 2.04188C14.0085 0.869661 16.641 0.187149 19.3302 0.0334027C22.0193 -0.120343 24.7124 0.257694 27.2554 1.14588C29.7477 2.02303 32.0501 3.36699 34.0394 5.10588C36.324 7.11097 38.1342 9.59893 39.3389 12.3897C40.5437 15.1804 41.1129 18.2041 41.0054 21.2419C40.8978 24.2797 40.1162 27.2555 38.7171 29.9541C37.318 32.6526 35.3363 35.0064 32.9157 36.8449C30.495 38.6834 27.6958 39.9606 24.7208 40.5843C21.7458 41.2079 18.6693 41.1622 15.7141 40.4506C12.7589 39.739 9.99884 38.3792 7.63378 36.4697C5.26872 34.5602 3.35781 32.1488 2.03937 29.4099C0.841694 26.9436 0.155909 24.2604 0.0233665 21.5219C-0.102424 18.8815 0.280525 16.2416 1.15137 13.7459" transform="translate(2.50488 8.3584)" stroke="white" stroke-width="5" stroke-miterlimit="10"/>
</svg>
