<svg width="25" height="25" viewBox="0 0 25 25" fill="none" xmlns="http://www.w3.org/2000/svg">
<path d="M12.5 25C19.4036 25 25 19.4036 25 12.5C25 5.59644 19.4036 0 12.5 0C5.59644 0 0 5.59644 0 12.5C0 19.4036 5.59644 25 12.5 25Z" fill="#F2994A"/>
<path opacity="0.37" d="M24.4283 16.2471L16.6097 8.70152L13.1685 7.15191L11.5659 5.65039L11.2185 7.68014L8.125 9.18679L16.3454 17.6264L12.5002 18.8763L8.18955 17.5571L15.4701 24.6435C19.7251 23.6064 23.1271 20.3921 24.4283 16.2471Z" fill="#DC8A42"/>
<path d="M12.5001 19.3484C14.1339 19.3484 15.6699 18.7122 16.8251 17.557C17.9803 16.4018 18.6166 14.8656 18.6166 13.232C18.6166 13.2319 18.6166 13.232 18.6166 13.2319C18.6166 11.5982 17.9804 10.0622 16.8251 8.90696C16.0036 8.08547 14.9727 7.51741 13.844 7.26424C13.2313 7.12674 12.6047 7.0848 11.9855 7.13689L11.5653 5.65039L9.8449 7.41856L8.12446 9.18674L10.516 9.79253L12.9075 10.3983L12.401 8.60663C13.6424 8.5772 14.8569 9.05015 15.7694 9.96264C17.5721 11.7653 17.5721 14.6985 15.7694 16.5012C13.9667 18.3038 11.0336 18.3038 9.23095 16.5012C7.87386 15.1442 7.49472 13.1317 8.26468 11.3744L6.89713 10.7752C6.40858 11.8902 6.26442 13.1153 6.48036 14.3177C6.70154 15.5492 7.28759 16.6693 8.17522 17.5569C9.33042 18.7121 10.8664 19.3484 12.5001 19.3484Z" fill="white"/>
</svg>
