<svg width="16" height="16" viewBox="0 0 16 16" fill="none" xmlns="http://www.w3.org/2000/svg">
<path d="M8 16C12.4183 16 16 12.4183 16 8C16 3.58172 12.4183 0 8 0C3.58172 0 0 3.58172 0 8C0 12.4183 3.58172 16 8 16Z" fill="#E7E7E7"/>
<path d="M4.20314 4.35927C4.34549 4.30034 4.46698 4.32457 4.56773 4.43222L5.24481 5.10416C5.61633 4.75345 6.04079 4.48177 6.51822 4.28905C6.99566 4.09636 7.4896 4 8.00002 4C8.54167 4 9.05901 4.10595 9.55206 4.31773C10.0451 4.52953 10.4705 4.8142 10.8281 5.17184C11.1858 5.52953 11.4705 5.95483 11.6823 6.44789C11.8941 6.94098 12 7.45827 12 8C12 8.54156 11.8941 9.05898 11.6823 9.55205C11.4704 10.0452 11.1858 10.4705 10.8281 10.8282C10.4705 11.1857 10.0451 11.4704 9.55204 11.6822C9.059 11.894 8.54165 12 8 12C7.40282 12 6.83496 11.8741 6.29685 11.6224C5.75871 11.3707 5.30038 11.0156 4.92181 10.5573C4.89409 10.5226 4.88106 10.4835 4.88285 10.4401C4.88447 10.3967 4.90107 10.3611 4.9323 10.3333L5.64572 9.61459C5.68404 9.58338 5.72732 9.56778 5.77595 9.56778C5.8315 9.57471 5.87139 9.59562 5.89573 9.63033C6.1492 9.96027 6.45996 10.2154 6.82803 10.3961C7.19603 10.5766 7.58665 10.6668 7.99985 10.6668C8.3609 10.6668 8.70553 10.5965 9.03366 10.4558C9.36182 10.3153 9.6457 10.1252 9.88524 9.88556C10.1248 9.64595 10.3149 9.36217 10.4555 9.03397C10.5961 8.70584 10.6664 8.36129 10.6664 8.00015C10.6664 7.63903 10.5961 7.29432 10.4555 6.96627C10.3149 6.63818 10.1248 6.35429 9.88524 6.11475C9.64563 5.87515 9.36182 5.68504 9.03366 5.54439C8.70561 5.4038 8.3609 5.33345 7.99985 5.33345C7.30193 5.33345 6.69599 5.57132 6.18209 6.04703L6.901 6.76567C7.00868 6.86986 7.03291 6.98967 6.97399 7.12507C6.91486 7.26397 6.81243 7.3334 6.66653 7.3334H4.33325C4.24297 7.3334 4.16487 7.30044 4.09887 7.23445C4.03296 7.16849 4 7.09037 4 7.00009V4.66671C4.00004 4.52092 4.06757 4.41848 4.20314 4.35927Z" fill="white"/>
</svg>
