<svg width="20" height="20" viewBox="0 0 20 20" fill="none" xmlns="http://www.w3.org/2000/svg">
<circle cx="10" cy="10" r="10" fill="#BDBDBD"/>
<path d="M13.6117 11.373V13.6574H6.38832V11.373H5V14.3289C5 14.6995 5.31036 15 5.6952 15H14.3048C14.6893 15 15 14.6998 15 14.3289V11.373H13.6117Z" fill="white"/>
<path d="M10.1264 5.08738L12.1141 7.41075C12.1141 7.41075 12.4165 7.68695 12.0885 7.68695C11.7606 7.68695 10.9685 7.68695 10.9685 7.68695C10.9685 7.68695 10.9685 7.87276 10.9685 8.1593C10.9685 8.97623 10.9685 10.463 10.9685 11.0691C10.9685 11.0691 11.013 11.2339 10.7564 11.2339C10.4978 11.2339 9.36499 11.2339 9.17981 11.2339C8.99498 11.2339 8.99912 11.0951 8.99912 11.0951C8.99912 10.5074 8.99912 8.96923 8.99912 8.17898C8.99912 7.92279 8.99912 7.75667 8.99912 7.75667C8.99912 7.75667 8.36392 7.75667 7.96529 7.75667C7.56735 7.75667 7.86701 7.46746 7.86701 7.46746C7.86701 7.46746 9.5581 5.29587 9.79397 5.06803C9.96363 4.90291 10.1264 5.08738 10.1264 5.08738Z" fill="white"/>
</svg>
