<svg width="86" height="86" viewBox="0 0 86 86" fill="none" xmlns="http://www.w3.org/2000/svg">
<path d="M40 80C62.0914 80 80 62.0914 80 40C80 17.9086 62.0914 0 40 0C17.9086 0 0 17.9086 0 40C0 62.0914 17.9086 80 40 80Z" transform="translate(3 3)" stroke="white" stroke-width="4.5" stroke-miterlimit="10"/>
<path d="M9 18C13.9706 18 18 13.9706 18 9C18 4.02944 13.9706 0 9 0C4.02944 0 0 4.02944 0 9C0 13.9706 4.02944 18 9 18Z" transform="translate(33.9199 20.7358)" stroke="white" stroke-width="4" stroke-miterlimit="10"/>
<path d="M41.104 20.248H-4.27246e-07C-4.27246e-07 20.248 1.52588e-06 -0.00799714 20.456 2.85733e-06H20.552C41.104 -0.00799714 41.104 20.248 41.104 20.248Z" transform="translate(22.4473 39.688)" stroke="white" stroke-width="4" stroke-miterlimit="10"/>
</svg>
