<svg width="21" height="21" viewBox="0 0 21 21" fill="none" xmlns="http://www.w3.org/2000/svg">
<path d="M7.722 2.43755V2.21643C7.74896 1.35857 7.10047 0.750971 6.52592 0.539989C5.95599 0.311268 5.47694 0.318237 5.41224 0.315704L2.33154 0.314438C2.26685 0.318872 1.78703 0.310635 1.21633 0.539356C0.641775 0.748436 -0.00517225 1.35604 0.0217839 2.2158C0.0202435 3.48359 0.0202436 16.1545 0.0210138 16.1545C0.0240945 16.2071 0.0148524 17.2354 0.679514 18.3391C1.31953 19.4459 2.82907 20.6111 5.41147 20.5895C7.99387 20.6117 9.50573 19.4466 10.1442 18.3397C10.8089 17.2354 10.7996 16.2071 10.8027 16.1545V11.3881C11.5259 11.5991 12.3007 11.7195 13.1132 11.7195C16.9418 11.7195 20.0433 9.16804 20.0448 6.01726C20.0433 2.86775 16.9418 0.316338 13.1132 0.315071C10.9336 0.315704 8.99125 1.14442 7.722 2.43755ZM9.26389 16.1545C9.26389 16.1545 9.26543 16.3332 9.20074 16.6436C9.10909 17.1137 8.86263 17.81 8.3135 18.3467C7.7582 18.8808 6.95183 19.3129 5.41147 19.323C3.37359 19.3008 2.57338 18.5659 2.05659 17.7714C1.81398 17.3722 1.68536 16.9553 1.62375 16.6436C1.5606 16.3338 1.56676 16.1545 1.5606 16.1545C1.5606 16.1545 1.5606 3.48295 1.5606 2.2158C1.58755 1.80651 1.71078 1.78117 1.9064 1.67409C2.00653 1.63418 2.12667 1.6063 2.21756 1.59363C2.30767 1.58096 2.33154 1.58666 2.33154 1.58222L5.41224 1.58349C5.41224 1.58222 5.43612 1.58096 5.52623 1.5949C5.66409 1.61137 5.86126 1.66586 5.97139 1.74569C6.07845 1.83122 6.1701 1.89964 6.18242 2.21643C6.18242 2.66184 6.18165 4.2046 6.18165 6.016C6.18165 6.01663 6.18165 6.01663 6.18165 6.01726C6.18165 6.0179 6.18165 6.0179 6.18165 6.01853C6.18165 9.35748 6.18165 13.6126 6.18242 13.6202C6.15546 14.0301 6.03224 14.0548 5.83815 14.1619C5.73649 14.2037 5.61634 14.231 5.52623 14.2424C5.43612 14.2563 5.41147 14.2493 5.41147 14.2544C4.91394 14.2322 4.8839 14.1308 4.75374 13.9699C4.70291 13.8876 4.66979 13.7881 4.65516 13.714C4.64053 13.6398 4.64746 13.6202 4.64284 13.6202L4.64284 3.48295H3.10249L3.10249 13.6202C3.10557 13.6728 3.09633 14.0681 3.37513 14.5363C3.62929 15.0103 4.3702 15.5431 5.41147 15.5209C5.47617 15.5184 5.95522 15.526 6.52515 15.2966C7.10047 15.0875 7.74896 14.478 7.722 13.6202C7.722 13.6202 7.722 11.7955 7.722 9.59824C8.161 10.0462 8.68087 10.4384 9.26389 10.7596V16.1545ZM18.4144 6.01726C18.4074 8.42549 16.0391 10.3737 13.1132 10.3794C10.1858 10.3737 7.8175 8.42549 7.81134 6.01726C7.8175 3.6103 10.1858 1.66206 13.1132 1.65635C16.0391 1.66206 18.4074 3.6103 18.4144 6.01726Z" fill="#BDBDBD"/>
<path d="M11.0342 5.77381V6.55363H13.0366V8.11328H14.0378V6.55363H16.0403V5.77381H14.0378V4.21416H13.0366V5.77381H11.0342Z" fill="#5FB760"/>
</svg>
