<svg width="42" height="49" viewBox="0 0 42 49" fill="none" xmlns="http://www.w3.org/2000/svg">
<path d="M38.4616 11.4519V10.5208C38.4616 7.87605 36.1661 5.72443 33.3446 5.72443H27.6912C27.0852 4.39052 25.682 3.44832 24.0454 3.4262C23.3991 1.51084 21.4851 0.118439 19.2307 0.118439C16.9765 0.118439 15.0624 1.51084 14.4162 3.4262C12.7795 3.44832 11.3764 4.39062 10.7704 5.72443H5.11686C2.29539 5.72443 0 7.87605 0 10.5208V43.9418C0.00010158 46.5866 2.29549 48.7382 5.11697 48.7382H33.3446C36.1661 48.7382 38.4616 46.5866 38.4616 43.9418V42.2455L40.3249 39.3143L40.325 39.3142C40.8581 38.4755 41.1398 37.5163 41.1398 36.5402V15.1212C41.1398 13.4536 40.0275 12.0248 38.4616 11.4519ZM37.7052 37.859L36.9378 39.0661L36.1703 37.8591C35.9384 37.4942 35.8067 37.0813 35.7861 36.6581H38.0894C38.0688 37.0812 37.937 37.4942 37.7052 37.859ZM35.7832 33.8092V18.9532H38.0924V33.8092H35.7832ZM35.7832 16.1044V15.1212C35.7832 14.521 36.3013 14.0327 36.9379 14.0327C37.5745 14.0327 38.0924 14.521 38.0924 15.1212V16.1044H35.7832ZM14.4752 6.27463H15.7064C16.5479 6.27463 17.2301 5.63688 17.2301 4.85022C17.2301 3.81193 18.1276 2.96725 19.2308 2.96725C20.3341 2.96725 21.2315 3.81202 21.2315 4.85022C21.2315 5.63688 21.9137 6.27463 22.7552 6.27463H23.9865C24.5252 6.27463 24.9634 6.68828 24.9634 7.19689C24.9634 7.70531 24.5252 8.11905 23.9865 8.11905H14.4752C13.9365 8.11905 13.4983 7.7054 13.4983 7.19689C13.4983 6.68837 13.9365 6.27463 14.4752 6.27463ZM33.3446 45.8894H5.11697C3.97582 45.8894 3.04749 45.0158 3.04749 43.9418V10.5208C3.04749 9.44688 3.97582 8.57325 5.11697 8.57325H10.7284C11.3165 9.97391 12.7742 10.9679 14.4752 10.9679H23.9864C25.6873 10.9679 27.1451 9.97391 27.7331 8.57325H33.3446C34.4857 8.57325 35.4142 9.44688 35.4142 10.5208V11.4518C33.8481 12.0246 32.7358 13.4535 32.7358 15.1212V36.5402C32.7358 37.5163 33.0175 38.4755 33.5507 39.3143L35.4142 42.2455V43.9418C35.4142 45.0158 34.4857 45.8894 33.3446 45.8894Z" fill="#BDBDBD"/>
<path d="M28.4989 14.9078H9.40907C8.56758 14.9078 7.88537 15.5455 7.88537 16.3322C7.88537 17.1188 8.56758 17.7566 9.40907 17.7566H28.4989C29.3404 17.7566 30.0226 17.1188 30.0226 16.3322C30.0226 15.5455 29.3404 14.9078 28.4989 14.9078Z" fill="#BDBDBD"/>
<path d="M9.40907 22.5042H24.4516C25.2931 22.5042 25.9753 21.8665 25.9753 21.0798C25.9753 20.2932 25.2931 19.6554 24.4516 19.6554H9.40907C8.56758 19.6554 7.88537 20.2932 7.88537 21.0798C7.88537 21.8665 8.56758 22.5042 9.40907 22.5042Z" fill="#BDBDBD"/>
<path d="M9.40907 27.2519H26.2076C27.0491 27.2519 27.7313 26.6141 27.7313 25.8275C27.7313 25.0408 27.0491 24.403 26.2076 24.403H9.40907C8.56758 24.403 7.88537 25.0408 7.88537 25.8275C7.88537 26.6141 8.56758 27.2519 9.40907 27.2519Z" fill="#BDBDBD"/>
<path d="M9.40907 31.9995H14.9338C15.7753 31.9995 16.4575 31.3618 16.4575 30.5751C16.4575 29.7885 15.7753 29.1507 14.9338 29.1507H9.40907C8.56758 29.1507 7.88537 29.7885 7.88537 30.5751C7.88537 31.3618 8.56758 31.9995 9.40907 31.9995Z" fill="#BDBDBD"/>
<path d="M28.4989 33.8983H9.40907C8.56758 33.8983 7.88537 34.5361 7.88537 35.3228C7.88537 36.1094 8.56758 36.7472 9.40907 36.7472H28.4989C29.3404 36.7472 30.0226 36.1094 30.0226 35.3228C30.0226 34.5361 29.3404 33.8983 28.4989 33.8983Z" fill="#BDBDBD"/>
<path d="M24.4516 38.646H9.40907C8.56758 38.646 7.88537 39.2837 7.88537 40.0704C7.88537 40.857 8.56758 41.4948 9.40907 41.4948H24.4516C25.2931 41.4948 25.9753 40.857 25.9753 40.0704C25.9753 39.2837 25.2931 38.646 24.4516 38.646Z" fill="#BDBDBD"/>
</svg>
