<svg width="15" height="18" viewBox="0 0 15 18" fill="none" xmlns="http://www.w3.org/2000/svg">
<path d="M2.11901 2.15655H5.00636C5.15039 0.94457 6.21303 0 7.50002 0C8.78697 0 9.84946 0.944533 9.99349 2.15655H12.881C14.0495 2.15655 15 3.07918 15 4.21303V4.31855C15 5.18502 14.444 5.92666 13.6608 6.22884V15.9435C13.6608 17.0774 12.7102 18 11.5417 18H3.45821C2.28976 18 1.33921 17.0773 1.33921 15.9435V6.22888C0.556022 5.92666 -9.53674e-07 5.18502 -9.53674e-07 4.31858V4.21307C-9.53674e-07 3.07918 0.950594 2.15655 2.11901 2.15655ZM7.50002 0.975277C6.76805 0.975277 6.15708 1.48439 6.02189 2.15655H8.97788C8.84272 1.48435 8.23172 0.975277 7.50002 0.975277ZM2.34425 15.9435C2.34425 16.5397 2.84409 17.0248 3.45825 17.0248H11.5418C12.1559 17.0248 12.6558 16.5396 12.6558 15.9435V6.37503H2.34425V15.9435ZM1.00504 4.31855C1.00504 4.9147 1.50489 5.39979 2.11905 5.39979H12.881C13.4952 5.39979 13.995 4.9147 13.995 4.31855V4.21303C13.995 3.61687 13.4952 3.13179 12.881 3.13179H2.11901C1.50485 3.13179 1.005 3.61687 1.005 4.21303V4.31855H1.00504Z" fill="white"/>
<path d="M10.1938 15.7773C9.91626 15.7773 9.69129 15.5589 9.69129 15.2897V9.79918C9.69129 9.52994 9.9163 9.31152 10.1938 9.31152C10.4713 9.31152 10.6963 9.52994 10.6963 9.79918V15.2897C10.6963 15.5589 10.4713 15.7773 10.1938 15.7773Z" fill="white"/>
<path d="M7.49945 15.7773C7.22192 15.7773 6.99691 15.5589 6.99691 15.2897V9.79918C6.99691 9.52994 7.222 9.31152 7.49945 9.31152C7.77694 9.31152 8.00195 9.52994 8.00195 9.79918V15.2897C8.00195 15.5589 7.77698 15.7773 7.49945 15.7773Z" fill="white"/>
<path d="M4.80508 15.7773C4.52759 15.7773 4.30262 15.5589 4.30262 15.2897V9.79918C4.30262 9.52994 4.52762 9.31152 4.80508 9.31152C5.08265 9.31152 5.30762 9.52994 5.30762 9.79918V15.2897C5.30766 15.5589 5.08257 15.7773 4.80508 15.7773Z" fill="white"/>
</svg>
