<svg width="13" height="15" viewBox="0 0 13 15" fill="none" xmlns="http://www.w3.org/2000/svg">
<path d="M2.0956 1.725H4.40548C4.5207 0.755412 5.37081 -0.000244141 6.40041 -0.000244141C7.42997 -0.000244141 8.27996 0.755382 8.39518 1.725H10.7052C11.64 1.725 12.4004 2.4631 12.4004 3.37018V3.45459C12.4004 4.14778 11.9556 4.74108 11.329 4.98283V12.7546C11.329 13.6617 10.5685 14.3998 9.63379 14.3998H3.16696C2.2322 14.3998 1.47176 13.6616 1.47176 12.7546V4.98286C0.845208 4.74108 0.400391 4.14778 0.400391 3.45462V3.37021C0.400391 2.4631 1.16087 1.725 2.0956 1.725ZM6.40041 0.779978C5.81483 0.779978 5.32606 1.18727 5.2179 1.725H7.58269C7.47457 1.18724 6.98577 0.779978 6.40041 0.779978ZM2.27579 12.7546C2.27579 13.2315 2.67566 13.6196 3.16699 13.6196H9.63382C10.1251 13.6196 10.525 13.2315 10.525 12.7546V5.09978H2.27579V12.7546ZM1.20442 3.45459C1.20442 3.93152 1.6043 4.31959 2.09563 4.31959H10.7052C11.1965 4.31959 11.5964 3.93152 11.5964 3.45459V3.37018C11.5964 2.89325 11.1965 2.50519 10.7052 2.50519H2.0956C1.60427 2.50519 1.20439 2.89325 1.20439 3.37018V3.45459H1.20442Z" fill="#FF7362"/>
<path d="M8.55405 12.6216C8.33203 12.6216 8.15205 12.4469 8.15205 12.2315V7.8391C8.15205 7.62371 8.33206 7.44897 8.55405 7.44897C8.77605 7.44897 8.95605 7.62371 8.95605 7.8391V12.2315C8.95609 12.4469 8.77608 12.6216 8.55405 12.6216Z" fill="#FF7362"/>
<path d="M6.39976 12.6216C6.17773 12.6216 5.99773 12.4469 5.99773 12.2315V7.8391C5.99773 7.62371 6.17779 7.44897 6.39976 7.44897C6.62175 7.44897 6.80176 7.62371 6.80176 7.8391V12.2315C6.80176 12.4469 6.62178 12.6216 6.39976 12.6216Z" fill="#FF7362"/>
<path d="M4.24445 12.6216C4.02246 12.6216 3.84248 12.4469 3.84248 12.2315V7.8391C3.84248 7.62371 4.02249 7.44897 4.24445 7.44897C4.46651 7.44897 4.64648 7.62371 4.64648 7.8391V12.2315C4.64652 12.4469 4.46645 12.6216 4.24445 12.6216Z" fill="#FF7362"/>
</svg>
