<svg width="16" height="19" viewBox="0 0 16 19" fill="none" xmlns="http://www.w3.org/2000/svg">
<path d="M2.1298 2.16799H5.03246C5.17726 0.949579 6.24553 0 7.53935 0C8.83313 0 9.90124 0.949542 10.046 2.16799H12.9489C14.1235 2.16799 15.0791 3.09551 15.0791 4.23537V4.34145C15.0791 5.21252 14.5202 5.95809 13.7328 6.26187V16.0281C13.7328 17.168 12.7771 18.0955 11.6025 18.0955H3.47611C2.30146 18.0955 1.34586 17.1679 1.34586 16.0281V6.26191C0.558526 5.95809 -0.000444412 5.21252 -0.000444412 4.34149V4.23541C-0.000444412 3.09551 0.955191 2.16799 2.1298 2.16799ZM7.53935 0.980449C6.8035 0.980449 6.18929 1.49226 6.05338 2.16799H9.02504C8.88917 1.49222 8.27493 0.980449 7.53935 0.980449ZM2.35623 16.0281C2.35623 16.6274 2.85873 17.115 3.47615 17.115H11.6025C12.22 17.115 12.7225 16.6274 12.7225 16.0281V6.40883H2.35623V16.0281ZM1.00992 4.34145C1.00992 4.94077 1.51242 5.42842 2.12984 5.42842H12.9489C13.5663 5.42842 14.0688 4.94077 14.0688 4.34145V4.23537C14.0688 3.63605 13.5663 3.1484 12.9489 3.1484H2.1298C1.51238 3.1484 1.00989 3.63605 1.00989 4.23537V4.34145H1.00992Z" fill="#5780A6"/>
<path d="M10.2448 15.8606C9.96583 15.8606 9.73967 15.6411 9.73967 15.3704V9.85084C9.73967 9.58017 9.96587 9.3606 10.2448 9.3606C10.5238 9.3606 10.75 9.58017 10.75 9.85084V15.3704C10.75 15.6411 10.5238 15.8606 10.2448 15.8606Z" fill="#5780A6"/>
<path d="M7.53878 15.8606C7.25978 15.8606 7.03358 15.6411 7.03358 15.3704V9.85084C7.03358 9.58017 7.25985 9.3606 7.53878 9.3606C7.81774 9.3606 8.04395 9.58017 8.04395 9.85084V15.3704C8.04395 15.6411 7.81778 15.8606 7.53878 15.8606Z" fill="#5780A6"/>
<path d="M4.83366 15.8606C4.5547 15.8606 4.32854 15.6411 4.32854 15.3704V9.85084C4.32854 9.58017 4.55474 9.3606 4.83366 9.3606C5.1127 9.3606 5.33887 9.58017 5.33887 9.85084V15.3704C5.33891 15.6411 5.11263 15.8606 4.83366 15.8606Z" fill="#5780A6"/>
</svg>
