<svg width="26" height="26" viewBox="0 0 26 26" fill="none" xmlns="http://www.w3.org/2000/svg">
<path d="M12.9942 6.36035C9.33307 6.36035 6.35449 9.33893 6.35449 13.0001C6.35449 16.6613 9.33307 19.6399 12.9942 19.6399C16.6554 19.6399 19.634 16.6613 19.634 13.0001C19.634 9.33893 16.6554 6.36035 12.9942 6.36035Z" fill="white"/>
<path d="M13.7617 0H12.2383V4.62109H13.7617V0Z" fill="white"/>
<path d="M13.7617 21.3789H12.2383V26H13.7617V21.3789Z" fill="white"/>
<path d="M26 12.2383H21.3789V13.7617H26V12.2383Z" fill="white"/>
<path d="M4.62109 12.2383H0V13.7617H4.62109V12.2383Z" fill="white"/>
<path d="M19.46 18.3857L18.3828 19.4629L21.6504 22.7304L22.7276 21.6532L19.46 18.3857Z" fill="white"/>
<path d="M4.34871 3.26897L3.27148 4.34619L6.53902 7.61373L7.61625 6.53651L4.34871 3.26897Z" fill="white"/>
<path d="M6.53902 18.3863L3.27148 21.6538L4.34871 22.731L7.61625 19.4635L6.53902 18.3863Z" fill="white"/>
<path d="M21.6533 3.26908L18.3857 6.53662L19.463 7.61384L22.7305 4.3463L21.6533 3.26908Z" fill="white"/>
</svg>
