<?xml version="1.0" encoding="utf-8"?>
<!-- Generator: Adobe Illustrator 23.0.2, SVG Export Plug-In . SVG Version: 6.00 Build 0)  -->
<svg version="1.1" id="Layer_1" xmlns="http://www.w3.org/2000/svg" xmlns:xlink="http://www.w3.org/1999/xlink" x="0px" y="0px"
	 viewBox="0 0 500 500" style="enable-background:new 0 0 500 500;" xml:space="preserve">
<style type="text/css">
	.st0{display:none;fill:#AF3131;}
	.st1{fill:#FFFFFF;}
	.st2{display:none;}
	.st3{display:inline;}
	.st4{fill:none;stroke:#FFFFFF;stroke-width:12.9178;stroke-miterlimit:10;}
	.st5{display:inline;fill:none;stroke:#FFFFFF;stroke-width:13;stroke-miterlimit:10;}
	.st6{display:inline;fill:#FFFFFF;}
</style>
<rect class="st0" width="500" height="500"/>
<g>
	<path class="st1" d="M480,20v460H20V20H480 M495,5H5v490h490V5L495,5z"/>
</g>
<g id="buyer-KPI">
	<path class="st1" d="M446.6,282.4c-8-13.9-25.9-18.8-39.8-10.8c-2.5,1.3-35,17.2-61.7,28.4c-3,1.3-4.4,4.7-3.1,7.7
		c1.3,3,4.7,4.4,7.7,3.1c28-11.8,62.1-28.6,62.5-28.8c0.1-0.1,0.2-0.1,0.3-0.2c8.4-4.8,19.2-2,24,6.4c5.6,9.7-3.1,20.4-7.4,24.7
		c-29.1,23.5-109.6,83.7-136.7,83.7c-30,0-114.2-17.8-134.8-22.3v-95.7c40.8-6,62.4,1.5,107.8,17.3c13.8,4.8,29.4,10.2,48.4,16.3
		c2.8,1.2,10.7,5.7,7.7,15.6c-1.8,6.1-7.7,11.9-16.3,10.3c-11.5-2.2-79.4-11.4-82.3-11.8c-3.2-0.4-6.2,1.8-6.6,5
		c-0.4,3.2,1.8,6.2,5,6.6c0.7,0.1,70.5,9.6,81.7,11.7c1.7,0.3,3.4,0.5,5.1,0.5c12.4,0,21.6-8.9,24.6-18.9
		c3.1-10.5-0.1-23.8-14.5-29.9c0,0,0,0-0.1,0c0,0,0,0-0.1,0c-0.1,0-0.2-0.1-0.2-0.1c-0.1,0-0.2-0.1-0.2-0.1
		c-19-6.1-34.6-11.5-48.4-16.3c-45.2-15.7-69-24-111.6-18.1v-4.9c0-3.2-2.6-5.9-5.9-5.9h-17.6v-5.9c0-3.2-2.6-5.9-5.9-5.9H55.9
		c-3.2,0-5.9,2.6-5.9,5.9v128.9c0,3.2,2.6,5.9,5.9,5.9c3.2,0,5.9-2.6,5.9-5.9v-123h60.7v140.6h-11.7v-5.9c0-3.2-2.6-5.9-5.9-5.9
		c-3.2,0-5.9,2.6-5.9,5.9v5.9H55.9c-3.2,0-5.9,2.6-5.9,5.9c0,3.2,2.6,5.9,5.9,5.9h72.4c3.2,0,5.9-2.6,5.9-5.9v-6.2h17.6
		c3.2,0,5.9-2.6,5.9-5.9v-4.1c24.5,5.3,104.3,22,134.8,22c16,0,44.4-14.3,86.8-43.6c30.6-21.2,57.2-42.6,57.5-42.8
		c0.2-0.1,0.3-0.3,0.5-0.4C449.8,308.8,453.4,294.2,446.6,282.4z M145.9,379C145.9,379,145.9,379,145.9,379v5.7h-11.7l0,0V267.8
		h11.7L145.9,379L145.9,379z"/>
	<path class="st1" d="M378.4,91.6H198.6c-11.8,0-21.5,9.6-21.5,21.5v101.6c0,11.8,9.6,21.5,21.5,21.5h179.7
		c11.8,0,21.5-9.6,21.5-21.5V113.1C399.9,101.2,390.2,91.6,378.4,91.6z M188.9,113.1c0-5.4,4.4-9.8,9.8-9.8h179.7
		c5.4,0,9.8,4.4,9.8,9.8v2H188.9V113.1z M388.1,214.7c0,5.4-4.4,9.8-9.8,9.8H198.6c-5.4,0-9.8-4.4-9.8-9.8V158h199.3V214.7z
		 M188.9,146.3v-19.5h199.3v19.5H188.9z"/>
	<path class="st1" d="M261.2,185.4h-54.7c-3.2,0-5.9,2.6-5.9,5.9s2.6,5.9,5.9,5.9h54.7c3.2,0,5.9-2.6,5.9-5.9
		S264.4,185.4,261.2,185.4z"/>
	<path class="st1" d="M370.6,185.4h-15.6c-3.2,0-5.9,2.6-5.9,5.9s2.6,5.9,5.9,5.9h15.6c3.2,0,5.9-2.6,5.9-5.9
		S373.8,185.4,370.6,185.4z"/>
</g>
<g id="price-compare" class="st2">
	<g class="st3">
		<g>
			<g>
				<path class="st1" d="M220.6,185.4c-0.8-2.7-1.8-5-2.9-7c-1.1-2-2.8-3.9-4.9-5.8c-2.1-1.9-4-3.4-5.7-4.6c-1.7-1.2-4-2.5-6.9-3.9
					c-2.9-1.4-5.3-2.5-7-3.2c-1.7-0.7-4.2-1.7-7.4-2.9c-2.9-1.1-5-1.9-6.4-2.5c-1.4-0.6-3.3-1.4-5.6-2.5c-2.3-1.1-4-2-5.1-2.8
					c-1.1-0.8-2.3-1.8-3.6-3c-1.3-1.2-2.2-2.5-2.7-3.8c-0.5-1.3-0.8-2.8-0.8-4.4c0-4.2,1.8-7.6,5.5-10.2c3.7-2.6,8.4-4,14.2-4
					c2.6,0,5.2,0.4,7.9,1.1c2.7,0.7,4.9,1.5,6.8,2.4c1.9,0.9,3.7,1.9,5.4,2.9c1.7,1.1,2.9,1.9,3.6,2.4c0.7,0.6,1.2,0.9,1.3,1.1
					c0.8,0.6,1.6,0.8,2.5,0.6c0.9-0.1,1.6-0.6,2.1-1.5l7.4-13.4c0.7-1.2,0.6-2.4-0.5-3.5c-0.4-0.4-0.8-0.8-1.4-1.3
					c-0.5-0.5-1.7-1.4-3.6-2.7c-1.8-1.3-3.8-2.4-5.8-3.4c-2.1-1-4.7-2-8-3.1c-3.3-1-6.7-1.7-10.2-2.1V88.1c0-0.9-0.3-1.6-0.8-2.1
					c-0.6-0.6-1.3-0.8-2.1-0.8h-12.4c-0.8,0-1.5,0.3-2.1,0.9s-0.9,1.3-0.9,2.1v16.5c-9.6,1.8-17.4,5.9-23.4,12.3
					c-6,6.4-9,13.8-9,22.2c0,2.5,0.3,4.9,0.8,7.2c0.5,2.3,1.2,4.3,1.9,6.1c0.8,1.8,1.9,3.6,3.3,5.3c1.4,1.7,2.7,3.2,4,4.5
					c1.3,1.3,2.9,2.6,4.9,3.9c2,1.3,3.8,2.4,5.2,3.3c1.4,0.8,3.4,1.8,5.7,2.8c2.4,1.1,4.3,1.9,5.7,2.4c1.4,0.6,3.3,1.3,5.7,2.3
					c3.3,1.3,5.8,2.3,7.4,3c1.6,0.7,3.6,1.7,6.1,2.9c2.4,1.3,4.2,2.4,5.4,3.4c1.1,1,2.2,2.3,3.1,3.9c0.9,1.5,1.4,3.2,1.4,4.9
					c0,4.8-1.9,8.6-5.7,11.2c-3.8,2.6-8.1,4-13.1,4c-2.3,0-4.5-0.2-6.8-0.7c-8-1.6-15.4-5.4-22.3-11.5l-0.2-0.2
					c-0.6-0.7-1.3-0.9-2.2-0.8c-1,0.1-1.7,0.5-2.1,1.1l-9.5,12.4c-0.9,1.2-0.9,2.5,0.2,3.8c0.3,0.4,0.8,0.9,1.6,1.7
					c0.8,0.7,2.2,1.9,4.3,3.4c2.1,1.6,4.3,3,6.8,4.4c2.5,1.4,5.6,2.7,9.3,4.1c3.8,1.3,7.7,2.3,11.7,2.8v16.1c0,0.8,0.3,1.5,0.9,2.1
					c0.6,0.6,1.3,0.9,2.1,0.9H186c0.9,0,1.6-0.3,2.1-0.8s0.8-1.3,0.8-2.1v-16.1c9.7-1.6,17.7-5.8,23.8-12.5
					c6.1-6.8,9.1-14.8,9.1-24.2C221.8,190.9,221.4,188,220.6,185.4z"/>
			</g>
			<circle class="st4" cx="178.9" cy="167.4" r="108.3"/>
		</g>
		<g>
			<g>
				<path class="st1" d="M362.7,350.5c-0.8-2.7-1.8-5-2.9-7c-1.1-2-2.8-3.9-4.9-5.8c-2.1-1.9-4-3.4-5.7-4.6c-1.7-1.2-4-2.5-6.9-3.9
					c-2.9-1.4-5.3-2.5-7-3.2c-1.7-0.7-4.2-1.7-7.4-2.9c-2.9-1.1-5-1.9-6.4-2.5c-1.4-0.6-3.3-1.4-5.6-2.5c-2.3-1.1-4-2-5.1-2.8
					c-1.1-0.8-2.3-1.8-3.6-3c-1.3-1.2-2.2-2.5-2.7-3.8c-0.5-1.3-0.8-2.8-0.8-4.4c0-4.2,1.8-7.6,5.5-10.2c3.7-2.6,8.4-4,14.2-4
					c2.6,0,5.2,0.4,7.9,1.1c2.7,0.7,4.9,1.5,6.8,2.4c1.9,0.9,3.7,1.9,5.4,2.9c1.7,1.1,2.9,1.9,3.6,2.4c0.7,0.6,1.2,0.9,1.3,1.1
					c0.8,0.6,1.6,0.8,2.5,0.6c0.9-0.1,1.6-0.6,2.1-1.5l7.4-13.4c0.7-1.2,0.6-2.4-0.5-3.5c-0.4-0.4-0.8-0.8-1.4-1.3
					c-0.5-0.5-1.7-1.4-3.6-2.7c-1.8-1.3-3.8-2.4-5.8-3.4c-2.1-1-4.7-2-8-3.1c-3.3-1-6.7-1.7-10.2-2.1v-16.2c0-0.9-0.3-1.6-0.8-2.1
					c-0.6-0.6-1.3-0.8-2.1-0.8h-12.4c-0.8,0-1.5,0.3-2.1,0.9c-0.6,0.6-0.9,1.3-0.9,2.1v16.5c-9.6,1.8-17.4,5.9-23.4,12.3
					c-6,6.4-9,13.8-9,22.2c0,2.5,0.3,4.9,0.8,7.2c0.5,2.3,1.2,4.3,1.9,6.1c0.8,1.8,1.9,3.6,3.3,5.3c1.4,1.7,2.7,3.2,4,4.5
					c1.3,1.3,2.9,2.6,4.9,3.9c2,1.3,3.8,2.4,5.2,3.3c1.4,0.8,3.4,1.8,5.7,2.8c2.4,1.1,4.3,1.9,5.7,2.4c1.4,0.6,3.3,1.3,5.7,2.3
					c3.3,1.3,5.8,2.3,7.4,3c1.6,0.7,3.6,1.7,6.1,2.9c2.4,1.3,4.2,2.4,5.4,3.4c1.1,1,2.2,2.3,3.1,3.9c0.9,1.5,1.4,3.2,1.4,4.9
					c0,4.8-1.9,8.6-5.7,11.2c-3.8,2.6-8.1,4-13.1,4c-2.3,0-4.5-0.2-6.8-0.7c-8-1.6-15.4-5.4-22.3-11.5l-0.2-0.2
					c-0.6-0.7-1.3-0.9-2.2-0.8c-1,0.1-1.7,0.5-2.1,1.1l-9.5,12.4c-0.9,1.2-0.9,2.5,0.2,3.8c0.3,0.4,0.8,0.9,1.6,1.7
					c0.8,0.7,2.2,1.9,4.3,3.4c2.1,1.6,4.3,3,6.8,4.4c2.5,1.4,5.6,2.7,9.3,4.1c3.8,1.3,7.7,2.3,11.7,2.8v16.1c0,0.8,0.3,1.5,0.9,2.1
					c0.6,0.6,1.3,0.9,2.1,0.9h12.4c0.9,0,1.6-0.3,2.1-0.8c0.6-0.6,0.8-1.3,0.8-2.1v-16.1c9.7-1.6,17.7-5.8,23.8-12.5
					c6.1-6.8,9.1-14.8,9.1-24.2C363.9,356.1,363.5,353.2,362.7,350.5z"/>
			</g>
			<circle class="st4" cx="321.1" cy="332.6" r="108.3"/>
		</g>
	</g>
	<polyline class="st5" points="321.6,101.3 406.2,101.3 406.2,185.9 	"/>
	<polyline class="st5" points="84.4,320.7 84.4,405.3 169,405.3 	"/>
</g>
<g id="procurement" class="st2">
	<path class="st6" d="M335.4,358.3c-17.1,0-31.1,14-31.1,31.1s14,31.1,31.1,31.1c17.1,0,31.1-14,31.1-31.1S352.5,358.3,335.4,358.3z
		 M350.9,389.4c0,8.6-7,15.6-15.6,15.6c-8.6,0-15.6-7-15.6-15.6c0-8.6,7-15.6,15.6-15.6C344.7,373.9,351.8,380.9,350.9,389.4z"/>
	<path class="st6" d="M226.7,358.3c-17.1,0-31.1,14-31.1,31.1s14,31.1,31.1,31.1c17.1,0,31.1-14,31.1-31.1S243.8,358.3,226.7,358.3z
		 M226.7,405c-8.6,0-15.6-7-15.6-15.6c0-8.6,7-15.6,15.6-15.6c8.6,0,15.6,7,15.6,15.6C242.2,398,235.2,405,226.7,405z"/>
	<path class="st6" d="M362.6,179.7c3.1-8.1,4.7-16.8,4.7-26c0-41-33.2-74.2-74.2-74.2c-41,0-74.2,33.2-74.2,74.2
		c0,9.2,1.6,18,4.7,26h-54.7l-29.1-99.4H67.5v14.7h60.6l69.1,235.3h172.4l62.9-150.7H362.6z M293.1,95.1c32.4,0,58.6,26.2,58.6,58.6
		c0,32.4-26.2,58.6-58.6,58.6c-32.4,0-58.6-26.2-58.6-58.6C234.4,121.4,260.7,95.1,293.1,95.1z M359.5,314.9H208.1l-34.8-119.6h58.3
		c13.3,19.7,35.9,32.6,61.5,32.6c25.6,0,48.1-13,61.5-32.6h54.7L359.5,314.9z"/>
	<path class="st6" d="M285.8,189.1h15.5v-27.2h27.2v-15.6h-27.2v-27.9h-15.5v27.9h-28v15.6h28V189.1z"/>
</g>
<g id="sustainability" class="st2">
	<path class="st6" d="M155.7,256l-60.1,61.5v103.8c0,2.9,2.4,5.3,5.4,5.3h73c3,0,5.4-2.4,5.4-5.3V262l-16.8-6.1H155.7z"/>
	<path class="st6" d="M304.4,304.2h-73c-3,0-5.4,2.4-5.4,5.3v111.8c0,2.9,2.4,5.3,5.4,5.3h73c3,0,5.4-2.4,5.4-5.3V309.5
		C309.8,306.6,307.3,304.2,304.4,304.2z"/>
	<path class="st6" d="M410.5,190.3l-13.3-10.9l-48,51.5v190.3c0,2.9,2.4,5.3,5.4,5.3h73c3,0,5.4-2.4,5.4-5.3V192.1
		c-0.3,0.2-0.6,0.4-0.9,0.5c-2.8,1.4-5.9,2.2-9.1,2.2C418.4,194.8,414,193.2,410.5,190.3z"/>
	<path class="st6" d="M77.8,272.5c2.8,0,5.6-1.1,7.8-3.3l68.7-70.3l120.2,43.5c4.1,1.5,8.7,0.4,11.7-2.8L396.8,121l25.9,21.3
		c1.3,1,3,1.2,4.5,0.5c1.5-0.8,2.3-2.3,2.2-3.9l-5.6-61.7c-0.2-2.2-2.2-3.8-4.4-3.6L356.6,79c-1.6,0.1-3,1.3-3.5,2.8
		c-0.2,0.5-0.2,1-0.2,1.5c0.1,1,0.6,2,1.4,2.7l26,21.3L275.1,220.2l-120-43.4c-4-1.4-8.5-0.4-11.5,2.6L70,254.6
		c-4.1,4.2-4,10.9,0.3,15C72.4,271.6,75.1,272.5,77.8,272.5z"/>
</g>
</svg>
