<svg width="12" height="13" viewBox="0 0 12 13" fill="none" xmlns="http://www.w3.org/2000/svg">
<path d="M11.7857 0.938687H10.2857V0.292533C10.2857 0.173425 10.1899 0.0771484 10.0714 0.0771484H8.57143C8.45293 0.0771484 8.35714 0.173425 8.35714 0.292533V0.938687H3.64286V0.292533C3.64286 0.173425 3.54707 0.0771484 3.42857 0.0771484H1.92857C1.81007 0.0771484 1.71429 0.173425 1.71429 0.292533V0.938687H0.214286C0.0957857 0.938687 0 1.03496 0 1.15407V3.5233V12.7848C0 12.9039 0.0957857 13.0002 0.214286 13.0002H11.7857C11.9042 13.0002 12 12.9039 12 12.7848V3.5233V1.15407C12 1.03496 11.9042 0.938687 11.7857 0.938687ZM8.78571 0.507918H9.85714V1.15407V1.80023H8.78571V1.15407V0.507918ZM2.14286 0.507918H3.21429V1.15407V1.80023H2.14286V1.15407V0.507918ZM0.428571 1.36946H1.71429V2.01561C1.71429 2.13472 1.81007 2.23099 1.92857 2.23099H3.42857C3.54707 2.23099 3.64286 2.13472 3.64286 2.01561V1.36946H8.35714V2.01561C8.35714 2.13472 8.45293 2.23099 8.57143 2.23099H10.0714C10.1899 2.23099 10.2857 2.13472 10.2857 2.01561V1.36946H11.5714V3.30792H0.428571V1.36946ZM0.428571 12.5695V3.73869H11.5714V12.5695H0.428571Z" fill="#8F9BAB"/>
<path d="M7.71345 5.03076H6.21345H5.78488H4.28488H3.85631H1.92773V6.96922V7.39999V8.90768V9.33845V11.2769H3.85631H4.28488H5.78488H6.21345H7.71345H8.14202H10.0706V9.33845V8.90768V7.39999V6.96922V5.03076H8.14202H7.71345ZM6.21345 5.46153H7.71345V6.96922H6.21345V5.46153ZM7.71345 8.90768H6.21345V7.39999H7.71345V8.90768ZM4.28488 7.39999H5.78488V8.90768H4.28488V7.39999ZM4.28488 5.46153H5.78488V6.96922H4.28488V5.46153ZM2.35631 5.46153H3.85631V6.96922H2.35631V5.46153ZM2.35631 7.39999H3.85631V8.90768H2.35631V7.39999ZM3.85631 10.8461H2.35631V9.33845H3.85631V10.8461ZM5.78488 10.8461H4.28488V9.33845H5.78488V10.8461ZM7.71345 10.8461H6.21345V9.33845H7.71345V10.8461ZM9.64202 10.8461H8.14202V9.33845H9.64202V10.8461ZM9.64202 8.90768H8.14202V7.39999H9.64202V8.90768ZM9.64202 5.46153V6.96922H8.14202V5.46153H9.64202Z" fill="#8F9BAB"/>
</svg>
