<svg width="13" height="13" viewBox="0 0 13 13" fill="none" xmlns="http://www.w3.org/2000/svg">
<path d="M9.74972 5.85001H8.44971V7.15002H9.74972V5.85001Z" fill="#F1F1F2"/>
<path d="M7.15011 5.85001H5.8501V7.15002H7.15011V5.85001Z" fill="#F1F1F2"/>
<path d="M4.55002 5.85001H3.25V7.15002H4.55002V5.85001Z" fill="#F1F1F2"/>
<path d="M11.0499 1.30001H10.3999V0H9.09992V1.30001H3.89991V0H2.5999V1.30001H1.94991C1.22841 1.30001 0.656423 1.88501 0.656423 2.60002L0.649902 11.7C0.649902 12.415 1.22841 13 1.94991 13H11.0499C11.7649 13 12.3499 12.415 12.3499 11.7V2.59999C12.3499 1.88501 11.7649 1.30001 11.0499 1.30001ZM11.0499 11.7H1.94991V4.54999H11.0499V11.7Z" fill="#F1F1F2"/>
</svg>
