<?xml version="1.0" encoding="utf-8"?>
<!-- Generator: Adobe Illustrator 23.0.1, SVG Export Plug-In . SVG Version: 6.00 Build 0)  -->
<svg version="1.1" id="Layer_1" xmlns="http://www.w3.org/2000/svg" xmlns:xlink="http://www.w3.org/1999/xlink" x="0px" y="0px"
	 viewBox="0 0 20 20" style="enable-background:new 0 0 20 20;" xml:space="preserve">
<style type="text/css">
	.st0{fill:#FFFFFF;}
</style>
<path class="st0" d="M15.3,19.8L15.3,19.8c0.4-0.4,0.4-1.1,0.1-1.5L6.9,10l8.5-8.3c0.2-0.2,0.3-0.4,0.3-0.7c0,0,0,0,0,0
	c0-0.3-0.1-0.5-0.3-0.7l-0.2-0.2C15,0.1,14.9,0,14.6,0c-0.2,0-0.3,0.1-0.4,0.2c0,0-0.1,0.1-0.1,0.1L4.6,9.3C4.4,9.5,4.3,9.7,4.3,10
	s0.1,0.5,0.3,0.7l9.3,9C14.4,20.1,14.9,20.1,15.3,19.8z"/>
</svg>
