<?xml version="1.0" encoding="utf-8"?>
<!-- Generator: Adobe Illustrator 23.0.1, SVG Export Plug-In . SVG Version: 6.00 Build 0)  -->
<svg version="1.1" id="Layer_1" xmlns="http://www.w3.org/2000/svg" xmlns:xlink="http://www.w3.org/1999/xlink" x="0px" y="0px"
	 viewBox="0 0 20 20" style="enable-background:new 0 0 20 20;" xml:space="preserve">
<style type="text/css">
	.st0{fill:#FFFFFF;}
</style>
<path class="st0" d="M19.8,4.7L19.8,4.7c-0.4-0.4-1.1-0.4-1.5-0.1L10,13.1L1.8,4.6C1.6,4.4,1.3,4.3,1.1,4.3c0,0,0,0,0,0
	c-0.3,0-0.5,0.1-0.7,0.3L0.2,4.8C0.1,5,0,5.1,0,5.4c0,0.2,0.1,0.3,0.2,0.4c0,0,0.1,0.1,0.1,0.1l9.1,9.4c0.2,0.2,0.4,0.3,0.7,0.3
	s0.5-0.1,0.7-0.3l9-9.3C20.1,5.6,20.1,5.1,19.8,4.7z"/>
</svg>
