<svg xmlns="http://www.w3.org/2000/svg" viewBox="0 0 500 500"><defs><style>.cls-1{fill:#bcbec0;}.cls-2{fill:#fff;}</style></defs><title>exporttoexcel</title><g id="Layer_2" data-name="Layer 2"><g id="Layer_1-2" data-name="Layer 1"><circle class="cls-1" cx="250" cy="250" r="250"/><path class="cls-2" d="M103.69,393.5v-287H396.31v287Zm276.84-16.28V186.7H322.61V377.22Zm-73.71,0V186.7H246.21V377.22Zm-76.4,0V186.7H177V377.22Zm-69.21,0V186.7H119.47V377.22Zm219.32-206.8V122.78H177v47.64Zm-219.32,0V122.78H119.47v47.64Z"/><path class="cls-2" d="M393.81,109V391H106.19V109H393.81M174.5,172.92H383V120.28H174.5v52.64m-57.53,0h46.74V120.28H117v52.64m203.14,206.8H383V184.2H320.11V379.72m-76.4,0h65.61V184.2H243.71V379.72m-69.21,0h58.42V184.2H174.5V379.72m-57.53,0h46.74V184.2H117V379.72M398.81,104H101.19V396H398.81V104ZM179.5,125.28H378v42.64H179.5V125.28Zm-57.53,0h36.74v42.64H122V125.28ZM325.11,189.2H378V374.72H325.11V189.2Zm-76.4,0h55.61V374.72H248.71V189.2Zm-69.21,0h48.42V374.72H179.5V189.2Zm-57.53,0h36.74V374.72H122V189.2Z"/></g></g></svg>