<svg xmlns="http://www.w3.org/2000/svg" viewBox="0 0 500 500"><defs><style>.cls-1{fill:#39c;}.cls-2{fill:#fff;}</style></defs><title>eye-line</title><g id="Layer_2" data-name="Layer 2"><g id="Layer_1-2" data-name="Layer 1"><circle class="cls-1" cx="250" cy="250" r="250"/><path class="cls-2" d="M250.9,175.13c50.19,0,89.63,35.55,89.63,80.79,0,9.7-1.79,21-7.17,29.09l52,46.85c26.89-21,48.4-46.85,60.95-75.94-30.48-71.09-107.56-121.18-197.2-121.18-25.09,0-48.4,4.84-71.7,11.31l39.43,35.54C227.59,176.75,240.14,175.13,250.9,175.13ZM71.63,131.51l41.23,37.16,7.17,6.46c-30.48,21-53.78,48.48-66.33,80.79C84.17,327,161.26,377.11,250.9,377.11c26.89,0,53.78-4.85,78.88-12.93l7.17,6.46,52,46.86,23.31-21L94.93,110.5Zm98.59,88.86,26.9,24.24v11.31c0,27.47,23.3,48.47,53.78,48.47a38.73,38.73,0,0,0,12.55-1.61L290.34,327a83.31,83.31,0,0,1-39.44,9.69c-50.2,0-89.64-35.55-89.64-80.79C161.26,243,164.85,231.68,170.22,220.37Zm77.09-12.92,55.58,50.09v-3.23c0-27.47-23.31-48.48-53.79-48.48C249.1,207.45,249.1,207.45,247.31,207.45Z"/></g></g></svg>