<svg xmlns="http://www.w3.org/2000/svg" viewBox="0 0 500 500"><defs><style>.cls-1{fill:#bcbec0;}.cls-2{fill:#fff;}</style></defs><title>saveas</title><g id="Layer_2" data-name="Layer 2"><g id="Layer_1-2" data-name="Layer 1"><circle class="cls-1" cx="250" cy="250" r="250"/><path class="cls-2" d="M326.63,229.9a9.66,9.66,0,0,0-8.82-5.67H279.06V98.29a9.69,9.69,0,0,0-9.68-9.69H230.63a9.69,9.69,0,0,0-9.69,9.69V224.23H182.19a9.68,9.68,0,0,0-7.29,16.06l67.82,77.5a9.67,9.67,0,0,0,14.57,0l67.81-77.5A9.66,9.66,0,0,0,326.63,229.9Z"/><path class="cls-2" d="M356.56,301.72v58.13H143.44V301.72H104.69v77.5a19.37,19.37,0,0,0,19.37,19.38H375.94a19.36,19.36,0,0,0,19.37-19.38v-77.5Z"/></g></g></svg>