<svg width="9" height="9" viewBox="0 0 9 9" fill="none" xmlns="http://www.w3.org/2000/svg">
<path d="M4.5 9C6.98528 9 9 6.98528 9 4.5C9 2.01472 6.98528 0 4.5 0C2.01472 0 0 2.01472 0 4.5C0 6.98528 2.01472 9 4.5 9Z" fill="#74CDEA"/>
<path d="M8.96891 5.01623L6.46635 2.51367L2.64023 6.48056L5.11748 8.95781C7.14206 8.67938 8.73646 7.05502 8.96891 5.01623Z" fill="#74CDEA"/>
<path d="M6.22885 6.53114C6.13885 6.53114 6.04899 6.49683 5.98023 6.4282L2.57317 3.021C2.43578 2.88361 2.43578 2.66114 2.57317 2.52389C2.71056 2.38664 2.93303 2.3865 3.07028 2.52389L6.47748 5.93109C6.61487 6.06848 6.61487 6.29095 6.47748 6.4282C6.40871 6.49683 6.31885 6.53114 6.22885 6.53114Z" fill="white"/>
<path d="M2.82081 6.53022C2.73081 6.53022 2.64096 6.4959 2.57219 6.42728C2.4348 6.28989 2.4348 6.06742 2.57219 5.93017L5.97939 2.52296C6.11678 2.38557 6.33925 2.38557 6.4765 2.52296C6.61375 2.66036 6.61389 2.88282 6.4765 3.02007L3.06944 6.42728C3.00081 6.4959 2.91081 6.53022 2.82081 6.53022Z" fill="white"/>
</svg>
