<svg width="21" height="21" viewBox="0 0 21 21" fill="none" xmlns="http://www.w3.org/2000/svg">
<path d="M19.9189 8.16667H17.9542C17.6384 8.16667 17.3783 7.99283 17.2573 7.70117C17.1364 7.4095 17.1978 7.10228 17.4207 6.87906L18.8098 5.49033C19.0139 5.28617 19.1263 5.01433 19.1263 4.72578C19.1263 4.43683 19.0139 4.16539 18.8098 3.96083L17.0392 2.19022C16.6308 1.78189 15.9188 1.78111 15.5097 2.19022L14.1209 3.57894C13.8977 3.80178 13.5897 3.864 13.2988 3.74267C13.0072 3.62172 12.8333 3.36156 12.8333 3.04578V1.08111C12.8333 0.484944 12.3484 0 11.7522 0H9.24778C8.65161 0 8.16667 0.484944 8.16667 1.08111V3.04578C8.16667 3.36156 7.99283 3.62172 7.70117 3.74267C7.41028 3.86439 7.10228 3.80178 6.87906 3.57894L5.49033 2.19022C5.08122 1.78111 4.36917 1.78189 3.96083 2.19022L2.19022 3.96083C1.98606 4.165 1.87367 4.43683 1.87367 4.72578C1.87367 5.01433 1.98606 5.28578 2.19022 5.49033L3.57933 6.87906C3.80217 7.10228 3.86322 7.4095 3.74267 7.70117C3.62211 7.99283 3.36156 8.16667 3.04578 8.16667H1.08111C0.484944 8.16667 0 8.65161 0 9.24778V11.7518C0 12.3484 0.484944 12.8333 1.08111 12.8333H3.04578C3.36156 12.8333 3.62172 13.0072 3.74267 13.2988C3.86361 13.5905 3.80217 13.8977 3.57933 14.1209L2.19022 15.5097C1.98606 15.7138 1.87367 15.9857 1.87367 16.2742C1.87367 16.5632 1.98606 16.8346 2.19022 17.0392L3.96083 18.8098C4.36956 19.2185 5.08122 19.2193 5.49033 18.8098L6.87906 17.4207C7.10228 17.1978 7.40911 17.1364 7.70117 17.2573C7.99283 17.3783 8.16667 17.6384 8.16667 17.9542V19.9189C8.16667 20.5151 8.65161 21 9.24778 21H11.7518C12.348 21 12.8329 20.5151 12.8329 19.9189V17.9542C12.8329 17.6384 13.0068 17.3783 13.2984 17.2573C13.5905 17.136 13.8973 17.1978 14.1206 17.4207L15.5093 18.8098C15.9184 19.2189 16.6304 19.2181 17.0388 18.8098L18.8094 17.0392C19.0136 16.835 19.1259 16.5632 19.1259 16.2742C19.1259 15.9857 19.0136 15.7142 18.8094 15.5097L17.4203 14.1209C17.1974 13.8977 17.1364 13.5905 17.2569 13.2988C17.3775 13.0072 17.6384 12.8333 17.9542 12.8333H19.9189C20.5151 12.8333 21 12.3484 21 11.7522V9.24778C21 8.65161 20.5151 8.16667 19.9189 8.16667ZM20.2222 11.7522C20.2222 11.9194 20.0861 12.0556 19.9189 12.0556H17.9542C17.3227 12.0556 16.7802 12.418 16.5387 13.0013C16.2968 13.5847 16.4239 14.2248 16.8708 14.6712L18.2599 16.0599C18.3785 16.1786 18.3785 16.3711 18.2599 16.4893L16.4893 18.2599C16.3711 18.3781 16.1786 18.3789 16.0599 18.2599L14.6712 16.8708C14.2244 16.4239 13.5847 16.2976 13.0013 16.5387C12.418 16.7802 12.0556 17.3227 12.0556 17.9542V19.9189C12.0556 20.0861 11.9194 20.2222 11.7522 20.2222H9.24778C9.08056 20.2222 8.94444 20.0861 8.94444 19.9189V17.9542C8.94444 17.3227 8.582 16.7802 7.99867 16.5387C7.80306 16.4574 7.60161 16.4177 7.4025 16.4177C7.00817 16.4177 6.62589 16.5733 6.32878 16.8704L4.94006 18.2595C4.82106 18.3785 4.62856 18.3777 4.51072 18.2595L2.74011 16.4889C2.6215 16.3703 2.6215 16.1778 2.74011 16.0596L4.12922 14.6708C4.57567 14.2244 4.70322 13.5843 4.46133 13.0009C4.21983 12.418 3.67733 12.0556 3.04578 12.0556H1.08111C0.913889 12.0556 0.777778 11.9194 0.777778 11.7522V9.24778C0.777778 9.08056 0.913889 8.94444 1.08111 8.94444H3.04578C3.67733 8.94444 4.21983 8.582 4.46133 7.99867C4.70322 7.41533 4.57606 6.77522 4.12922 6.32878L2.74011 4.94006C2.6215 4.82144 2.6215 4.62894 2.74011 4.51072L4.51072 2.74011C4.62894 2.6215 4.82144 2.6215 4.94006 2.74011L6.32878 4.12883C6.77483 4.57489 7.41456 4.70283 7.99867 4.46094C8.582 4.21983 8.94444 3.67733 8.94444 3.04578V1.08111C8.94444 0.913889 9.08056 0.777778 9.24778 0.777778H11.7518C11.9194 0.777778 12.0556 0.913889 12.0556 1.08111V3.04578C12.0556 3.67733 12.418 4.21983 13.0013 4.46133C13.5854 4.70322 14.2248 4.57567 14.6712 4.12922L16.0599 2.7405C16.1789 2.62189 16.3714 2.62189 16.4893 2.7405L18.2599 4.51111C18.3785 4.62972 18.3785 4.82222 18.2599 4.94044L16.8708 6.32917C16.4243 6.77561 16.2968 7.41572 16.5387 7.99906C16.7802 8.58239 17.3227 8.94483 17.9542 8.94483H19.9189C20.0861 8.94444 20.2222 9.08056 20.2222 9.24778V11.7522Z" fill="#1CABE0"/>
<path d="M10.5 7C8.56994 7 7 8.56994 7 10.5C7 12.4301 8.56994 14 10.5 14C12.4301 14 14 12.4301 14 10.5C14 8.56994 12.4301 7 10.5 7ZM10.5 13.2222C8.99928 13.2222 7.77778 12.0007 7.77778 10.5C7.77778 8.99928 8.99928 7.77778 10.5 7.77778C12.0007 7.77778 13.2222 8.99928 13.2222 10.5C13.2222 12.0007 12.0007 13.2222 10.5 13.2222Z" fill="#1CABE0"/>
</svg>
