<svg width="7" height="11" viewBox="0 0 7 11" fill="none" xmlns="http://www.w3.org/2000/svg">
<rect width="10.7412" height="7" transform="translate(0 10.7422) rotate(-90)" fill="#74CDEA"/>
<path d="M2.56641 9.80818C2.56641 10.3233 2.985 10.7422 3.49973 10.7422C4.01446 10.7422 4.43306 10.3233 4.43306 9.80818C4.43306 9.29308 4.01446 8.87418 3.49973 8.87418C2.985 8.87418 2.56641 9.29308 2.56641 9.80818ZM3.96639 9.80818C3.96639 10.0657 3.7571 10.2752 3.49973 10.2752C3.24237 10.2752 3.03307 10.0657 3.03307 9.80818C3.03307 9.55063 3.24237 9.34118 3.49973 9.34118C3.7571 9.34118 3.96639 9.55063 3.96639 9.80818Z" fill="white"/>
<path d="M2.56641 7.0074C2.56641 7.52251 2.985 7.94141 3.49973 7.94141C4.01446 7.94141 4.43306 7.52251 4.43306 7.0074C4.43306 6.4923 4.01446 6.0734 3.49973 6.0734C2.985 6.0734 2.56641 6.4923 2.56641 7.0074ZM3.96639 7.0074C3.96639 7.26495 3.7571 7.4744 3.49973 7.4744C3.24237 7.4744 3.03307 7.26495 3.03307 7.0074C3.03307 6.74985 3.24237 6.5404 3.49973 6.5404C3.7571 6.5404 3.96639 6.74985 3.96639 7.0074Z" fill="white"/>
<path d="M3.49973 3.26871C2.985 3.26871 2.56641 3.68761 2.56641 4.20271C2.56641 4.71782 2.985 5.13672 3.49973 5.13672C4.01446 5.13672 4.43306 4.71782 4.43306 4.20271C4.43306 3.68761 4.01446 3.26871 3.49973 3.26871ZM3.96639 4.20271C3.96639 4.46027 3.7571 4.66972 3.49973 4.66972C3.24237 4.66972 3.03307 4.46027 3.03307 4.20271C3.03307 3.94516 3.24237 3.73571 3.49973 3.73571C3.7571 3.73571 3.96639 3.94516 3.96639 4.20271Z" fill="white"/>
<path d="M3.33506 0.0706168L0.0684245 3.33964C-0.0228081 3.43093 -0.0228081 3.57851 0.0684245 3.66981C0.159657 3.76111 0.307123 3.76111 0.398355 3.66981L3.50003 0.565874L6.6017 3.66981C6.69293 3.76111 6.8404 3.76111 6.93163 3.66981C6.97713 3.62427 7 3.5645 7 3.50472C7 3.44495 6.97713 3.38517 6.93163 3.33964L3.66499 0.0706168C3.57376 -0.0206823 3.4263 -0.0206823 3.33506 0.0706168Z" fill="white"/>
</svg>
