<svg width="7" height="11" viewBox="0 0 7 11" fill="none" xmlns="http://www.w3.org/2000/svg">
<rect width="10.7411" height="7" transform="translate(0 10.7422) rotate(-90)" fill="#74CDEA"/>
<path d="M2.56641 6.53865C2.56641 7.05376 2.985 7.47266 3.49973 7.47266C4.01446 7.47266 4.43306 7.05376 4.43306 6.53865C4.43306 6.02355 4.01446 5.60465 3.49973 5.60465C2.985 5.60465 2.56641 6.02355 2.56641 6.53865ZM3.96639 6.53865C3.96639 6.7962 3.7571 7.00565 3.49973 7.00565C3.24237 7.00565 3.03307 6.7962 3.03307 6.53865C3.03307 6.2811 3.24237 6.07165 3.49973 6.07165C3.7571 6.07165 3.96639 6.2811 3.96639 6.53865Z" fill="white"/>
<path d="M2.56641 3.73787C2.56641 4.25297 2.985 4.67188 3.49973 4.67188C4.01446 4.67188 4.43306 4.25297 4.43306 3.73787C4.43306 3.22277 4.01446 2.80387 3.49973 2.80387C2.985 2.80387 2.56641 3.22277 2.56641 3.73787ZM3.96639 3.73787C3.96639 3.99542 3.7571 4.20487 3.49973 4.20487C3.24237 4.20487 3.03307 3.99542 3.03307 3.73787C3.03307 3.48032 3.24237 3.27087 3.49973 3.27087C3.7571 3.27087 3.96639 3.48032 3.96639 3.73787Z" fill="white"/>
<path d="M3.49973 -0.000822414C2.985 -0.00082242 2.56641 0.418079 2.56641 0.933183C2.56641 1.44829 2.985 1.86719 3.49973 1.86719C4.01446 1.86719 4.43306 1.44829 4.43306 0.933183C4.43306 0.418079 4.01446 -0.000822408 3.49973 -0.000822414ZM3.96639 0.933183C3.96639 1.19073 3.7571 1.40019 3.49973 1.40019C3.24237 1.40019 3.03307 1.19073 3.03307 0.933183C3.03307 0.675631 3.24237 0.46618 3.49973 0.46618C3.7571 0.46618 3.96639 0.675631 3.96639 0.933183Z" fill="white"/>
<path d="M3.50003 10.1785L0.398355 7.07452C0.307123 6.98322 0.159657 6.98322 0.0684245 7.07452C-0.022808 7.16582 -0.022808 7.3134 0.0684245 7.40469L3.33506 10.6737C3.4263 10.765 3.57376 10.765 3.66499 10.6737L6.93163 7.40469C6.97713 7.35916 7 7.29938 7 7.23961C7 7.17983 6.97713 7.12006 6.93163 7.07452C6.8404 6.98322 6.69293 6.98322 6.6017 7.07452L3.50003 10.1785Z" fill="white"/>
</svg>
