<svg width="26" height="22" viewBox="0 0 26 22" fill="none" xmlns="http://www.w3.org/2000/svg">
<rect width="26" height="22" fill="black" fill-opacity="0"/>
<path d="M24.9818 22C24.8121 22 24.6084 21.9333 24.4387 21.8667L17.9896 17.9333H1.01825C0.441265 17.9333 0 17.5 0 16.9333V0.999971C0 0.433344 0.441265 3.4074e-08 1.01825 3.4074e-08H24.9818C25.5588 3.4074e-08 26 0.433344 26 0.999971V21C26 21.3666 25.7963 21.6999 25.4908 21.8667C25.3212 21.9667 25.1515 22 24.9818 22ZM2.03656 15.9333H18.2951C18.4988 15.9333 18.6685 16 18.8382 16.0667L23.9635 19.2V2.00001H2.03656V15.9333Z" fill="#7F9C9A"/>
<rect width="13.9164" height="6.99989" fill="black" fill-opacity="0" transform="translate(5.87109 5.33398)"/>
<path d="M18.7693 7.33393H6.88934C6.31229 7.33393 5.87109 6.90058 5.87109 6.33396C5.87109 5.76733 6.31236 5.33398 6.88934 5.33398H18.7693C19.3463 5.33398 19.7875 5.76733 19.7875 6.33396C19.7875 6.90058 19.3463 7.33393 18.7693 7.33393Z" fill="#1CABE0"/>
<path d="M18.7693 12.3339H6.88934C6.31229 12.3339 5.87109 11.9006 5.87109 11.334C5.87109 10.7673 6.31236 10.334 6.88934 10.334H18.7693C19.3463 10.334 19.7875 10.7673 19.7875 11.334C19.7876 11.9006 19.3463 12.3339 18.7693 12.3339Z" fill="#1CABE0"/>
</svg>
