<svg width="25" height="21" viewBox="0 0 25 21" fill="none" xmlns="http://www.w3.org/2000/svg">
<path d="M24.0209 21C23.8577 21 23.6619 20.9364 23.4987 20.8727L17.2977 17.1182H0.979085C0.424293 17.1182 0 16.7045 0 16.1636V0.954518C0 0.413647 0.424293 3.25252e-08 0.979085 3.25252e-08H24.0209C24.5758 3.25252e-08 25 0.413647 25 0.954518V20.0454C25 20.3954 24.8042 20.7136 24.5104 20.8727C24.3473 20.9682 24.1841 21 24.0209 21ZM1.95823 15.2091H17.5914C17.7873 15.2091 17.9504 15.2727 18.1136 15.3364L23.0418 18.3273V1.9091H1.95823V15.2091Z" fill="#E0E0E0"/>
<path d="M18.0427 7.0001H6.61971C6.06486 7.0001 5.64063 6.58645 5.64063 6.04558C5.64063 5.50471 6.06492 5.09106 6.61971 5.09106H18.0427C18.5976 5.09106 19.0218 5.50471 19.0218 6.04558C19.0218 6.58645 18.5976 7.0001 18.0427 7.0001Z" fill="#BDBDBD"/>
<path d="M18.0427 11.7728H6.61971C6.06486 11.7728 5.64063 11.3592 5.64063 10.8183C5.64063 10.2774 6.06492 9.86377 6.61971 9.86377H18.0427C18.5976 9.86377 19.0218 10.2774 19.0218 10.8183C19.0219 11.3592 18.5976 11.7728 18.0427 11.7728Z" fill="#BDBDBD"/>
</svg>

