<svg width="20" height="20" viewBox="0 0 20 20" fill="none" xmlns="http://www.w3.org/2000/svg">
<circle cx="10" cy="10" r="10" fill="#BDBDBD"/>
<path d="M13.6117 11.373V13.6574H6.38832V11.373H5V14.3289C5 14.6995 5.31036 15 5.6952 15H14.3048C14.6893 15 15 14.6998 15 14.3289V11.373H13.6117Z" fill="white"/>
<path d="M9.87262 11.1465L7.88497 8.82314C7.88497 8.82314 7.58255 8.54693 7.91049 8.54693C8.23843 8.54693 9.03053 8.54693 9.03053 8.54693C9.03053 8.54693 9.03053 8.36113 9.03053 8.07459C9.03053 7.25766 9.03053 5.7709 9.03053 5.16479C9.03053 5.16479 8.98604 5 9.2426 5C9.50123 5 10.634 5 10.8192 5C11.004 5 10.9999 5.13877 10.9999 5.13877C10.9999 5.72653 10.9999 7.26466 10.9999 8.05491C10.9999 8.31109 10.9999 8.47722 10.9999 8.47722C10.9999 8.47722 11.6351 8.47722 12.0337 8.47722C12.4317 8.47722 12.132 8.76643 12.132 8.76643C12.132 8.76643 10.4409 10.938 10.205 11.1659C10.0354 11.331 9.87262 11.1465 9.87262 11.1465Z" fill="white"/>
</svg>
