<svg width="20" height="20" viewBox="0 0 20 20" fill="none" xmlns="http://www.w3.org/2000/svg">
<circle cx="10" cy="10" r="10" fill="#BDBDBD"/>
<path d="M16 5V15H4V5H16ZM11.5 11.4286V9.28571H8.5V11.4286H11.5ZM8.5 12.1429V14.2857H11.5V12.1429H8.5ZM8.5 6.42858V8.57143H11.5V6.42858H8.5ZM12.25 6.42858V8.57143H15.25V6.42858H12.25ZM15.25 9.28571H12.25V11.4286H15.25V9.28571ZM7.74999 9.28571H4.74999V11.4286H7.74999V9.28571ZM7.74999 8.57143V6.42858H4.74999V8.57143H7.74999ZM15.25 12.1429H12.25V14.2857H15.25V12.1429ZM7.74999 14.2857V12.1429H4.74999V14.2857H7.74999Z" fill="white"/>
</svg>
