<?xml version="1.0" encoding="utf-8"?>
<!-- Generator: Adobe Illustrator 22.1.0, SVG Export Plug-In . SVG Version: 6.00 Build 0)  -->
<svg width="17" height="20" viewBox="0 0 17 20" fill="none" xmlns="http://www.w3.org/2000/svg">
<path d="M14.8139 0H4.15435C3.37554 0 2.74185 0.633799 2.74185 1.41275V3.10845H1.41249C0.633685 3.10845 7.38959e-09 3.74217 7.38959e-09 4.5212V18.5873C7.38959e-09 19.3662 0.633685 20 1.41249 20H12.072C12.8508 20 13.4845 19.3662 13.4845 18.5873V16.8916H14.8139C15.5927 16.8916 16.2264 16.2578 16.2264 15.4789V1.41275C16.2264 0.633799 15.5928 0 14.8139 0ZM12.2738 18.5873C12.2738 18.6966 12.1814 18.7891 12.072 18.7891H1.41249C1.30313 18.7891 1.21071 18.6966 1.21071 18.5873V4.5212C1.21071 4.41173 1.30313 4.31938 1.41249 4.31938H12.072C12.1814 4.31938 12.2738 4.41173 12.2738 4.5212V18.5873ZM15.0157 15.4789C15.0157 15.5883 14.9233 15.6807 14.8139 15.6807H13.4845V4.5212C13.4845 3.74217 12.8508 3.10845 12.072 3.10845H3.95256V1.41275C3.95256 1.30336 4.0449 1.21093 4.15435 1.21093H14.8139C14.9233 1.21093 15.0157 1.30336 15.0157 1.41275V15.4789Z" fill="#BDBDBD"/>
<path d="M10.1863 6.22656H3.29871C2.96432 6.22656 2.69336 6.49757 2.69336 6.83203C2.69336 7.16648 2.96432 7.43749 3.29871 7.43749H10.1863C10.5207 7.43749 10.7916 7.16648 10.7916 6.83203C10.7916 6.49765 10.5207 6.22656 10.1863 6.22656Z" fill="#BDBDBD"/>
<path d="M10.1863 8.95313H3.29871C2.96432 8.95313 2.69336 9.22413 2.69336 9.55859C2.69336 9.89305 2.96432 10.1641 3.29871 10.1641H10.1863C10.5207 10.1641 10.7916 9.89305 10.7916 9.55859C10.7916 9.22413 10.5207 8.95313 10.1863 8.95313Z" fill="#BDBDBD"/>
<path d="M10.1863 11.6797H3.29871C2.96432 11.6797 2.69336 11.9507 2.69336 12.2852C2.69336 12.6196 2.96432 12.8906 3.29871 12.8906H10.1863C10.5207 12.8906 10.7916 12.6196 10.7916 12.2852C10.7916 11.9507 10.5207 11.6797 10.1863 11.6797Z" fill="#BDBDBD"/>
<path d="M10.1863 14.4063H3.29871C2.96432 14.4063 2.69336 14.6773 2.69336 15.0117C2.69336 15.3462 2.96432 15.6172 3.29871 15.6172H10.1863C10.5207 15.6172 10.7916 15.3462 10.7916 15.0117C10.7916 14.6773 10.5207 14.4063 10.1863 14.4063Z" fill="#BDBDBD"/>
</svg>


