<svg width="38" height="38" viewBox="0 0 38 38" fill="none" xmlns="http://www.w3.org/2000/svg">
<g filter="url(#filter0_d)">
<circle cx="19" cy="15" r="15" fill="#74CDEA"/>
</g>
<path d="M25.8139 5H15.1543C14.3755 5 13.7419 5.6338 13.7419 6.41275V8.10845H12.4125C11.6337 8.10845 11 8.74217 11 9.5212V23.5873C11 24.3662 11.6337 25 12.4125 25H23.072C23.8508 25 24.4845 24.3662 24.4845 23.5873V21.8916H25.8139C26.5927 21.8916 27.2264 21.2578 27.2264 20.4789V6.41275C27.2264 5.6338 26.5928 5 25.8139 5ZM23.2738 23.5873C23.2738 23.6966 23.1814 23.7891 23.072 23.7891H12.4125C12.3031 23.7891 12.2107 23.6966 12.2107 23.5873V9.5212C12.2107 9.41173 12.3031 9.31938 12.4125 9.31938H23.072C23.1814 9.31938 23.2738 9.41173 23.2738 9.5212V23.5873V23.5873ZM26.0157 20.4789C26.0157 20.5883 25.9233 20.6807 25.8139 20.6807H24.4845V9.5212C24.4845 8.74217 23.8508 8.10845 23.072 8.10845H14.9526V6.41275C14.9526 6.30336 15.0449 6.21093 15.1543 6.21093H25.8139C25.9233 6.21093 26.0157 6.30336 26.0157 6.41275V20.4789Z" fill="white"/>
<path d="M21.186 11.2258H14.2985C13.9641 11.2258 13.6931 11.4968 13.6931 11.8313C13.6931 12.1658 13.9641 12.4368 14.2985 12.4368H21.186C21.5204 12.4368 21.7914 12.1658 21.7914 11.8313C21.7914 11.4969 21.5204 11.2258 21.186 11.2258Z" fill="white"/>
<path d="M21.186 13.9526H14.2985C13.9641 13.9526 13.6931 14.2236 13.6931 14.5581C13.6931 14.8926 13.9641 15.1636 14.2985 15.1636H21.186C21.5204 15.1636 21.7914 14.8926 21.7914 14.5581C21.7914 14.2236 21.5204 13.9526 21.186 13.9526Z" fill="white"/>
<path d="M21.186 16.6794H14.2985C13.9641 16.6794 13.6931 16.9504 13.6931 17.2849C13.6931 17.6194 13.9641 17.8904 14.2985 17.8904H21.186C21.5204 17.8904 21.7914 17.6194 21.7914 17.2849C21.7914 16.9504 21.5204 16.6794 21.186 16.6794Z" fill="white"/>
<path d="M21.186 19.4063H14.2985C13.9641 19.4063 13.6931 19.6773 13.6931 20.0117C13.6931 20.3462 13.9641 20.6172 14.2985 20.6172H21.186C21.5204 20.6172 21.7914 20.3462 21.7914 20.0117C21.7914 19.6773 21.5204 19.4063 21.186 19.4063Z" fill="white"/>
<defs>
<filter id="filter0_d" x="0" y="0" width="38" height="38" filterUnits="userSpaceOnUse" color-interpolation-filters="sRGB">
<feFlood flood-opacity="0" result="BackgroundImageFix"/>
<feColorMatrix in="SourceAlpha" type="matrix" values="0 0 0 0 0 0 0 0 0 0 0 0 0 0 0 0 0 0 127 0"/>
<feOffset dy="4"/>
<feGaussianBlur stdDeviation="2"/>
<feColorMatrix type="matrix" values="0 0 0 0 0 0 0 0 0 0 0 0 0 0 0 0 0 0 0.25 0"/>
<feBlend mode="normal" in2="BackgroundImageFix" result="effect1_dropShadow"/>
<feBlend mode="normal" in="SourceGraphic" in2="effect1_dropShadow" result="shape"/>
</filter>
</defs>
</svg>
