<svg width="23" height="20" viewBox="0 0 23 20" fill="none" xmlns="http://www.w3.org/2000/svg">
<g clip-path="url(#clip0)">
<path d="M1.48015 0.154785H21.5214C21.9066 0.154785 22.2476 0.245675 22.4869 0.384469C22.7299 0.52536 22.8425 0.697603 22.8425 0.85693V18.9686C22.8425 19.129 22.7297 19.3017 22.4869 19.4427C22.2476 19.5817 21.9066 19.6726 21.5214 19.6726H1.48015C1.09421 19.6726 0.752863 19.5815 0.513329 19.4423C0.270239 19.3012 0.157532 19.1285 0.157532 18.9686V0.857847C0.157532 0.697974 0.270171 0.525527 0.513241 0.384584C0.752772 0.245696 1.09415 0.154785 1.48015 0.154785Z" stroke="white"/>
<path d="M6.17754 9.104L2.88507 12.4728V18.1575C2.88507 18.3173 3.01708 18.4474 3.17998 18.4474H7.17757C7.34046 18.4474 7.47248 18.3176 7.47248 18.1575V9.43736L6.55058 9.104H6.17754Z" fill="white"/>
<path d="M14.3199 11.7456H10.3226C10.1594 11.7456 10.0274 11.8754 10.0274 12.0356V18.1567C10.0274 18.3169 10.1594 18.447 10.3226 18.447H14.3199C14.4828 18.447 14.6148 18.3172 14.6148 18.1567V12.0353C14.6148 11.8754 14.4828 11.7456 14.3199 11.7456Z" fill="white"/>
<path d="M20.1304 5.50977L19.4041 4.91309L16.7768 7.73139V18.1567C16.7768 18.3165 16.9088 18.4467 17.072 18.4467H21.0696C21.2325 18.4467 21.3645 18.3168 21.3645 18.1567V5.60581C21.3481 5.61511 21.3333 5.62657 21.3166 5.63493C21.1638 5.71362 20.9921 5.75514 20.8194 5.75514C20.567 5.75545 20.3232 5.66839 20.1304 5.50977Z" fill="white"/>
<path d="M1.90838 12.038C2.06308 12.038 2.21778 11.9782 2.33372 11.8598L6.09658 8.00958L12.6806 10.3917C12.9055 10.4725 13.157 10.4127 13.3192 10.2393L19.3821 3.73611L20.8005 4.90222C20.8701 4.95923 20.9669 4.96914 21.0469 4.92824C21.1266 4.88704 21.1739 4.80308 21.1657 4.71417L20.8582 1.33358C20.8475 1.21276 20.7388 1.12384 20.6162 1.13468L17.1779 1.43644C17.0881 1.44418 17.0118 1.5049 16.9847 1.58948C16.9762 1.61736 16.9734 1.64617 16.9759 1.67437C16.9813 1.73137 17.0087 1.78528 17.055 1.82307L18.4766 2.99135L12.7174 9.16887L6.14321 6.79018C5.92298 6.71118 5.6766 6.76694 5.51402 6.93238L1.48335 11.0562C1.25776 11.2873 1.26501 11.6541 1.50005 11.876C1.6141 11.9841 1.76124 12.038 1.90838 12.038Z" fill="white"/>
</g>
<defs>
<clipPath id="clip0">
<rect width="23" height="19.8276" fill="white"/>
</clipPath>
</defs>
</svg>
