<svg width="12" height="12" viewBox="0 0 12 12" fill="none" xmlns="http://www.w3.org/2000/svg">
<path d="M11.014 0.8H9.61225V0.2C9.61225 0.0894 9.52273 0 9.41199 0H8.0102C7.89946 0 7.80995 0.0894 7.80995 0.2V0.8H3.40434V0.2C3.40434 0.0894 3.31482 0 3.20408 0H1.8023C1.69155 0 1.60204 0.0894 1.60204 0.2V0.8H0.200255C0.089514 0.8 0 0.8894 0 1V3.2V11.8C0 11.9106 0.089514 12 0.200255 12H11.014C11.1248 12 11.2143 11.9106 11.2143 11.8V3.2V1C11.2143 0.8894 11.1248 0.8 11.014 0.8ZM8.21046 0.4H9.21173V1V1.6H8.21046V1V0.4ZM2.00255 0.4H3.00383V1V1.6H2.00255V1V0.4ZM0.40051 1.2H1.60204V1.8C1.60204 1.9106 1.69155 2 1.8023 2H3.20408C3.31482 2 3.40434 1.9106 3.40434 1.8V1.2H7.80995V1.8C7.80995 1.9106 7.89946 2 8.0102 2H9.41199C9.52273 2 9.61225 1.9106 9.61225 1.8V1.2H10.8138V3H0.40051V1.2ZM0.40051 11.6V3.4H10.8138V11.6H0.40051Z" fill="#828282"/>
<path d="M7.20907 4.59996H5.80729H5.40678H4.00499H3.60448H1.80219V6.39996V6.79996V8.19996V8.59996V10.4H3.60448H4.00499H5.40678H5.80729H7.20907H7.60958H9.41188V8.59996V8.19996V6.79996V6.39996V4.59996H7.60958H7.20907ZM5.80729 4.99996H7.20907V6.39996H5.80729V4.99996ZM7.20907 8.19996H5.80729V6.79996H7.20907V8.19996ZM4.00499 6.79996H5.40678V8.19996H4.00499V6.79996ZM4.00499 4.99996H5.40678V6.39996H4.00499V4.99996ZM2.2027 4.99996H3.60448V6.39996H2.2027V4.99996ZM2.2027 6.79996H3.60448V8.19996H2.2027V6.79996ZM3.60448 9.99996H2.2027V8.59996H3.60448V9.99996ZM5.40678 9.99996H4.00499V8.59996H5.40678V9.99996ZM7.20907 9.99996H5.80729V8.59996H7.20907V9.99996ZM9.01137 9.99996H7.60958V8.59996H9.01137V9.99996ZM9.01137 8.19996H7.60958V6.79996H9.01137V8.19996ZM9.01137 4.99996V6.39996H7.60958V4.99996H9.01137Z" fill="#828282"/>
</svg>
