<svg width="11" height="14" viewBox="0 0 11 14" fill="none" xmlns="http://www.w3.org/2000/svg">
<path d="M7.37138 4.90698C7.19619 4.90698 7.0542 5.04897 7.0542 5.22417V11.2189C7.0542 11.394 7.19619 11.5361 7.37138 11.5361C7.54658 11.5361 7.68857 11.394 7.68857 11.2189V5.22417C7.68857 5.04897 7.54658 4.90698 7.37138 4.90698Z" fill="#EB5757"/>
<path d="M3.62871 4.90698C3.45351 4.90698 3.31152 5.04897 3.31152 5.22417V11.2189C3.31152 11.394 3.45351 11.5361 3.62871 11.5361C3.8039 11.5361 3.94589 11.394 3.94589 11.2189V5.22417C3.94589 5.04897 3.8039 4.90698 3.62871 4.90698Z" fill="#EB5757"/>
<path d="M0.900851 4.0321V11.8468C0.900851 12.3087 1.07022 12.7425 1.36609 13.0537C1.6606 13.3658 2.07046 13.543 2.4994 13.5437H8.5006C8.92966 13.543 9.33952 13.3658 9.63391 13.0537C9.92978 12.7425 10.0991 12.3087 10.0991 11.8468V4.0321C10.6873 3.87599 11.0684 3.30779 10.9897 2.70427C10.9109 2.10088 10.3969 1.64952 9.78829 1.64939H8.16434V1.25291C8.16619 0.9195 8.03436 0.599344 7.79834 0.363811C7.56231 0.128402 7.24166 -0.00268411 6.90824 4.16752e-05H4.09176C3.75834 -0.00268411 3.43769 0.128402 3.20166 0.363811C2.96564 0.599344 2.83381 0.9195 2.83567 1.25291V1.64939H1.21171C0.60312 1.64952 0.0890611 2.10088 0.010261 2.70427C-0.0684151 3.30779 0.3127 3.87599 0.900851 4.0321ZM8.5006 12.9094H2.4994C1.95709 12.9094 1.53522 12.4435 1.53522 11.8468V4.05998H9.46478V11.8468C9.46478 12.4435 9.04291 12.9094 8.5006 12.9094ZM3.47003 1.25291C3.46792 1.08776 3.53285 0.928792 3.65006 0.812203C3.76714 0.695614 3.92648 0.631557 4.09176 0.634407H6.90824C7.07352 0.631557 7.23286 0.695614 7.34994 0.812203C7.46715 0.928668 7.53208 1.08776 7.52997 1.25291V1.64939H3.47003V1.25291ZM1.21171 2.28376H9.78829C10.1036 2.28376 10.3592 2.53936 10.3592 2.85469C10.3592 3.17001 10.1036 3.42562 9.78829 3.42562H1.21171C0.89639 3.42562 0.640786 3.17001 0.640786 2.85469C0.640786 2.53936 0.89639 2.28376 1.21171 2.28376Z" fill="#EB5757"/>
<path d="M5.4998 4.90698C5.32461 4.90698 5.18262 5.04897 5.18262 5.22417V11.2189C5.18262 11.394 5.32461 11.5361 5.4998 11.5361C5.675 11.5361 5.81698 11.394 5.81698 11.2189V5.22417C5.81698 5.04897 5.675 4.90698 5.4998 4.90698Z" fill="#EB5757"/>
</svg>
