<svg width="20" height="20" viewBox="0 0 20 20" fill="none" xmlns="http://www.w3.org/2000/svg">
<path d="M10 0C4.47754 0 0 4.47754 0 10C0 15.5225 4.47754 20 10 20C15.5237 20 20 15.5225 20 10C20 4.47754 15.5237 0 10 0ZM12.727 13.8611C12.2351 14.4129 11.5247 14.7376 10.5957 14.8352V16.25H9.4116V14.8425C7.86254 14.6839 6.90426 13.783 6.53441 12.1423L8.36547 11.665C8.53516 12.6965 9.09668 13.2117 10.05 13.2117C10.4956 13.2117 10.8252 13.1018 11.0352 12.8809C11.2451 12.6599 11.3501 12.3938 11.3501 12.0813C11.3501 11.7578 11.2451 11.5124 11.0352 11.3464C10.8252 11.1792 10.3577 10.968 9.63379 10.7116C8.98316 10.4859 8.4741 10.2636 8.10789 10.0415C7.74168 9.8218 7.44383 9.51297 7.21555 9.11621C6.98727 8.71824 6.87254 8.25437 6.87254 7.72703C6.87254 7.03488 7.07762 6.41109 7.48535 5.85691C7.89309 5.30395 8.53516 4.96578 9.41164 4.8425V3.75H10.5957V4.84254C11.919 5.00125 12.7759 5.74953 13.1653 7.08863L11.5345 7.75758C11.2159 6.83961 10.7251 6.38062 10.0586 6.38062C9.72414 6.38062 9.45559 6.48316 9.25418 6.68824C9.05152 6.89332 8.95023 7.14234 8.95023 7.4341C8.95023 7.73195 9.04789 7.96023 9.2432 8.12016C9.4373 8.27887 9.85602 8.47539 10.4957 8.71098C11.1988 8.96734 11.7505 9.21023 12.1497 9.43852C12.5501 9.6668 12.8687 9.98297 13.108 10.3846C13.346 10.7874 13.4656 11.2574 13.4656 11.7957C13.4656 12.6221 13.219 13.3105 12.727 13.8611Z" fill="#BDBDBD"/>
</svg>
