<svg width="13" height="13" viewBox="0 0 13 13" fill="none" xmlns="http://www.w3.org/2000/svg">
<path d="M0.84205 0.841458C1.96109 -0.280486 3.78092 -0.280486 4.89996 0.841458L12.3399 8.27953C12.3981 8.3377 12.4341 8.4125 12.4452 8.49283L12.9964 12.5762C13.013 12.6925 12.9715 12.8089 12.8911 12.8892C12.8219 12.9584 12.7249 13 12.628 13C12.6114 13 12.5947 13 12.5781 12.9972L10.1185 12.6648C9.91348 12.6371 9.76944 12.4487 9.79714 12.2437C9.82484 12.0387 10.0132 11.8947 10.2182 11.9224L12.1903 12.1883L11.8053 9.34052L8.80829 12.3379C8.73904 12.4072 8.64209 12.4487 8.54515 12.4487C8.4482 12.4487 8.35125 12.4099 8.28201 12.3379L0.84205 4.89985C0.29915 4.35688 0 3.63662 0 2.86927C0 2.10191 0.29915 1.38165 0.84205 0.841458ZM4.75592 1.75563L3.5067 3.00501L10.2957 9.79484L11.545 8.54547L4.75592 1.75563ZM8.54238 11.5456L9.7639 10.324L2.97487 3.53412L1.75335 4.75579L8.54238 11.5456ZM1.23261 4.22114L4.22133 1.23206C3.84185 0.919024 3.3682 0.74727 2.86962 0.74727C2.30179 0.74727 1.76997 0.968888 1.36833 1.3678C0.966696 1.76671 0.747873 2.30137 0.747873 2.86927C0.747873 3.37068 0.919607 3.84162 1.23261 4.22114Z" fill="white"/>
</svg>
