<svg width="32" height="16" viewBox="0 0 32 16" fill="none" xmlns="http://www.w3.org/2000/svg">
<path d="M2.13332 0C0.956792 0 0 0.956792 0 2.13332C0 3.30984 0.956792 4.26663 2.13332 4.26663C3.30984 4.26663 4.26663 3.30984 4.26663 2.13332C4.26663 0.956792 3.30984 0 2.13332 0ZM2.13332 3.19997C1.54505 3.19997 1.06666 2.72158 1.06666 2.13332C1.06666 1.54505 1.54505 1.06666 2.13332 1.06666C2.72158 1.06666 3.19997 1.54505 3.19997 2.13332C3.19997 2.72158 2.72158 3.19997 2.13332 3.19997Z" transform="translate(7.46484 5.86719)" fill="white"/>
<path d="M2.13332 0C0.956792 0 0 0.956792 0 2.13332C0 3.30984 0.956792 4.26663 2.13332 4.26663C3.30984 4.26663 4.26663 3.30984 4.26663 2.13332C4.26663 0.956792 3.30984 0 2.13332 0ZM2.13332 3.19997C1.54505 3.19997 1.06666 2.72158 1.06666 2.13332C1.06666 1.54505 1.54505 1.06666 2.13332 1.06666C2.72158 1.06666 3.19997 1.54505 3.19997 2.13332C3.19997 2.72158 2.72158 3.19997 2.13332 3.19997Z" transform="translate(13.8633 5.86719)" fill="white"/>
<path d="M4.26663 2.13332C4.26663 0.956792 3.30984 0 2.13332 0C0.956792 0 0 0.956792 0 2.13332C0 3.30984 0.956792 4.26663 2.13332 4.26663C3.30984 4.26663 4.26663 3.30984 4.26663 2.13332ZM2.13332 3.19997C1.54505 3.19997 1.06666 2.72158 1.06666 2.13332C1.06666 1.54505 1.54505 1.06666 2.13332 1.06666C2.72158 1.06666 3.19997 1.54505 3.19997 2.13332C3.19997 2.72158 2.72158 3.19997 2.13332 3.19997Z" transform="translate(20.2656 5.86719)" fill="white"/>
<path d="M1.28759 8.00007L8.37713 0.910526C8.58566 0.701995 8.58566 0.36493 8.37713 0.156399C8.1686 -0.0521328 7.83154 -0.0521328 7.62301 0.156399L0.156399 7.623C-0.0521329 7.83153 -0.0521329 8.1686 0.156399 8.37713L7.62301 15.8437C7.72701 15.9477 7.86354 16 8.00007 16C8.1366 16 8.27313 15.9477 8.37713 15.8437C8.58566 15.6352 8.58566 15.2981 8.37713 15.0896L1.28759 8.00007Z" fill="white"/>
<path d="M8.37713 7.623L0.910526 0.156399C0.701995 -0.0521328 0.36493 -0.0521328 0.156398 0.156399C-0.0521333 0.36493 -0.0521333 0.701995 0.156398 0.910526L7.24594 8.00007L0.156398 15.0896C-0.0521333 15.2981 -0.0521333 15.6352 0.156398 15.8437C0.260398 15.9477 0.39693 16 0.533462 16C0.669995 16 0.806527 15.9477 0.910526 15.8437L8.37713 8.37713C8.58566 8.1686 8.58566 7.83153 8.37713 7.623Z" transform="translate(23.4648)" fill="white"/>
</svg>
