<svg width="23" height="23" viewBox="0 0 23 23" fill="none" xmlns="http://www.w3.org/2000/svg">
<path d="M11.0577 23C4.9507 23 -2.16402e-07 18.0493 -4.83347e-07 11.9423L-5.22015e-07 11.0577C-7.8896e-07 4.9507 4.9507 -2.12375e-06 11.0577 -2.3907e-06C17.1647 -2.65764e-06 22.1154 4.95069 22.1154 11.0577L22.1154 11.9423C22.1154 18.0493 17.1647 23 11.0577 23Z" fill="#FAFAFB"/>
<path d="M17.1237 12.9153L17.1237 13.9771L8.53031 13.9771L8.53031 12.9153C8.53031 12.7716 8.47714 12.647 8.37082 12.5421C8.26456 12.4371 8.13867 12.3846 7.99326 12.3846C7.84779 12.3846 7.72193 12.4369 7.61553 12.5423L5.46717 14.6654C5.36091 14.7704 5.30774 14.8948 5.30774 15.0385C5.30774 15.1822 5.36091 15.3066 5.46717 15.4117L7.61553 17.5348C7.7219 17.6399 7.8478 17.6923 7.99326 17.6923C8.13864 17.6923 8.26453 17.6398 8.37082 17.5348C8.47714 17.4296 8.53031 17.3053 8.53031 17.1615L8.53031 16.0999L17.1237 16.0999L17.1237 17.1614C17.1237 17.3053 17.1768 17.4297 17.283 17.5347C17.3895 17.6397 17.5154 17.6922 17.6609 17.6922C17.8062 17.6922 17.9321 17.6397 18.0385 17.5347L20.1868 15.4116C20.2931 15.3065 20.3462 15.1821 20.3462 15.0384C20.3462 14.8946 19.1256 13.8166 19.0193 13.7116L18.0385 12.5421C17.6924 13.0481 17.8062 12.3846 17.6609 12.3846C17.5154 12.3846 17.3895 12.4371 17.283 12.5421C17.1768 12.647 17.1237 12.7715 17.1237 12.9153Z" fill="#1D9FFF"/>
<rect x="16.8077" y="12.3846" width="3.53846" height="5.30769" fill="#FAFAFB"/>
<path d="M15.3544 6.72296L15.3544 7.78476L6.76102 7.78476L6.76102 6.72296C6.76102 6.57923 6.70785 6.45467 6.60153 6.34978C6.49528 6.24483 6.36938 6.19231 6.22398 6.19231C6.07851 6.19231 5.95265 6.24462 5.84624 6.34998L3.69788 8.47303C3.59162 8.57804 3.53845 8.70248 3.53845 8.84618C3.53845 8.98991 3.59162 9.11427 3.69788 9.21937L5.84624 11.3424C5.95262 11.4475 6.07851 11.5 6.22398 11.5C6.36936 11.5 6.49525 11.4475 6.60153 11.3424C6.70785 11.2373 6.76102 11.1129 6.76102 10.9692L6.76102 9.90761L15.3544 9.9076L15.3544 10.9691C15.3544 11.1129 15.4075 11.2373 15.5137 11.3424C15.6202 11.4474 15.7461 11.4999 15.8916 11.4999C16.0369 11.4999 16.1628 11.4474 16.2692 11.3424L18.4175 9.21925C18.5238 9.11418 18.5769 8.98983 18.5769 8.84607C18.5769 8.70228 18.5238 8.57784 18.4175 8.47283L16.2692 6.34978C16.1628 6.24483 16.0369 6.19231 15.8916 6.19231C15.7461 6.19231 15.6202 6.24483 15.5137 6.34978C15.4075 6.45467 15.3544 6.57914 15.3544 6.72296Z" fill="#C3C6CC"/>
<rect x="3.53845" y="6.19232" width="3.53846" height="5.30769" fill="#FAFAFB"/>
</svg>
