<svg width="22" height="22" viewBox="0 0 22 22" fill="none" xmlns="http://www.w3.org/2000/svg">
<path d="M6.82646 0H0.829111C0.371158 0 -5.76963e-07 0.37116 -5.76963e-07 0.82916C-5.76963e-07 1.28712 0.371158 1.65828 0.829111 1.65828H5.99735V6.82655C5.99735 7.28451 6.3685 7.65567 6.82646 7.65567C7.28441 7.65567 7.65561 7.28451 7.65561 6.82655V0.82916C7.65561 0.37116 7.28445 0 6.82646 0Z" transform="translate(14.3445)" fill="#9499A0"/>
<path d="M13.2443 0.242954C12.9204 -0.0809846 12.3958 -0.0809846 12.0719 0.242954L0.242952 12.072C-0.0809836 12.3956 -0.0809836 12.9207 0.242952 13.2444C0.404641 13.4063 0.616902 13.4873 0.829164 13.4873C1.04113 13.4873 1.25339 13.4063 1.41538 13.2444L13.2443 1.41534C13.5682 1.09171 13.5682 0.566591 13.2443 0.242954Z" transform="translate(8.51099)" fill="#9499A0"/>
<path d="M18.3515 7.4899C17.8935 7.4899 17.5223 7.86106 17.5223 8.31901V17.5224H1.65826V1.65828H10.8616C11.3196 1.65828 11.6907 1.28712 11.6907 0.82916C11.6907 0.371203 11.3196 7.34322e-08 10.8616 7.34322e-08H0.829154C0.371158 7.34322e-08 0 0.37116 0 0.82916V18.3516C0 18.8096 0.371158 19.1807 0.829154 19.1807H18.3515C18.8097 19.1807 19.1806 18.8096 19.1806 18.3516V8.31901C19.1806 7.86106 18.8094 7.4899 18.3515 7.4899Z" transform="translate(0 2.81958)" fill="#9499A0"/>
</svg>
