<?xml version="1.0" encoding="utf-8"?>
<!-- Generator: Adobe Illustrator 23.0.3, SVG Export Plug-In . SVG Version: 6.00 Build 0)  -->
<svg version="1.1" id="Layer_1" xmlns="http://www.w3.org/2000/svg" xmlns:xlink="http://www.w3.org/1999/xlink" x="0px" y="0px"
	 viewBox="0 0 500 500" style="enable-background:new 0 0 500 500;" xml:space="preserve">
<style type="text/css">
	.st0{fill:#FFFFFF;}
</style>
<g>
	<path class="st0" d="M456.3,123c0-65.6-53.4-119-119-119c-45.6,0-85.2,25.8-105.2,63.5H51.6c-4.4,0-7.9,3.5-7.9,7.9v412.6
		c0,4.4,3.5,7.9,7.9,7.9h349.2c4.4,0,7.9-3.5,7.9-7.9V218C437.6,196.3,456.3,161.9,456.3,123z M242.3,194.5h-151v-79.4h127.4
		c-0.2,2.6-0.4,5.3-0.4,7.9C218.3,149.8,227.3,174.5,242.3,194.5z M392.8,480.1H59.5V83.4h165.7c-1.8,5.2-3.4,10.4-4.5,15.9H83.4
		c-4.4,0-7.9,3.5-7.9,7.9v95.2c0,4.4,3.5,7.9,7.9,7.9h173.3c21.2,19.6,49.5,31.7,80.7,31.7c20.1,0,39-5,55.5-13.8V480.1z
		 M337.3,226.2c-56.9,0-103.2-46.3-103.2-103.2S280.4,19.9,337.3,19.9c56.9,0,103.2,46.3,103.2,103.2S394.2,226.2,337.3,226.2z"/>
	<path class="st0" d="M403.1,84.1l0.1-0.1l-28.6-28.5l-8.1,8.1l16.2,16.2c-7.2,2.8-12.3,9.7-12.3,17.9c0,10.6,8.6,19.2,19.2,19.2
		c2.7,0,5.3-0.6,7.7-1.6v55.3c0,4.2-3.5,7.7-7.7,7.7c-4.2,0-7.7-3.5-7.7-7.7v-34.5c0-8.5-6.9-15.3-15.3-15.3h-7.7V67
		c0-8.5-6.9-15.3-15.3-15.3h-46c-8.5,0-15.3,6.9-15.3,15.3v122.7h76.7v-57.5h11.5v38.4c0,10.6,8.6,19.2,19.2,19.2
		c10.6,0,19.2-8.6,19.2-19.2V97.7C408.7,92.4,406.5,87.6,403.1,84.1z M343.5,105.4h-46V67h46V105.4z M389.5,105.4
		c-4.2,0-7.7-3.5-7.7-7.7c0-4.2,3.5-7.7,7.7-7.7c4.2,0,7.7,3.5,7.7,7.7C397.2,101.9,393.7,105.4,389.5,105.4z"/>
	<rect x="315" y="315" class="st0" width="57" height="138"/>
	<rect x="81" y="314.6" class="st0" width="57.9" height="57.9"/>
	<rect x="159.1" y="314.6" class="st0" width="57.9" height="57.9"/>
	<rect x="81" y="235.9" class="st0" width="57.9" height="57.9"/>
	<rect x="159.1" y="235.9" class="st0" width="57.9" height="57.9"/>
	<rect x="81" y="395.3" class="st0" width="57.9" height="57.9"/>
	<rect x="159.1" y="395.3" class="st0" width="57.9" height="57.9"/>
	<rect x="234.1" y="314.6" class="st0" width="57.9" height="57.9"/>
	<rect x="234.1" y="235.9" class="st0" width="57.9" height="57.9"/>
	<rect x="234.1" y="395.3" class="st0" width="57.9" height="57.9"/>
</g>
</svg>
