<svg width="14" height="19" viewBox="0 0 14 19" fill="none" xmlns="http://www.w3.org/2000/svg">
<path d="M2.21667 0H0.738889C0.295556 0 0 0.292308 0 0.730769V2.19231C0 2.63077 0.295556 2.92308 0.738889 2.92308H2.21667C2.66 2.92308 2.95556 2.63077 2.95556 2.19231V0.730769C2.95556 0.292308 2.66 0 2.21667 0Z" transform="translate(5.17188 16.0771)" fill="white"/>
<path d="M6.65 0C2.95556 0 0 2.92308 0 6.57692C0 6.94231 -7.1567e-08 7.30769 0.0738888 7.67308C0.147778 8.11154 0.591111 8.33077 1.03444 8.25769L2.43833 7.81923C2.80778 7.74615 3.02944 7.38077 2.95556 7.01539C2.95556 6.86923 2.95556 6.72308 2.95556 6.57692C2.95556 4.53077 4.58111 2.92308 6.65 2.92308C8.71889 2.92308 10.3444 4.53077 10.3444 6.57692C10.3444 7.81923 9.60556 8.40385 8.27556 9.5C7.01944 10.5231 5.54167 11.6923 5.17222 13.8115C5.09833 14.25 5.46778 14.6154 5.91111 14.6154H7.38889C7.75833 14.6154 8.05389 14.3962 8.12778 14.0308C8.34944 13.1538 9.01445 12.5692 10.1228 11.7654C11.5267 10.6692 13.3 9.28077 13.3 6.57692C13.3 2.92308 10.3444 0 6.65 0Z" fill="white"/>
</svg>
