<svg xmlns="http://www.w3.org/2000/svg" width="30" height="30" viewBox="0 0 30 30" fill="none">
<path d="M14.7665 20.3571H15.8625C15.8859 20.3571 15.8999 20.3604 15.9065 20.3625C15.9081 20.3685 15.9105 20.3801 15.9105 20.3988V21.4821C15.9105 21.5008 15.9081 21.5124 15.9065 21.5184C15.8999 21.5205 15.8859 21.5238 15.8625 21.5238H14.7665C14.7432 21.5238 14.7292 21.5205 14.7226 21.5184C14.7209 21.5124 14.7186 21.5008 14.7186 21.4821V20.3988C14.7186 20.3801 14.7209 20.3685 14.7226 20.3625C14.7292 20.3604 14.7432 20.3571 14.7665 20.3571Z" fill="#CDCDCD" stroke="#CDCDCD"/>
<path d="M10.9293 13.5367L10.9307 13.5448L10.9293 13.5367ZM10.9293 13.5367L10.9277 13.5288M10.9293 13.5367L10.9277 13.5288M10.9277 13.5288C10.8844 13.315 10.8828 13.0941 10.8828 12.8154C10.8828 10.3887 12.8455 8.44043 15.315 8.44043C17.7845 8.44043 19.7472 10.3887 19.7472 12.8154C19.7472 14.5484 18.641 15.4415 17.59 16.2616C16.7846 16.8458 16.14 17.3731 15.9263 18.2178L15.9234 18.2295L15.921 18.2413C15.9183 18.2545 15.9149 18.2605 15.914 18.2619C15.9132 18.2633 15.9128 18.2635 15.9126 18.2637C15.9121 18.2641 15.9093 18.2663 15.9021 18.2686C15.8948 18.2709 15.8821 18.2737 15.863 18.2737H14.767C14.7404 18.2737 14.7217 18.263 14.7131 18.2548C14.9524 16.9033 15.8817 16.1468 16.8262 15.3781L16.8363 15.3699L16.8363 15.3699L16.8385 15.368C16.8646 15.3465 16.8906 15.3251 16.9165 15.3039C17.3615 14.9377 17.7641 14.6065 18.048 14.252C18.3737 13.8453 18.5551 13.3982 18.5551 12.8154C18.5551 11.0171 17.1201 9.60709 15.315 9.60709C13.5099 9.60709 12.0749 11.0171 12.0749 12.8154V12.8161V12.8167V12.8173V12.818V12.8186V12.8192V12.8199V12.8205V12.8211V12.8218V12.8224V12.823V12.8237V12.8243V12.8249V12.8256V12.8262V12.8268V12.8275V12.8281V12.8288V12.8294V12.83V12.8307V12.8313V12.8319V12.8326V12.8332V12.8338V12.8345V12.8351V12.8357V12.8364V12.837V12.8376V12.8383V12.8389V12.8395V12.8402V12.8408V12.8414V12.8421V12.8427V12.8434V12.844V12.8446V12.8453V12.8459V12.8465V12.8472V12.8478V12.8484V12.8491V12.8497V12.8503V12.851V12.8516V12.8522V12.8529V12.8535V12.8541V12.8548V12.8554V12.856V12.8567V12.8573V12.858V12.8586V12.8592V12.8599V12.8605V12.8611V12.8618V12.8624V12.863V12.8637V12.8643V12.8649V12.8656V12.8662V12.8668V12.8675V12.8681V12.8687V12.8694V12.87V12.8706V12.8713V12.8719V12.8726V12.8732V12.8738V12.8745V12.8751V12.8757V12.8764V12.877V12.8776V12.8783V12.8789V12.8795V12.8802V12.8808V12.8814V12.8821V12.8827V12.8833V12.884V12.8846V12.8852V12.8859V12.8865V12.8872V12.8878V12.8884V12.8891V12.8897V12.8903V12.891V12.8916V12.8922V12.8929V12.8935V12.8941V12.8948V12.8954V12.896V12.8967V12.8973V12.8979V12.8986V12.8992V12.8998V12.9005V12.9011V12.9018V12.9024V12.903V12.9037V12.9043V12.9049V12.9056V12.9062V12.9068V12.9075V12.9081V12.9087V12.9094V12.91V12.9106V12.9113V12.9119V12.9125V12.9132V12.9138V12.9144V12.9151V12.9157V12.9164V12.917V12.9176V12.9183V12.9189V12.9195V12.9202V12.9208V12.9214V12.9221V12.9227V12.9233V12.924V12.9246V12.9252V12.9259V12.9265V12.9271V12.9278V12.9284V12.929V12.9297V12.9303V12.931V12.9316V12.9322V12.9329V12.9335V12.9341V12.9348V12.9354V12.936V12.9367V12.9373V12.9379V12.9386V12.9392V12.9398V12.9405V12.9411V12.9417V12.9424V12.943V12.9436V12.9443V12.9449V12.9455V12.9462V12.9468V12.9475V12.9481V12.9487V12.9494V12.95V12.9506V12.9513V12.9519V12.9525V12.9532V12.9538V12.9544V12.9551V12.9557V12.9563V12.957V12.9576V12.9582V12.9589V12.9595V12.9601V12.9608V12.9614V12.9621V12.9627V12.9633V12.964V12.9646V12.9652V12.9659V12.9665V12.9671V12.9678V12.9684V12.969V12.9697V12.9703V12.9709V12.9716V12.9722V12.9728V12.9735V12.9741V12.9747V12.9754V12.976V12.9767V12.9773V12.9779V12.9786V12.9792V12.9798V12.9805V12.9811V12.9817V12.9824V12.983V12.9836V12.9843V12.9849V12.9855V12.9862V12.9868V12.9874V12.9881V12.9887V12.9893V12.99V12.9906V12.9913V12.9919V12.9925V12.9932V12.9938V12.9944V12.9951V12.9957V12.9963V12.997V12.9976V12.9982V12.9989V12.9995V13.0001V13.0008V13.0014V13.002V13.0027V13.0033V13.0039V13.0046V13.0052V13.0059V13.0065V13.0071V13.0078V13.0084V13.009V13.0097V13.0103V13.0109V13.0116V13.0122V13.0128V13.0135V13.0141V13.0147V13.0154V13.016V13.0166V13.0173V13.0179V13.0185V13.0192V13.0198V13.0205V13.0211V13.0217V13.0224V13.023V13.0236V13.0243V13.0249V13.0255V13.0262V13.0268V13.0274V13.0281V13.0287V13.0293V13.03V13.0306V13.0312V13.0319V13.0325V13.0331V13.0338V13.0344V13.0351V13.0357V13.0363V13.037V13.0376V13.0382V13.0389V13.0395V13.0401V13.0408V13.0414V13.042V13.0427V13.0433V13.0439V13.0446V13.0452V13.0458V13.0465V13.0471V13.0477V13.0484V13.049V13.0497V13.0503V13.0509V13.0516V13.0522V13.0528V13.0535V13.0541V13.0547V13.0554V13.056V13.0566V13.0573V13.0579V13.0585V13.0592V13.0598V13.0604V13.0611V13.0617V13.0623V13.063V13.0636V13.0643V13.0649V13.0655V13.0662V13.0668V13.0674V13.0681V13.0687V13.0693V13.07V13.0706V13.0712V13.0719V13.0725V13.0731V13.0738V13.0744V13.075V13.0757V13.0763V13.0769V13.0776V13.0782V13.0789V13.0795V13.0801V13.0808V13.0814V13.082V13.0827V13.0833V13.0839V13.0846V13.0852V13.0858V13.0865V13.0871V13.0877V13.0884V13.089V13.0896V13.0903V13.0909V13.0915V13.0922V13.0928V13.0935V13.0941V13.0947V13.0954V13.096V13.0966V13.0973V13.0979V13.0985V13.0992V13.0998V13.1004V13.1011V13.1017V13.1023V13.103V13.1036V13.1042V13.1049V13.1055V13.1061V13.1068V13.1074V13.108V13.1087V13.1093V13.11V13.1106V13.1112V13.1119V13.1125V13.1131V13.1138V13.1144V13.115V13.1157V13.1163V13.1169V13.1176V13.1182V13.1188V13.1195V13.1201V13.1207V13.1214V13.122V13.1226V13.1233V13.1239V13.1246V13.1252V13.1258V13.1265V13.1271V13.1277V13.1284V13.129V13.1296V13.1303V13.1309V13.1315V13.1322V13.1328V13.1334V13.1341V13.1347V13.1353V13.136V13.1366V13.1372V13.1379V13.1385V13.1392V13.1398V13.1404V13.1905L12.0848 13.2396C12.0855 13.2428 12.0855 13.2455 12.0852 13.2475M10.9277 13.5288L12.0852 13.2475M12.0852 13.2475L12.068 13.251L12.0423 13.259L11.0428 13.5709C10.9931 13.5744 10.9568 13.5628 10.9394 13.5528C10.935 13.5503 10.9325 13.5483 10.9311 13.5471L12.0852 13.2475Z" fill="#CDCDCD" stroke="#CDCDCD"/>
<path d="M29.499 14.982C29.499 22.8112 23.1488 29.1584 15.3149 29.1584C7.48104 29.1584 1.13086 22.8112 1.13086 14.982C1.13086 7.15288 7.48104 0.805664 15.3149 0.805664C23.1488 0.805664 29.499 7.15288 29.499 14.982Z" stroke="#545D6A"/>
</svg>