<svg width="20" height="20" viewBox="0 0 20 20" fill="none" xmlns="http://www.w3.org/2000/svg">
<rect width="20" height="20" fill="#E5E5E5"/>
<g clip-path="url(#clip0)">
<rect width="1440" height="827" transform="translate(-37 -274)" fill="#EAECEE"/>
<rect x="-22" y="-8" width="166" height="43" fill="#FCFCFE"/>
<path d="M13.1797 13.6602V17H12.0547V8.46875H15.2012C16.1348 8.46875 16.8652 8.70703 17.3926 9.18359C17.9238 9.66016 18.1895 10.291 18.1895 11.0762C18.1895 11.9043 17.9297 12.543 17.4102 12.9922C16.8945 13.4375 16.1543 13.6602 15.1895 13.6602H13.1797ZM13.1797 12.7402H15.2012C15.8027 12.7402 16.2637 12.5996 16.584 12.3184C16.9043 12.0332 17.0645 11.623 17.0645 11.0879C17.0645 10.5801 16.9043 10.1738 16.584 9.86914C16.2637 9.56445 15.8242 9.40625 15.2656 9.39453H13.1797V12.7402ZM26.1816 17H25.0508V13.0566H20.75V17H19.625V8.46875H20.75V12.1367H25.0508V8.46875H26.1816V17ZM28.1797 17V8.46875H30.9688C31.8945 8.46875 32.5898 8.66016 33.0547 9.04297C33.5234 9.42578 33.7578 9.99219 33.7578 10.7422C33.7578 11.1406 33.6445 11.4941 33.418 11.8027C33.1914 12.1074 32.8828 12.3438 32.4922 12.5117C32.9531 12.6406 33.3164 12.8867 33.582 13.25C33.8516 13.6094 33.9863 14.0391 33.9863 14.5391C33.9863 15.3047 33.7383 15.9062 33.2422 16.3438C32.7461 16.7812 32.0449 17 31.1387 17H28.1797ZM29.3047 13.0098V16.0801H31.1621C31.6855 16.0801 32.0977 15.9453 32.3984 15.6758C32.7031 15.4023 32.8555 15.0273 32.8555 14.5508C32.8555 13.5234 32.2969 13.0098 31.1797 13.0098H29.3047ZM29.3047 12.1074H31.0039C31.4961 12.1074 31.8887 11.9844 32.1816 11.7383C32.4785 11.4922 32.627 11.1582 32.627 10.7363C32.627 10.2676 32.4902 9.92773 32.2168 9.7168C31.9434 9.50195 31.5273 9.39453 30.9688 9.39453H29.3047V12.1074ZM40.7246 13.3613C40.7246 14.6309 40.5078 15.5742 40.0742 16.1914C39.6406 16.8086 38.9629 17.1172 38.041 17.1172C37.1309 17.1172 36.457 16.8164 36.0195 16.2148C35.582 15.6094 35.3555 14.707 35.3398 13.5078V12.0605C35.3398 10.8066 35.5566 9.875 35.9902 9.26562C36.4238 8.65625 37.1035 8.35156 38.0293 8.35156C38.9473 8.35156 39.623 8.64648 40.0566 9.23633C40.4902 9.82227 40.7129 10.7285 40.7246 11.9551V13.3613ZM39.6406 11.8789C39.6406 10.9609 39.5117 10.293 39.2539 9.875C38.9961 9.45312 38.5879 9.24219 38.0293 9.24219C37.4746 9.24219 37.0703 9.45117 36.8164 9.86914C36.5625 10.2871 36.4316 10.9297 36.4238 11.7969V13.5312C36.4238 14.4531 36.5566 15.1348 36.8223 15.5762C37.0918 16.0137 37.498 16.2324 38.041 16.2324C38.5762 16.2324 38.9727 16.0254 39.2305 15.6113C39.4922 15.1973 39.6289 14.5449 39.6406 13.6543V11.8789ZM45.6758 17H44.5859V9.77539L42.4004 10.5781V9.59375L45.5059 8.42773H45.6758V17ZM54.4414 17H48.8516V16.2207L51.8047 12.9395C52.2422 12.4434 52.543 12.041 52.707 11.7324C52.875 11.4199 52.959 11.0977 52.959 10.7656C52.959 10.3203 52.8242 9.95508 52.5547 9.66992C52.2852 9.38477 51.9258 9.24219 51.4766 9.24219C50.9375 9.24219 50.5176 9.39648 50.2168 9.70508C49.9199 10.0098 49.7715 10.4355 49.7715 10.9824H48.6875C48.6875 10.1973 48.9395 9.5625 49.4434 9.07812C49.9512 8.59375 50.6289 8.35156 51.4766 8.35156C52.2695 8.35156 52.8965 8.56055 53.3574 8.97852C53.8184 9.39258 54.0488 9.94531 54.0488 10.6367C54.0488 11.4766 53.5137 12.4766 52.4434 13.6367L50.1582 16.1152H54.4414V17ZM57.957 13.8184H55.0977V12.9336H57.957V13.8184ZM62.4688 17H61.3789V9.77539L59.1934 10.5781V9.59375L62.2988 8.42773H62.4688V17Z" fill="#4A71C2"/>
<rect x="-16.5" y="-106.5" width="258" height="141" rx="4.5" fill="white" stroke="#656565"/>
<circle cx="10" cy="10" r="10" fill="#1CABE0"/>
<rect x="5" y="6" width="9.21053" height="1" fill="white"/>
<rect x="5" y="7.5" width="9.21053" height="1" fill="white"/>
<rect x="5" y="7.5" width="9.21053" height="1" fill="white"/>
<rect x="5" y="9" width="9.21053" height="1" fill="white"/>
<rect x="5" y="10.5" width="9.21053" height="1" fill="white"/>
<rect x="5" y="12" width="9.21053" height="1" fill="white"/>
<rect x="5" y="13.5" width="9.21053" height="1" fill="white"/>
</g>
<defs>
<clipPath id="clip0">
<rect width="1440" height="827" fill="white" transform="translate(-37 -274)"/>
</clipPath>
</defs>
</svg>
