<svg width="11" height="11" viewBox="0 0 11 11" fill="none" xmlns="http://www.w3.org/2000/svg">
<g clip-path="url(#clip0)">
<path d="M8.88729 3.59107C8.88729 3.59107 8.35822 4.16961 7.76391 4.42565C3.36285 6.3219 5.44974 9.37912 5.51226 9.38587C5.51226 9.38587 5.73822 8.9315 6.06398 8.66056C8.13113 6.94161 8.46113 5.08564 8.46113 5.08564C8.46113 5.08564 8.10765 7.31635 6.26597 8.8014C5.8592 9.12924 5.61607 9.89106 5.53882 10.6426C5.53882 10.6426 5.8327 10.5029 5.96024 10.4622C5.99102 10.1296 6.07772 9.80771 6.23937 9.51513C8.94706 9.67436 9.69798 7.4553 9.76781 6.69302C9.93257 4.89269 8.88729 3.59107 8.88729 3.59107Z" fill="#27AE60"/>
</g>
<g clip-path="url(#clip1)">
<path d="M3.18147 0.776369C3.18147 0.776369 3.64939 1.58927 4.23222 1.9788C8.54818 4.86357 5.92707 8.7558 5.86087 8.75961C5.86087 8.75961 5.69112 8.13684 5.39062 7.7497C3.48373 5.2935 3.409 2.79866 3.409 2.79866C3.409 2.79866 3.4538 5.79367 5.15945 7.92027C5.53619 8.38975 5.6792 9.42271 5.65065 10.4283C5.65065 10.4283 5.36434 10.2182 5.23721 10.1536C5.25339 9.70886 5.20968 9.27374 5.08355 8.87139C2.23565 8.85936 1.77453 5.847 1.81238 4.82776C1.90196 2.42055 3.18147 0.776369 3.18147 0.776369Z" fill="#27AE60"/>
</g>
<defs>
<clipPath id="clip0">
<rect width="6.83894" height="6.83894" fill="white" transform="translate(3.76514 3.89795) rotate(-3.42414)"/>
</clipPath>
<clipPath id="clip1">
<rect width="7.14886" height="9.15302" fill="white" transform="matrix(-0.987934 -0.154873 -0.154873 0.987934 8.47998 1.60693)"/>
</clipPath>
</defs>
</svg>
