<?xml version="1.0" encoding="utf-8"?>
<!-- Generator: Adobe Illustrator 23.0.1, SVG Export Plug-In . SVG Version: 6.00 Build 0)  -->
<svg version="1.1" xmlns="http://www.w3.org/2000/svg" xmlns:xlink="http://www.w3.org/1999/xlink" x="0px" y="0px"
	 viewBox="0 0 25 25" style="enable-background:new 0 0 25 25;" xml:space="preserve">
<style type="text/css">
	.st0{display:none;opacity:0.14;}
	.st1{display:inline;fill:#37414F;}
	.st2{fill:#070707;}
	.st3{fill:none;stroke:#070707;stroke-width:1.3929;stroke-miterlimit:10;}
</style>
<g id="Layer_1" class="st0">
	<path class="st1" d="M12.5,23.5c-6.1,0-11-4.9-11-11c0-6.1,4.9-11,11-11c6.1,0,11,4.9,11,11C23.5,18.6,18.6,23.5,12.5,23.5z
		 M12.5,1.9C6.6,1.9,1.9,6.6,1.9,12.5c0,5.9,4.8,10.6,10.6,10.6c5.9,0,10.6-4.8,10.6-10.6C23.1,6.6,18.4,1.9,12.5,1.9z"/>
	<path class="st1" d="M17.2,7.7H9.8v0.4h7.5V7.7z"/>
	<path class="st1" d="M17.2,10.4H9.8v0.4h7.5V10.4z"/>
	<path class="st1" d="M17.2,13.2H9.8v0.4h7.5V13.2z"/>
	<path class="st1" d="M17.2,15.9H9.8v0.4h7.5V15.9z"/>
	<path class="st1" d="M8.4,8.4C8.7,8.4,9,8.1,9,7.8c0-0.3-0.3-0.6-0.6-0.6C8,7.2,7.7,7.4,7.7,7.8C7.7,8.1,8,8.4,8.4,8.4z"/>
	<path class="st1" d="M8.4,11.1c0.3,0,0.6-0.3,0.6-0.6c0-0.3-0.3-0.6-0.6-0.6c-0.3,0-0.6,0.3-0.6,0.6C7.7,10.8,8,11.1,8.4,11.1z"/>
	<path class="st1" d="M8.4,13.8c0.3,0,0.6-0.3,0.6-0.6s-0.3-0.6-0.6-0.6c-0.3,0-0.6,0.3-0.6,0.6S8,13.8,8.4,13.8z"/>
	<path class="st1" d="M8.4,16.6C8.7,16.6,9,16.3,9,16c0-0.3-0.3-0.6-0.6-0.6c-0.3,0-0.6,0.3-0.6,0.6C7.7,16.3,8,16.6,8.4,16.6z"/>
</g>
<g id="Layer_2">
	<g>
		<path class="st2" d="M12.5,1.4c6.1,0,11.1,5,11.1,11.1s-5,11.1-11.1,11.1s-11.1-5-11.1-11.1S6.4,1.4,12.5,1.4 M12.5,0
			C5.6,0,0,5.6,0,12.5S5.6,25,12.5,25S25,19.4,25,12.5S19.4,0,12.5,0L12.5,0z"/>
	</g>
	<g>
		<g>
			<g>
				<circle class="st2" cx="8" cy="7.2" r="1"/>
			</g>
			<g>
				<circle class="st2" cx="8" cy="12.5" r="1"/>
			</g>
			<g>
				<circle class="st2" cx="8" cy="17.8" r="1"/>
			</g>
		</g>
		<g>
			<line class="st3" x1="10.7" y1="7.2" x2="18.4" y2="7.2"/>
			<line class="st3" x1="10.7" y1="12.5" x2="18.4" y2="12.5"/>
			<line class="st3" x1="10.7" y1="17.8" x2="18.4" y2="17.8"/>
		</g>
	</g>
</g>
</svg>
