<svg width="25" height="25" viewBox="0 0 25 25" fill="none" xmlns="http://www.w3.org/2000/svg">
<path d="M18.7492 7.42407H10.2446V7.82272H18.7492V7.42407Z" fill="#37414F"/>
<path d="M18.7492 10.4803H10.2446V10.879H18.7492V10.4803Z" fill="#37414F"/>
<path d="M18.7492 13.6697H10.2446V14.0683H18.7492V13.6697Z" fill="#37414F"/>
<path d="M18.7492 16.7258H10.2446V17.1245H18.7492V16.7258Z" fill="#37414F"/>
<path d="M6.74982 8.9546C7.33976 8.9546 7.818 8.47636 7.818 7.88642C7.818 7.29648 7.33976 6.81824 6.74982 6.81824C6.15988 6.81824 5.68164 7.29648 5.68164 7.88642C5.68164 8.47636 6.15988 8.9546 6.74982 8.9546Z" fill="#37414F"/>
<path d="M6.74982 12.0108C7.33976 12.0108 7.818 11.5325 7.818 10.9426C7.818 10.3526 7.33976 9.87439 6.74982 9.87439C6.15988 9.87439 5.68164 10.3526 5.68164 10.9426C5.68164 11.5325 6.15988 12.0108 6.74982 12.0108Z" fill="#37414F"/>
<path d="M6.74982 15.1113C7.33976 15.1113 7.818 14.6331 7.818 14.0432C7.818 13.4532 7.33976 12.975 6.74982 12.975C6.15988 12.975 5.68164 13.4532 5.68164 14.0432C5.68164 14.6331 6.15988 15.1113 6.74982 15.1113Z" fill="#37414F"/>
<path d="M6.74982 18.2564C7.33976 18.2564 7.81801 17.7781 7.81801 17.1882C7.81801 16.5982 7.33976 16.12 6.74982 16.12C6.15988 16.12 5.68164 16.5982 5.68164 17.1882C5.68164 17.7781 6.15988 18.2564 6.74982 18.2564Z" fill="#37414F"/>
<circle cx="12.5" cy="12.5" r="12.125" stroke="#37414F" stroke-width="0.75"/>
</svg>
