<?xml version="1.0" encoding="utf-8"?>
<!-- Generator: Adobe Illustrator 22.1.0, SVG Export Plug-In . SVG Version: 6.00 Build 0)  -->
<svg width="22" height="22" viewBox="0 0 22 22" fill="none" xmlns="http://www.w3.org/2000/svg">
<path d="M10.9999 22C4.93452 22 0 17.0655 0 10.9999C0 4.9344 4.93452 0 10.9999 0C17.0654 0 21.9999 4.93452 21.9999 10.9999C21.9999 17.0654 17.0656 22 10.9999 22ZM10.9999 0.350812C5.12805 0.350812 0.350812 5.12805 0.350812 10.9999C0.350812 16.8718 5.12805 21.6491 10.9999 21.6491C16.8718 21.6491 21.6491 16.8718 21.6491 10.9999C21.6491 5.12805 16.8721 0.350812 10.9999 0.350812Z" fill="#37414F"/>
<path d="M15.7438 6.20508H8.25977V6.55589H15.7438V6.20508Z" fill="#37414F"/>
<path d="M15.7438 8.89453H8.25977V9.24534H15.7438V8.89453Z" fill="#37414F"/>
<path d="M15.7438 11.7012H8.25977V12.052H15.7438V11.7012Z" fill="#37414F"/>
<path d="M15.7438 14.3906H8.25977V14.7414H15.7438V14.3906Z" fill="#37414F"/>
<path d="M6.85561 6.89481C7.19331 6.89481 7.46707 6.62104 7.46707 6.28334C7.46707 5.94564 7.19331 5.67188 6.85561 5.67188C6.5179 5.67188 6.24414 5.94564 6.24414 6.28334C6.24414 6.62104 6.5179 6.89481 6.85561 6.89481Z" fill="#37414F"/>
<path d="M6.85561 9.58426C7.19331 9.58426 7.46707 9.3105 7.46707 8.97279C7.46707 8.63509 7.19331 8.36133 6.85561 8.36133C6.5179 8.36133 6.24414 8.63509 6.24414 8.97279C6.24414 9.3105 6.5179 9.58426 6.85561 9.58426Z" fill="#37414F"/>
<path d="M6.85561 12.3128C7.19331 12.3128 7.46707 12.039 7.46707 11.7013C7.46707 11.3636 7.19331 11.0898 6.85561 11.0898C6.5179 11.0898 6.24414 11.3636 6.24414 11.7013C6.24414 12.039 6.5179 12.3128 6.85561 12.3128Z" fill="#37414F"/>
<path d="M6.85561 15.0804C7.19331 15.0804 7.46707 14.8066 7.46707 14.4689C7.46707 14.1312 7.19331 13.8574 6.85561 13.8574C6.5179 13.8574 6.24414 14.1312 6.24414 14.4689C6.24414 14.8066 6.5179 15.0804 6.85561 15.0804Z" fill="#37414F"/>
</svg>

