<?xml version="1.0" encoding="utf-8"?>
<!-- Generator: Adobe Illustrator 23.0.1, SVG Export Plug-In . SVG Version: 6.00 Build 0)  -->
<svg version="1.1" xmlns="http://www.w3.org/2000/svg" xmlns:xlink="http://www.w3.org/1999/xlink" x="0px" y="0px"
	 viewBox="0 0 32 32" style="enable-background:new 0 0 32 32;" xml:space="preserve">
<style type="text/css">
	.st0{display:none;}
	.st1{display:inline;}
	.st2{fill:#403351;}
	.st3{fill:#FFFFFF;}
</style>
<g id="Capa_1" class="st0">
	<g class="st1">
		<g>
			<path class="st2" d="M28,7V3H0v22c0,0,0,4,4,4h25c0,0,3-0.1,3-4V7H28z M4,27c-2,0-2-2-2-2V5h24v20c0,0.9,0.3,1.6,0.7,2H4z"/>
			<rect x="4" y="9" class="st2" width="20" height="2"/>
			<rect x="15" y="21" class="st2" width="7" height="2"/>
			<rect x="15" y="17" class="st2" width="9" height="2"/>
			<rect x="15" y="13" class="st2" width="9" height="2"/>
			<rect x="4" y="13" class="st2" width="9" height="10"/>
		</g>
	</g>
</g>
<g id="Layer_2">
	<g>
		<g id="news">
			<path class="st3" d="M29,0H7C5.3,0,4,1.3,4,3v2H3C1.3,5,0,6.3,0,8v20c0,2.2,1.8,4,4,4h24c2.2,0,4-1.8,4-4V3C32,1.3,30.7,0,29,0z
				 M30,28c0,1.1-0.9,2-2,2H4c-1.1,0-2-0.9-2-2V8c0-0.6,0.4-1,1-1h1v20c0,0.6,0.4,1,1,1s1-0.4,1-1V3c0-0.6,0.4-1,1-1h22
				c0.6,0,1,0.4,1,1V28z"/>
			<path class="st3" d="M19.5,12.1h8c0.3,0,0.5-0.4,0.5-1s-0.2-1-0.5-1h-8c-0.3,0-0.5,0.4-0.5,1S19.2,12.1,19.5,12.1z"/>
			<path class="st3" d="M19.5,7.3h8c0.3,0,0.5-0.4,0.5-1s-0.2-1-0.5-1h-8c-0.3,0-0.5,0.4-0.5,1S19.2,7.3,19.5,7.3z"/>
			<path class="st3" d="M16.5,30.6h-8c-0.3,0-0.5,0.3-0.5,0.7C8,31.7,8.2,32,8.5,32h8c0.3,0,0.5-0.3,0.5-0.7
				C17,30.9,16.8,30.6,16.5,30.6z"/>
			<path class="st3" d="M27.5,30.6h-8c-0.3,0-0.5,0.3-0.5,0.7c0,0.4,0.2,0.7,0.5,0.7h8c0.3,0,0.5-0.3,0.5-0.7
				C28,30.9,27.8,30.6,27.5,30.6z"/>
			<path class="st3" d="M16.5,25.3h-8c-0.3,0-0.5,0.5-0.5,1c0,0.6,0.2,1,0.5,1h8c0.3,0,0.5-0.4,0.5-1C17,25.7,16.8,25.3,16.5,25.3z"
				/>
			<path class="st3" d="M27.5,25.3h-8c-0.3,0-0.5,0.5-0.5,1c0,0.6,0.2,1,0.5,1h8c0.3,0,0.5-0.4,0.5-1C28,25.7,27.8,25.3,27.5,25.3z"
				/>
			<path class="st3" d="M27.5,15.8h-19c-0.3,0-0.5,0.4-0.5,1s0.2,1,0.5,1h19c0.3,0,0.5-0.4,0.5-1S27.8,15.8,27.5,15.8z"/>
			<path class="st3" d="M27.5,20.4h-19c-0.3,0-0.5,0.4-0.5,1s0.2,1,0.5,1h19c0.3,0,0.5-0.4,0.5-1S27.8,20.4,27.5,20.4z"/>
			<path class="st3" d="M9,13h7c0.6,0,1-0.4,1-1V5c0-0.6-0.4-1-1-1H9C8.4,4,8,4.5,8,5v7C8,12.6,8.4,13,9,13z M10,6h5v5h-5V6z"/>
		</g>
	</g>
</g>
</svg>
