<svg width="22" height="22" viewBox="0 0 22 22" fill="none" xmlns="http://www.w3.org/2000/svg">
<path d="M16.5 9.66556V3.839L12.6596 0H0V22H16.5V21.9594C19.5931 21.6157 21.9986 18.997 22 15.8125C21.9986 12.6266 19.5931 10.0072 16.5 9.66556ZM12.3736 1.65894L14.8404 4.125H12.3736V1.65894ZM1.375 20.625V1.37363H11V5.49931H15.125V9.66556C12.0306 10.0079 9.625 12.6273 9.625 15.8125C9.625 17.7574 10.5243 19.492 11.9281 20.625H1.375ZM15.8125 20.5446C13.1993 20.5384 11.0852 18.4243 11.0791 15.8125C11.0852 13.1993 13.1993 11.0852 15.8125 11.0791C18.4243 11.0852 20.5384 13.1993 20.5446 15.8125C20.5384 18.4243 18.4243 20.5384 15.8125 20.5446Z" fill="#9499A0"/>
<path d="M4.12638 2.75V0H2.75V2.75H0V4.125H2.75V6.875H4.12638V4.125H6.875V2.75H4.12638Z" transform="translate(12.375 12.375)" fill="#9499A0"/>
</svg>
