<svg width="19" height="20" viewBox="0 0 19 20" fill="none" xmlns="http://www.w3.org/2000/svg">
<path d="M15.7225 11.2779C14.9844 9.51828 14.6153 7.66378 14.6153 5.71432C14.6153 4.48668 14.2501 3.51207 13.5196 2.79026C12.7885 2.06849 11.7836 1.63309 10.5048 1.48435C10.5656 1.35051 10.5959 1.21287 10.5959 1.07148C10.5959 0.77384 10.4894 0.52065 10.2763 0.312491C10.0632 0.104099 9.80445 0 9.4999 0C9.19555 0 8.93668 0.104099 8.72348 0.312491C8.51031 0.520806 8.40381 0.77384 8.40381 1.07148C8.40381 1.21287 8.43421 1.35039 8.4952 1.48435C7.21634 1.63325 6.21147 2.06845 5.48072 2.79026C4.75001 3.51203 4.38467 4.48664 4.38467 5.71432C4.38467 7.66378 4.01558 9.51828 3.27711 11.2779C2.53868 13.0376 1.44639 14.5165 2.86815e-08 15.7144C2.86815e-08 16.1012 0.144655 16.4361 0.433924 16.7188C0.723154 17.0014 1.06565 17.143 1.46162 17.143H6.57701C6.57701 17.9317 6.86236 18.6051 7.4333 19.163C8.00428 19.7209 8.69324 20 9.50006 20C10.307 20 10.996 19.7209 11.5667 19.163C12.1375 18.6051 12.423 17.9317 12.423 17.143H17.5384C17.9342 17.143 18.2771 17.0017 18.566 16.7188C18.8553 16.4361 19 16.1012 19 15.7144C17.5539 14.5165 16.4614 13.0376 15.7225 11.2779ZM9.50006 19.107C8.9444 19.107 8.47036 18.9157 8.07839 18.5325C7.68642 18.1492 7.49037 17.6859 7.49037 17.1427C7.49037 17.0236 7.55132 16.9641 7.67306 16.9641C7.79488 16.9641 7.85583 17.0236 7.85583 17.1427C7.85583 17.5817 8.01752 17.9593 8.34102 18.2756C8.66461 18.592 9.05086 18.75 9.50002 18.75C9.62184 18.75 9.68299 18.8098 9.68299 18.9286C9.68307 19.0477 9.62188 19.107 9.50006 19.107ZM2.08963 15.7144C3.3381 14.3676 4.27621 12.8368 4.90418 11.1218C5.53215 9.4068 5.8463 7.60432 5.8463 5.71448C5.8463 3.80971 7.06417 2.85738 9.50006 2.85738C11.9359 2.85738 13.1539 3.80971 13.1539 5.71448C13.1539 7.60432 13.4678 9.4068 14.0959 11.1218C14.7237 12.8369 15.6623 14.3676 16.9106 15.7144H2.08963Z" fill="white"/>
</svg>
