<?xml version="1.0" encoding="utf-8"?>
<!-- Generator: Adobe Illustrator 23.0.3, SVG Export Plug-In . SVG Version: 6.00 Build 0)  -->
<svg version="1.1" id="Layer_1" xmlns="http://www.w3.org/2000/svg" xmlns:xlink="http://www.w3.org/1999/xlink" x="0px" y="0px"
	 viewBox="0 0 500 500" style="enable-background:new 0 0 500 500;" xml:space="preserve">
<style type="text/css">
	.st0{display:none;}
	.st1{display:inline;}
	.st2{fill:#FFFFFF;}
</style>
<g class="st0">
	<path class="st1" d="M456.3,123c0-65.6-53.4-119-119-119c-45.6,0-85.2,25.8-105.2,63.5H51.6c-4.4,0-7.9,3.5-7.9,7.9v412.6
		c0,4.4,3.5,7.9,7.9,7.9h349.2c4.4,0,7.9-3.5,7.9-7.9V218C437.6,196.3,456.3,161.9,456.3,123z M242.3,194.5h-151v-79.4h127.4
		c-0.2,2.6-0.4,5.3-0.4,7.9C218.3,149.8,227.3,174.5,242.3,194.5z M392.8,480.1H59.5V83.4h165.7c-1.8,5.2-3.4,10.4-4.5,15.9H83.4
		c-4.4,0-7.9,3.5-7.9,7.9v95.2c0,4.4,3.5,7.9,7.9,7.9h173.3c21.2,19.6,49.5,31.7,80.7,31.7c20.1,0,39-5,55.5-13.8V480.1z
		 M337.3,226.2c-56.9,0-103.2-46.3-103.2-103.2S280.4,19.9,337.3,19.9c56.9,0,103.2,46.3,103.2,103.2S394.2,226.2,337.3,226.2z"/>
	<path class="st1" d="M403.1,84.1l0.1-0.1l-28.6-28.5l-8.1,8.1l16.2,16.2c-7.2,2.8-12.3,9.7-12.3,17.9c0,10.6,8.6,19.2,19.2,19.2
		c2.7,0,5.3-0.6,7.7-1.6v55.3c0,4.2-3.5,7.7-7.7,7.7c-4.2,0-7.7-3.5-7.7-7.7v-34.5c0-8.5-6.9-15.3-15.3-15.3h-7.7V67
		c0-8.5-6.9-15.3-15.3-15.3h-46c-8.5,0-15.3,6.9-15.3,15.3v122.7h76.7v-57.5h11.5v38.4c0,10.6,8.6,19.2,19.2,19.2
		c10.6,0,19.2-8.6,19.2-19.2V97.7C408.7,92.4,406.5,87.6,403.1,84.1z M343.5,105.4h-46V67h46V105.4z M389.5,105.4
		c-4.2,0-7.7-3.5-7.7-7.7c0-4.2,3.5-7.7,7.7-7.7c4.2,0,7.7,3.5,7.7,7.7C397.2,101.9,393.7,105.4,389.5,105.4z"/>
	<rect x="315" y="315" class="st1" width="57" height="138"/>
	<rect x="81" y="314.6" class="st1" width="57.9" height="57.9"/>
	<rect x="159.1" y="314.6" class="st1" width="57.9" height="57.9"/>
	<rect x="81" y="235.9" class="st1" width="57.9" height="57.9"/>
	<rect x="159.1" y="235.9" class="st1" width="57.9" height="57.9"/>
	<rect x="81" y="395.3" class="st1" width="57.9" height="57.9"/>
	<rect x="159.1" y="395.3" class="st1" width="57.9" height="57.9"/>
	<rect x="234.1" y="314.6" class="st1" width="57.9" height="57.9"/>
	<rect x="234.1" y="235.9" class="st1" width="57.9" height="57.9"/>
	<rect x="234.1" y="395.3" class="st1" width="57.9" height="57.9"/>
</g>
<g>
	<path class="st2" d="M163.8,276.7h-40.3c-2,0-4,0.8-5.4,2.3c-1.4,1.5-2.2,3.5-2.2,5.6v161.4c0,2.1,0.8,4.1,2.2,5.6
		c1.4,1.5,3.4,2.3,5.4,2.3h40.3c2,0,4-0.8,5.4-2.3c1.4-1.5,2.2-3.5,2.2-5.6V284.5c0-2.1-0.8-4.1-2.2-5.6
		C167.7,277.5,165.8,276.7,163.8,276.7z M156.1,437.1h-24.9V292.4h24.9V437.1z"/>
	<path class="st2" d="M246.2,252.1h-40.3c-2,0-4,0.8-5.4,2.3c-1.4,1.5-2.2,3.5-2.2,5.6v185c0,2.1,0.8,4.1,2.2,5.6
		c1.4,1.5,3.4,2.3,5.4,2.3h40.3c2,0,4-0.8,5.4-2.3s2.2-3.5,2.2-5.6v-185c0-2.1-0.8-4.1-2.2-5.6S248.2,252.1,246.2,252.1z
		 M238.5,437.1h-24.9V267.8h24.9V437.1z"/>
	<path class="st2" d="M81.3,364.2H41.1c-2,0-4,0.8-5.4,2.3s-2.2,3.5-2.2,5.6v72.8c0,2.1,0.8,4.1,2.2,5.6s3.4,2.3,5.4,2.3h40.3
		c2,0,4-0.8,5.4-2.3c1.4-1.5,2.2-3.5,2.2-5.6v-72.8c0-2.1-0.8-4.1-2.2-5.6C85.3,365.1,83.4,364.2,81.3,364.2z M73.6,437.1H48.7V380
		h24.9V437.1z"/>
	<path class="st2" d="M410.1,37.4L410,88.9c0,1,0.2,2,0.6,3c0.4,0.9,1,1.8,1.7,2.5c0.7,0.7,1.6,1.3,2.5,1.7c0.9,0.4,1.9,0.6,2.9,0.6
		h0c1,0,2-0.2,2.9-0.5c0.9-0.4,1.8-0.9,2.5-1.7s1.3-1.6,1.7-2.5c0.4-0.9,0.6-2,0.6-3l0.1-70c0-2.1-0.8-4.1-2.2-5.6
		c-1.4-1.5-3.4-2.3-5.4-2.3h0l-71.4,0.2c-1,0-2,0.2-2.9,0.6c-0.9,0.4-1.8,1-2.5,1.7c-0.7,0.7-1.3,1.6-1.6,2.5c-0.4,0.9-0.6,2-0.6,3
		c0,1,0.2,2,0.6,3c0.4,0.9,0.9,1.8,1.6,2.5c0.7,0.7,1.5,1.3,2.5,1.7c0.9,0.4,1.9,0.6,2.9,0.6h0l52.2,0l-119,116.8L238,102.8
		c-1.4-1.4-3.3-2.2-5.3-2.2c-2,0-3.9,0.8-5.3,2.2L27,299.4c-0.7,0.7-1.3,1.6-1.7,2.5c-0.4,0.9-0.6,2-0.7,3c0,1,0.2,2.1,0.5,3
		c0.4,1,0.9,1.8,1.6,2.6c0.7,0.7,1.5,1.3,2.4,1.8c0.9,0.4,1.9,0.6,2.9,0.7c1,0,2-0.2,2.9-0.5c0.9-0.4,1.8-0.9,2.5-1.6l195.1-191.4
		l41.6,40.8c1.4,1.4,3.3,2.2,5.3,2.2s3.9-0.8,5.3-2.2L410.1,37.4z"/>
	<path class="st2" d="M465,364.4c-0.1-0.2-0.2-0.4-0.4-0.6l-47.8-68.5V148.3c0-4.3-3.6-7.5-7.8-7.5h-40.4c-1,0-1.9,0.1-2.8,0.5
		c-0.9,0.4-1.7,0.9-2.4,1.6c-0.7,0.7-1.2,1.5-1.6,2.5c-0.4,0.9-0.5,1.9-0.5,2.9v149.5l-25.9,36.9v-133c-0.1-2.1-0.9-4.1-2.4-5.5
		c-1.5-1.4-3.5-2.2-5.5-2.2h-40.4c-1,0-1.9,0.2-2.9,0.6c-0.9,0.4-1.7,1-2.4,1.7c-0.7,0.7-1.2,1.6-1.6,2.5c-0.4,0.9-0.5,1.9-0.5,2.9
		v243.4c0,1,0.1,2,0.5,2.9c0.4,0.9,0.9,1.8,1.6,2.5c0.7,0.7,1.5,1.3,2.4,1.7c0.9,0.4,1.9,0.6,2.9,0.6h33.4
		c8.5,11.9,19.7,21.5,32.7,27.8c13,6.3,27.3,9.2,41.6,8.3c14.3-0.9,28.2-5.4,40.4-13.2c12.2-7.8,22.3-18.6,29.4-31.4
		C478.8,418.7,479,388.9,465,364.4z M320,356.6l-5,6.9c-0.1,0.2-0.3,0.3-0.5,0.5c-6.2,11-9.8,23.4-10.4,36.1
		c-0.6,12.7,1.9,25.4,7.2,36.9h-16.3V209.8H320V356.6z M393.3,262.9c-1.1-0.6-2.3-1-3.6-1c-1.2,0-2.4,0.4-3.5,1
		c-1.1,0.6-2,1.5-2.6,2.5l-7.1,10.5l0-119.3h24.9v116.7l-5.4-7.9C395.3,264.4,394.4,263.5,393.3,262.9z M399.9,326.5
		c3.8-2.8,9.1-2,11.8,1.8l36.4,49.5c2.8,3.8,2,9.1-1.8,11.8c-1.5,1.1-3.3,1.7-5,1.7c-2.6,0-5.2-1.2-6.8-3.4l-36.4-49.5
		C395.3,334.6,396.1,329.3,399.9,326.5z M441.4,432.2c-6.5,0-11.7-5.2-11.7-11.7c0-6.5,5.2-11.7,11.7-11.7s11.7,5.2,11.7,11.7
		C453.1,427,447.8,432.2,441.4,432.2z"/>
</g>
</svg>
