<svg width="12" height="14" viewBox="0 0 12 14" fill="none" xmlns="http://www.w3.org/2000/svg">
<path d="M10.5281 0H2.10562C1.91948 0 1.74095 0.072907 1.60932 0.202682C1.4777 0.332457 1.40375 0.50847 1.40375 0.692V1.384H0.701875C0.515726 1.384 0.337201 1.45691 0.205574 1.58668C0.0739472 1.71646 0 1.89247 0 2.076V13.148C0 13.3315 0.0739472 13.5075 0.205574 13.6373C0.337201 13.7671 0.515726 13.84 0.701875 13.84H9.12437C9.31052 13.84 9.48905 13.7671 9.62068 13.6373C9.7523 13.5075 9.82625 13.3315 9.82625 13.148V12.456H10.5281C10.7143 12.456 10.8928 12.3831 11.0244 12.2533C11.1561 12.1235 11.23 11.9475 11.23 11.764V0.692C11.23 0.50847 11.1561 0.332457 11.0244 0.202682C10.8928 0.072907 10.7143 0 10.5281 0ZM9.35833 13.148C9.35833 13.2092 9.33368 13.2678 9.28981 13.3111C9.24593 13.3544 9.18642 13.3787 9.12437 13.3787H0.701875C0.639825 13.3787 0.580317 13.3544 0.536442 13.3111C0.492566 13.2678 0.467917 13.2092 0.467917 13.148V2.076C0.467917 2.01482 0.492566 1.95615 0.536442 1.91289C0.580317 1.86964 0.639825 1.84533 0.701875 1.84533H7.01875V3.69067C7.01874 3.74018 7.03488 3.78838 7.0648 3.82814C7.09472 3.8679 7.13682 3.89712 7.18488 3.91148C7.23293 3.92583 7.2844 3.92456 7.33167 3.90785C7.37894 3.89114 7.4195 3.85988 7.44736 3.81869L7.72062 3.41387L7.99389 3.81799C8.02171 3.85914 8.06221 3.89038 8.10941 3.9071C8.15661 3.92383 8.20802 3.92515 8.25604 3.91089C8.30406 3.89662 8.34616 3.86752 8.37614 3.82786C8.40611 3.78821 8.42236 3.74012 8.4225 3.69067V1.84533H9.12437C9.18642 1.84533 9.24593 1.86964 9.28981 1.91289C9.33368 1.95615 9.35833 2.01482 9.35833 2.076V13.148ZM7.48667 1.84533H7.95458V2.92947L7.91528 2.87134C7.89391 2.83975 7.86497 2.81384 7.83101 2.79593C7.79705 2.77801 7.75914 2.76864 7.72062 2.76864C7.68211 2.76864 7.6442 2.77801 7.61024 2.79593C7.57628 2.81384 7.54734 2.83975 7.52597 2.87134L7.48667 2.92947V1.84533ZM10.7621 11.764C10.7621 11.8252 10.7374 11.8838 10.6936 11.9271C10.6497 11.9704 10.5902 11.9947 10.5281 11.9947H9.82625V2.076C9.82625 1.89247 9.7523 1.71646 9.62068 1.58668C9.48905 1.45691 9.31052 1.384 9.12437 1.384H1.87167V0.692C1.87167 0.630823 1.89632 0.572152 1.94019 0.528894C1.98407 0.485636 2.04358 0.461333 2.10562 0.461333H10.5281C10.5902 0.461333 10.6497 0.485636 10.6936 0.528894C10.7374 0.572152 10.7621 0.630823 10.7621 0.692V11.764Z" fill="#BDBDBD"/>
<path d="M8.18811 5.53589H1.63728C1.57523 5.53589 1.51572 5.56019 1.47185 5.60345C1.42797 5.64671 1.40332 5.70538 1.40332 5.76656V10.8412C1.40332 10.9024 1.42797 10.9611 1.47185 11.0043C1.51572 11.0476 1.57523 11.0719 1.63728 11.0719H8.18811C8.25016 11.0719 8.30967 11.0476 8.35355 11.0043C8.39742 10.9611 8.42207 10.9024 8.42207 10.8412V5.76656C8.42207 5.70538 8.39742 5.64671 8.35355 5.60345C8.30967 5.56019 8.25016 5.53589 8.18811 5.53589ZM7.95415 6.91989H3.7429V5.99722H7.95415V6.91989ZM4.9127 7.38122H5.61457V10.6106H4.9127V7.38122ZM4.44478 10.6106H3.7429V7.38122H4.44478V10.6106ZM6.08249 7.38122H6.78436V10.6106H6.08249V7.38122ZM3.27499 5.99722V6.91989H1.87124V5.99722H3.27499ZM1.87124 7.38122H3.27499V10.6106H1.87124V7.38122ZM7.25228 10.6106V7.38122H7.95415V10.6106H7.25228Z" fill="#BDBDBD"/>
<path d="M1.40332 3.69067H3.27499V4.15201H1.40332V3.69067Z" fill="#BDBDBD"/>
<path d="M1.40332 2.76807H1.87124V3.2294H1.40332V2.76807Z" fill="#BDBDBD"/>
<path d="M2.33984 2.76807H3.27568V3.2294H2.33984V2.76807Z" fill="#BDBDBD"/>
<path d="M3.97754 4.61328H5.84921V5.07461H3.97754V4.61328Z" fill="#BDBDBD"/>
<path d="M7.97765 11.8472C7.91773 11.7513 7.83394 11.6722 7.73424 11.6173C7.63454 11.5625 7.52226 11.5337 7.40808 11.5337C7.2939 11.5337 7.18162 11.5625 7.08193 11.6173C6.98223 11.6722 6.89843 11.7513 6.83851 11.8472C6.74493 11.959 6.70703 11.995 6.62795 11.995C6.54887 11.995 6.51214 11.959 6.41739 11.8474C6.3547 11.7543 6.27041 11.6772 6.17151 11.6226C6.0726 11.568 5.96191 11.5375 5.84863 11.5334V11.9948C5.92771 11.9948 5.96561 12.0308 6.0592 12.1426C6.11913 12.2385 6.20296 12.3177 6.3027 12.3726C6.40244 12.4275 6.51477 12.4563 6.629 12.4563C6.74323 12.4563 6.85556 12.4275 6.9553 12.3726C7.05504 12.3177 7.13887 12.2385 7.19881 12.1426C7.29239 12.031 7.33029 11.995 7.40937 11.995C7.48447 11.995 7.51956 12.0245 7.61993 12.1426C7.68255 12.2357 7.76677 12.3126 7.86561 12.3672C7.96444 12.4217 8.07504 12.4522 8.18822 12.4561V11.9948C8.11312 11.9948 8.07802 11.9653 7.97765 11.8472Z" fill="#BDBDBD"/>
</svg>
