<svg width="10" height="10" viewBox="0 0 10 10" fill="none" xmlns="http://www.w3.org/2000/svg">
<path d="M9.77655 2.20302L7.79693 0.223452C7.499 -0.0744839 7.01616 -0.0744839 6.71796 0.223452C6.57488 0.366461 6.49455 0.560144 6.49455 0.762463C6.49455 0.910538 6.53843 1.05423 6.61781 1.17684L3.97285 3.45198C3.70049 3.32597 3.40255 3.25651 3.09646 3.25651C2.54312 3.25651 2.01229 3.47614 1.6204 3.86805C1.33469 4.15405 1.33469 4.61717 1.6204 4.90317L2.81008 6.09317L0 9.99996L3.90681 7.18989L5.0965 8.3796C5.38215 8.66529 5.84591 8.66529 6.13195 8.3796C6.52317 7.98802 6.74307 7.45723 6.74307 6.90356C6.74307 6.5978 6.67401 6.29989 6.548 6.02782L8.82352 3.38221C8.94577 3.46151 9.08911 3.50548 9.23723 3.50548C9.43948 3.50548 9.63362 3.42512 9.77655 3.28175C10.0745 2.9838 10.0745 2.50096 9.77655 2.20302Z" fill="#476987"/>
</svg>
