<svg width="20" height="19" viewBox="0 0 20 19" fill="none" xmlns="http://www.w3.org/2000/svg">
<path d="M0.234375 9.21272C0.234375 4.2374 4.26767 0.204102 9.24299 0.204102L10.3088 0.204102C15.2841 0.204102 19.3174 4.2374 19.3174 9.21272C19.3174 14.188 15.2841 18.2213 10.3088 18.2213H9.24299C4.26767 18.2213 0.234375 14.188 0.234375 9.21272Z" fill="#FAFAFB"/>
<path d="M15.8136 4.56847C15.5896 4.47572 15.3983 4.51385 15.2397 4.68331L14.1739 5.74104C13.589 5.18897 12.9209 4.7613 12.1693 4.45794C11.4177 4.15461 10.6402 4.00293 9.8367 4.00293C8.98406 4.00293 8.16966 4.16971 7.39352 4.50308C6.61731 4.83648 5.94773 5.2846 5.38478 5.84758C4.82179 6.41062 4.37356 7.08012 4.04016 7.85626C3.7068 8.63247 3.54004 9.44675 3.54004 10.2995C3.54004 11.152 3.70679 11.9665 4.04019 12.7427C4.37368 13.5189 4.82179 14.1884 5.38481 14.7514C5.94776 15.3142 6.61734 15.7625 7.39355 16.0959C8.16969 16.4293 8.98409 16.5961 9.83673 16.5961C10.7768 16.5961 11.6707 16.398 12.5178 16.0017C13.3649 15.6055 14.0864 15.0466 14.6823 14.325C14.726 14.2704 14.7465 14.2089 14.7437 14.1406C14.7411 14.0723 14.715 14.0162 14.6658 13.9725L13.5428 12.8411C13.4824 12.792 13.4143 12.7674 13.3378 12.7674C13.2503 12.7783 13.1875 12.8112 13.1492 12.8659C12.7502 13.3853 12.261 13.7869 11.6816 14.0713C11.1023 14.3554 10.4874 14.4974 9.83696 14.4974C9.26861 14.4974 8.7261 14.3868 8.20958 14.1654C7.693 13.9441 7.24612 13.6448 6.86904 13.2677C6.492 12.8905 6.19274 12.4438 5.97134 11.9271C5.74999 11.4106 5.63929 10.8682 5.63929 10.2997C5.63929 9.7313 5.75008 9.18867 5.97134 8.67227C6.19266 8.1558 6.49188 7.70892 6.86904 7.33185C7.24623 6.95468 7.693 6.65543 8.20958 6.43403C8.72598 6.21271 9.26861 6.10198 9.83696 6.10198C10.9356 6.10198 11.8895 6.47641 12.6984 7.22525L11.5668 8.3565C11.3972 8.5205 11.3591 8.70911 11.4519 8.92224C11.5449 9.14089 11.7062 9.25018 11.9358 9.25018H15.6088C15.751 9.25018 15.8739 9.19829 15.9778 9.09443C16.0815 8.99059 16.1334 8.86762 16.1334 8.72551V5.05243C16.1334 4.82293 16.0271 4.66168 15.8136 4.56847Z" fill="#1D9FFF"/>
</svg>
