<svg xmlns="http://www.w3.org/2000/svg" viewBox="0 0 142 164.14"><defs><style>.cls-1{fill:none;stroke:#fff;stroke-miterlimit:10;stroke-width:15px;}.cls-2{fill:#fff;}</style></defs><title>refresh</title><g id="Layer_2" data-name="Layer 2"><g id="Layer_1-2" data-name="Layer 1"><path class="cls-1" d="M133.21,80.34a63.44,63.44,0,0,1-9.55,48.3,64.83,64.83,0,0,1-7.76,9.4,63.26,63.26,0,0,1-32.1,17.31,63.59,63.59,0,0,1-37.52-3.7A63.92,63.92,0,0,1,26.1,138a64.83,64.83,0,0,1-7.76-9.4,63.78,63.78,0,0,1-5.85-10.79,63.57,63.57,0,0,1,0-49.43,63.78,63.78,0,0,1,5.85-10.79,64.83,64.83,0,0,1,7.76-9.4,63.6,63.6,0,0,1,9.4-7.75,63.16,63.16,0,0,1,22.7-9.55,64.15,64.15,0,0,1,25.6,0,62.47,62.47,0,0,1,11.92,3.7"/><polygon class="cls-2" points="120.99 43.92 60.99 60 77.07 0 120.99 43.92"/></g></g></svg>