<svg width="12" height="14" viewBox="0 0 12 14" fill="none" xmlns="http://www.w3.org/2000/svg">
<path d="M1.25393 1.5389C1.43186 1.45052 1.58373 1.48686 1.70967 1.64833L2.55601 2.65625C3.02041 2.13018 3.55099 1.72265 4.14778 1.43358C4.74457 1.14454 5.362 1 6.00002 1C6.67708 1 7.32377 1.15893 7.94008 1.47659C8.55644 1.79429 9.08813 2.2213 9.53515 2.75777C9.9822 3.29429 10.3381 3.93225 10.6029 4.67184C10.8676 5.41148 11 6.18741 11 7C11 7.81235 10.8676 8.58847 10.6028 9.32808C10.338 10.0678 9.9822 10.7058 9.53513 11.2422C9.08811 11.7785 8.55641 12.2056 7.94006 12.5233C7.32374 12.8411 6.67706 13 6 13C5.25353 13 4.5437 12.8112 3.87107 12.4336C3.19839 12.0561 2.62547 11.5235 2.15227 10.8359C2.11761 10.7838 2.10133 10.7252 2.10356 10.6601C2.10559 10.5951 2.12634 10.5417 2.16538 10.5L3.05715 9.42189C3.10506 9.37507 3.15914 9.35167 3.21994 9.35167C3.28937 9.36207 3.33924 9.39343 3.36966 9.4455C3.6865 9.9404 4.07495 10.3231 4.53504 10.5941C4.99504 10.8649 5.48331 11.0002 5.99982 11.0002C6.45113 11.0002 6.88192 10.8947 7.29207 10.6838C7.70227 10.4729 8.05713 10.1877 8.35655 9.82835C8.65595 9.46892 8.89357 9.04325 9.06938 8.55095C9.24515 8.05876 9.33305 7.54194 9.33305 7.00022C9.33305 6.45855 9.24508 5.94149 9.06938 5.4494C8.89364 4.95727 8.65604 4.53143 8.35655 4.17212C8.05703 3.81272 7.70227 3.52756 7.29207 3.31659C6.88201 3.1057 6.45113 3.00018 5.99982 3.00018C5.12741 3.00018 4.36965 3.38835 3.72727 4.10192L4.62625 5.14851C4.76085 5.30479 4.79114 5.48451 4.71748 5.68761C4.64358 5.89595 4.51554 6.0001 4.33317 6.0001H1.41656C1.30371 6.0001 1.20609 5.95065 1.12359 5.85168C1.0412 5.75273 1 5.63556 1 5.50014V2.00006C1.00005 1.78137 1.08446 1.62772 1.25393 1.5389Z" stroke="#F2994A"/>
</svg>
