<svg width="26" height="25" viewBox="0 0 26 25" fill="none" xmlns="http://www.w3.org/2000/svg">
<path d="M0 12.5C0 5.59644 5.59644 0 12.5 0L13.5 0C20.4036 0 26 5.59644 26 12.5C26 19.4036 20.4036 25 13.5 25H12.5C5.59644 25 0 19.4036 0 12.5Z" fill="#FAFAFB"/>
<path d="M15.4001 19.6429H14.1998V5.35721H15.4001C15.5626 5.35721 15.7034 5.26882 15.822 5.09208C15.9406 4.91544 16 4.70615 16 4.46443C16 4.2226 15.9409 4.01337 15.8218 3.83648L13.4218 0.265036C13.3031 0.0883943 13.1624 0 13 0C12.8375 0 12.6969 0.0883943 12.5781 0.265036L10.1781 3.83648C10.0593 4.01332 10 4.2226 10 4.46443C10 4.7061 10.0593 4.91539 10.1781 5.09208C10.2969 5.26882 10.4376 5.35721 10.6001 5.35721H11.8001V19.6429H10.6002C10.4376 19.6429 10.2969 19.7312 10.1782 19.9078C10.0594 20.0847 10.0001 20.294 10.0001 20.5359C10.0001 20.7775 10.0594 20.9867 10.1782 21.1636L12.5782 24.735C12.697 24.9117 12.8376 25 13.0001 25C13.1626 25 13.3033 24.9117 13.422 24.735L15.822 21.1636C15.9406 20.9867 16 20.7775 16 20.5359C16 20.2941 15.9406 20.0848 15.822 19.9078C15.7034 19.7312 15.5627 19.6429 15.4001 19.6429Z" fill="#74CDEA"/>
</svg>
