<svg width="19" height="25" viewBox="0 0 19 25" fill="none" xmlns="http://www.w3.org/2000/svg">
<path d="M1.42876 21.2457C1.56615 21.3394 1.68265 21.435 1.78335 21.5181C2.03262 21.7239 2.11657 21.7933 2.37657 21.7933C2.63661 21.7933 2.72057 21.724 2.96983 21.5181C3.31003 21.2372 3.8241 20.8129 4.75154 20.8129C5.67899 20.8129 6.19301 21.2372 6.53321 21.5181C6.78247 21.7239 6.86638 21.7933 7.12638 21.7933C7.38637 21.7933 7.47038 21.724 7.71959 21.5181C8.05974 21.2372 8.57381 20.8129 9.50126 20.8129C10.4286 20.8129 10.9428 21.2372 11.2829 21.5181C11.5322 21.7239 11.6161 21.7933 11.8762 21.7933C12.1362 21.7933 12.2202 21.724 12.4694 21.5181C12.8096 21.2372 13.3237 20.8129 14.2512 20.8129C15.1786 20.8129 15.6927 21.2372 16.0329 21.5181C16.2823 21.7239 16.3662 21.7933 16.6263 21.7933C16.8865 21.7933 16.9705 21.7239 17.2198 21.5181C17.3206 21.4349 17.4371 21.3392 17.5745 21.2456V19.0252L18.5189 12.4361L16.8172 10.9518V2.24644C16.8172 1.11471 15.3623 0.668329 14.2681 0.430991C12.9864 0.153096 11.2936 0 9.50169 0C7.70977 0 6.01697 0.153096 4.73513 0.430991C3.64084 0.668329 2.18603 1.11471 2.18603 2.24644V10.9518L0.484375 12.4361L1.42871 19.0252L1.42876 21.2457ZM3.80725 3.31538C3.9883 3.21099 4.45905 3.00145 5.53741 2.81127C6.64778 2.61553 8.0557 2.50776 9.50169 2.50776C10.9477 2.50776 12.3555 2.61548 13.4659 2.81127C14.5443 3.0015 15.015 3.21099 15.1961 3.31538V9.53759L9.50169 4.57043L3.80725 9.53764V3.31538Z" fill="#29AFE2"/>
<path d="M17.2181 22.7639C16.9688 22.9697 16.8848 23.039 16.6247 23.039C16.3645 23.039 16.2806 22.9698 16.0312 22.7639C15.6911 22.4831 15.1769 22.0586 14.2494 22.0586C13.322 22.0586 12.8079 22.4831 12.4678 22.764C12.2184 22.9698 12.1346 23.039 11.8745 23.039C11.6145 23.039 11.5305 22.9698 11.2812 22.764C10.9411 22.4832 10.4269 22.0586 9.49957 22.0586C8.57217 22.0586 8.0581 22.4831 7.7179 22.764C7.46864 22.9698 7.38469 23.039 7.12469 23.039C6.86469 23.039 6.78074 22.9698 6.53152 22.764C6.19137 22.4832 5.6773 22.0586 4.74986 22.0586C3.82241 22.0586 3.30834 22.4831 2.96814 22.764C2.71888 22.9698 2.63493 23.039 2.37488 23.039C2.11488 23.039 2.03088 22.9698 1.78167 22.764C1.44152 22.4832 0.927442 22.0586 -1.7629e-08 22.0586V24.0194C0.259998 24.0194 0.344 24.0887 0.593214 24.2946C0.933363 24.5755 1.44744 24.9999 2.37488 24.9999C3.30232 24.9999 3.8164 24.5755 4.15659 24.2946C4.40586 24.0888 4.48981 24.0194 4.74986 24.0194C5.00985 24.0194 5.09381 24.0887 5.34302 24.2946C5.68317 24.5755 6.19725 24.9999 7.12469 24.9999C8.05213 24.9999 8.56616 24.5755 8.90635 24.2946C9.15562 24.0888 9.23957 24.0194 9.49957 24.0194C9.75961 24.0194 9.84357 24.0887 10.0928 24.2946C10.433 24.5755 10.9471 24.9999 11.8746 24.9999C12.802 24.9999 13.3161 24.5755 13.6562 24.2946C13.9055 24.0888 13.9894 24.0194 14.2495 24.0194C14.5096 24.0194 14.5936 24.0888 14.8429 24.2946C15.1831 24.5755 15.6973 24.9999 16.6247 24.9999C17.5523 24.9999 18.0663 24.5755 18.4065 24.2946C18.6559 24.0888 18.74 24.0194 19 24.0194V22.0586C18.0724 22.0586 17.5583 22.4831 17.2181 22.7639Z" fill="#29AFE2"/>
</svg>
