<svg width="23" height="23" viewBox="0 0 23 23" fill="none" xmlns="http://www.w3.org/2000/svg">
<g clip-path="url(#clip0)">
<path d="M6.21554 11.7263L11.2987 8.07747C11.4139 8.00435 11.561 8.00435 11.6762 8.07747L16.7845 11.7263V7.37285C16.8124 6.77589 16.3512 6.26933 15.7542 6.24139C15.7454 6.24096 15.7365 6.24067 15.7276 6.24048H7.27244C6.67499 6.25372 6.20138 6.74877 6.21463 7.34627C6.21482 7.35513 6.21511 7.36399 6.21554 7.37285V11.7263Z" fill="white"/>
<path d="M12.7586 2.46588H10.2422V5.48558H12.7586V2.46588Z" fill="white"/>
<path d="M22.6226 18.5206C21.8787 18.5132 21.1531 18.7521 20.5591 19.2C20.0889 19.5788 19.5021 19.7833 18.8983 19.7788C18.4795 19.7826 18.0657 19.6878 17.6904 19.502L19.2505 14.3433L17.0613 12.8083L16.9103 12.7329L11.7516 9.1344V19.7536H11.4748L10.9967 19.7285V9.1344L3.67399 14.3433L5.2845 19.4768C4.91849 19.6896 4.49969 19.7943 4.0766 19.7788C3.27137 19.7788 2.89389 19.502 2.44094 19.2252C1.85597 18.7576 1.12631 18.5084 0.377475 18.5205C0.169014 18.5205 0 18.6896 0 18.898C0 19.1065 0.169014 19.2755 0.377475 19.2755C0.981955 19.2668 1.57015 19.4718 2.03833 19.8543C2.6246 20.2986 3.34097 20.5374 4.0766 20.5337C4.82544 20.5459 5.55505 20.2967 6.14007 19.8291C6.59302 19.5523 6.9705 19.2755 7.77573 19.2755C8.38021 19.2668 8.96841 19.4717 9.43658 19.8542C10.0229 20.2985 10.7392 20.5373 11.4749 20.5336C12.2237 20.5458 12.9533 20.2967 13.5383 19.829C13.9913 19.5522 14.3687 19.2754 15.174 19.2754C15.7778 19.271 16.3645 19.4754 16.8348 19.8542C18.0613 20.7602 19.7353 20.7602 20.9618 19.8542C21.432 19.4754 22.0188 19.2709 22.6226 19.2754C22.8311 19.2754 23.0001 19.1064 23.0001 18.8979C23.0001 18.6895 22.831 18.5206 22.6226 18.5206Z" fill="white"/>
</g>
<defs>
<clipPath id="clip0">
<rect width="23" height="23" fill="white"/>
</clipPath>
</defs>
</svg>
