<svg width="23" height="21" viewBox="0 0 23 21" fill="none" xmlns="http://www.w3.org/2000/svg">
<path d="M0.800049 10.37C0.800049 4.64281 5.44285 0 11.17 0L12.3922 0C18.1194 0 22.7622 4.64281 22.7622 10.37C22.7622 16.0972 18.1194 20.74 12.3922 20.74H11.17C5.44285 20.74 0.800049 16.0972 0.800049 10.37Z" fill="#FAFAFB"/>
<path d="M19.46 14.2422H11.851C11.3871 14.2422 11.011 14.6183 11.011 15.0822C11.011 15.5461 11.3871 15.9222 11.851 15.9222H19.46C19.924 15.9222 20.3 15.5461 20.3 15.0822C20.3 14.6183 19.924 14.2422 19.46 14.2422Z" fill="#A5A5A5"/>
<path d="M19.1747 10.23H13.288C12.8287 10.23 12.4563 10.6024 12.4563 11.0617C12.4563 11.5202 12.8274 11.8922 13.2859 11.8934L19.1726 11.9084C19.5446 11.9094 19.8729 11.6652 19.979 11.3086C20.1392 10.7705 19.7361 10.23 19.1747 10.23Z" fill="#A5A5A5"/>
<path d="M18.6842 6.22002H15.3924C14.9272 6.22002 14.55 6.59715 14.55 7.06238C14.55 7.5276 14.9272 7.90474 15.3924 7.90474H18.6842C19.1495 7.90474 19.5266 7.5276 19.5266 7.06238C19.5266 6.59715 19.1495 6.22002 18.6842 6.22002Z" fill="#A5A5A5"/>
<path d="M13.3693 6.00002H4.23086C4.06958 5.99972 3.92182 6.08756 3.84814 6.22745C3.77344 6.36923 3.78655 6.53995 3.88198 6.66943L7.22993 11.2706L7.23339 11.2752C7.35503 11.4355 7.42089 11.6296 7.42119 11.829V15.5802C7.42048 15.6913 7.4652 15.7981 7.54538 15.8769C7.62566 15.9556 7.73481 16 7.84863 16C7.90645 15.9999 7.96377 15.9887 8.01723 15.967L9.89852 15.2672C10.067 15.217 10.1789 15.0618 10.1789 14.875V11.829C10.1792 11.6296 10.2451 11.4355 10.3666 11.2752L10.3701 11.2706L13.7181 6.66933C13.8135 6.53995 13.8267 6.36933 13.752 6.22755C13.6784 6.08756 13.5305 5.99972 13.3693 6.00002Z" fill="#A5A5A5"/>
</svg>

