<svg xmlns="http://www.w3.org/2000/svg" viewBox="0 0 438.53 456.82"><defs><style>.cls-1{fill:#fff;}</style></defs><title>spinner_w</title><g id="Layer_2" data-name="Layer 2"><g id="Capa_1" data-name="Capa 1"><path class="cls-1" d="M100.5,324.33a41.12,41.12,0,1,0,0,82.24,39.77,39.77,0,0,0,29-12,41,41,0,0,0,0-58.26A39.85,39.85,0,0,0,100.5,324.33Z"/><path class="cls-1" d="M91.36,237.54a44,44,0,0,0-13.42-32.26,44,44,0,0,0-32.26-13.42,44,44,0,0,0-32.26,13.42,45.48,45.48,0,0,0,0,64.52,44,44,0,0,0,32.26,13.42A44,44,0,0,0,77.94,269.8,44,44,0,0,0,91.36,237.54Z"/><path class="cls-1" d="M356.31,132.48a22.91,22.91,0,0,0,22.84-22.85,22.84,22.84,0,1,0-39,16.14A22,22,0,0,0,356.31,132.48Z"/><path class="cls-1" d="M100.5,59.39A48.44,48.44,0,0,0,65,74.09a48.43,48.43,0,0,0-14.7,35.55A48.42,48.42,0,0,0,65,145.18a48.43,48.43,0,0,0,35.55,14.71,48.45,48.45,0,0,0,35.55-14.71,48.43,48.43,0,0,0,14.7-35.55,48.42,48.42,0,0,0-14.7-35.54A48.44,48.44,0,0,0,100.5,59.39Z"/><path class="cls-1" d="M430.54,218.13a27.58,27.58,0,1,0,8,19.42A26.39,26.39,0,0,0,430.54,218.13Z"/><path class="cls-1" d="M356.31,333.47a32.16,32.16,0,1,0,22.56,9.42A30.78,30.78,0,0,0,356.31,333.47Z"/><path class="cls-1" d="M228.4,383.72a36.57,36.57,0,1,0,25.84,10.71A35.22,35.22,0,0,0,228.4,383.72Z"/><path class="cls-1" d="M228.4,0q-22.83,0-38.83,16t-16,38.83q0,22.83,16,38.83t38.83,16q22.86,0,38.83-16t16-38.83q0-22.84-16-38.83T228.4,0Z"/></g></g></svg>