<svg width="12" height="12" viewBox="0 0 12 12" fill="none" xmlns="http://www.w3.org/2000/svg">
<path d="M6 0C2.6916 0 0 2.6916 0 6C0 9.3084 2.6916 12 6 12C9.3084 12 12 9.3084 12 6C12 2.6916 9.3084 0 6 0ZM6 11.6C2.9122 11.6 0.4 9.0878 0.4 6C0.4 2.9122 2.9122 0.4 6 0.4C9.0878 0.4 11.6 2.9122 11.6 6C11.6 9.0878 9.0878 11.6 6 11.6Z" fill="#828282"/>
<path d="M6.00022 1.20004C5.88982 1.20004 5.80022 1.28944 5.80022 1.40004V6.00004H2.80022C2.68982 6.00004 2.60022 6.08944 2.60022 6.20004C2.60022 6.31064 2.68982 6.40004 2.80022 6.40004H6.00022C6.11062 6.40004 6.20022 6.31064 6.20022 6.20004V1.40004C6.20022 1.28944 6.11062 1.20004 6.00022 1.20004Z" fill="#828282"/>
</svg>
