<svg width="42" height="50" viewBox="0 0 42 50" fill="none" xmlns="http://www.w3.org/2000/svg">
<path d="M37.9704 31.4306C37.4045 31.4306 36.9458 31.9754 36.9458 32.6476V43.4533C36.9438 45.4689 35.569 47.1024 33.872 47.1043H5.12297C3.42598 47.1024 2.05119 45.4689 2.04919 43.4533V11.7395C2.05119 9.72427 3.42598 8.09083 5.12297 8.08845H14.2202C14.7862 8.08845 15.2448 7.54365 15.2448 6.87145C15.2448 6.19972 14.7862 5.65445 14.2202 5.65445H5.12297C2.29493 5.65825 0.00320185 8.38034 0 11.7395V43.4537C0.00320185 46.8128 2.29493 49.5349 5.12297 49.5387H33.872C36.7 49.5349 38.9918 46.8128 38.995 43.4537V32.6476C38.995 31.9754 38.5363 31.4306 37.9704 31.4306Z" fill="#BDBDBD"/>
<path d="M38.5892 2.52306C36.7886 0.38428 33.8693 0.38428 32.0686 2.52306L13.7892 24.2351C13.664 24.3839 13.5735 24.5684 13.5263 24.7709L11.1225 35.0788C11.0236 35.5014 11.1241 35.954 11.3851 36.2644C11.6464 36.5744 12.0274 36.6937 12.3832 36.5767L21.0615 33.7211C21.232 33.665 21.3872 33.5575 21.5125 33.4087L39.7915 11.6962C41.5893 9.556 41.5893 6.09135 39.7915 3.95114L38.5892 2.52306ZM16.0217 25.0262L30.982 7.25606L35.8068 12.9869L20.8461 30.757L16.0217 25.0262ZM15.058 27.3233L18.9126 31.9022L13.5807 33.6569L15.058 27.3233ZM38.3427 9.97529L37.256 11.266L32.4308 5.53467L33.5179 4.24398C34.518 3.05598 36.1398 3.05598 37.14 4.24398L38.3427 5.67205C39.3412 6.86148 39.3412 8.78634 38.3427 9.97529Z" fill="#BDBDBD"/>
</svg>
