<svg width="6" height="25" viewBox="0 0 6 25" fill="none" xmlns="http://www.w3.org/2000/svg">
<path d="M5.40013 19.6429H4.19984V5.35721H5.40013C5.56261 5.35721 5.70341 5.26882 5.82199 5.09208C5.94063 4.91544 6 4.70615 6 4.46443C6 4.2226 5.94086 4.01337 5.82176 3.83648L3.42179 0.265036C3.30309 0.0883943 3.16241 0 2.99997 0C2.83749 0 2.69691 0.0883943 2.57811 0.265036L0.178109 3.83648C0.0593042 4.01332 0 4.2226 0 4.46443C0 4.7061 0.0593371 4.91539 0.178109 5.09208C0.296946 5.26882 0.437555 5.35721 0.600066 5.35721H1.8001V19.6429H0.600164C0.437555 19.6429 0.296913 19.7312 0.178207 19.9078C0.0594353 20.0847 9.87078e-05 20.294 9.87078e-05 20.5359C9.87078e-05 20.7775 0.0594353 20.9867 0.178207 21.1636L2.57824 24.735C2.69701 24.9117 2.83759 25 3.0001 25C3.16264 25 3.30332 24.9117 3.42202 24.735L5.82199 21.1636C5.94063 20.9867 6 20.7775 6 20.5359C6 20.2941 5.94063 20.0848 5.82199 19.9078C5.70341 19.7312 5.56271 19.6429 5.40013 19.6429Z" fill="#74CDEA"/>
</svg>
