<svg width="154" height="26" viewBox="0 0 154 26" fill="none" xmlns="http://www.w3.org/2000/svg">
<path d="M13.6722 12.2603C15.5273 11.0924 16.764 9.30604 16.764 7.00443C16.764 2.81344 13.844 0.20266 9.51561 0.20266H0V25.2799H10.2714C14.7715 25.2799 17.7945 22.4286 17.7945 18.169C17.7945 15.3177 16.0082 13.2909 13.6722 12.2603ZM3.98487 3.77531H8.89726C11.2332 3.77531 12.8134 5.25246 12.8134 7.51971C12.8134 9.75262 11.3019 11.2641 9.03467 11.2641H3.98487V3.77531ZM9.24079 21.7072H3.98487V14.0123H9.24079C11.8859 14.0123 13.6379 15.5582 13.6379 17.8254C13.6379 20.1614 11.8859 21.7072 9.24079 21.7072Z" fill="#099DEE"/>
<path d="M30.2062 10.6114V21.3294C29.2443 22.4286 28.2825 22.9439 27.1488 22.9439C25.1908 22.9439 24.0228 21.5355 24.0228 18.856V10.6114H20.4845V19.0278C20.4845 23.047 22.6487 25.6234 26.0152 25.6234C27.6641 25.6234 29.0039 24.9364 30.2062 23.5966V25.2799H33.7445V10.6114H30.2062Z" fill="#099DEE"/>
<path d="M45.7496 10.2336C44.2037 10.2336 42.4517 11.0237 41.2151 12.2947V10.6114H37.6768V25.2799H41.2151V14.6307C42.28 13.6344 43.448 13.0161 44.6159 13.0161C46.574 13.0161 47.742 14.3215 47.742 17.0353V25.2799H51.2803V16.8636C51.2803 12.8443 49.1161 10.2336 45.7496 10.2336Z" fill="#099DEE"/>
<path d="M68.84 25.2799L61.7634 17.3445L67.6033 10.6114H63.5154L58.4999 16.7605V0.20266H54.9616V25.2799H58.4999V18.5468L64.4085 25.2799H68.84Z" fill="#099DEE"/>
<path d="M89.8492 12.4665V10.6114H86.3109V25.2799H89.8492V14.9742C90.8454 13.7718 92.5286 13.0848 94.7959 13.2222V10.2336C92.6661 10.2336 90.9141 11.1267 89.8492 12.4665Z" fill="#099DEE"/>
<path d="M82.6782 18.281H72.0917C72.168 19.6918 72.648 20.814 73.5316 21.6476C74.426 22.4813 75.5769 22.8981 76.9841 22.8981C78.9476 22.8981 80.7584 22.2996 82.4164 21.1026V23.9562C81.5001 24.5547 80.5893 24.9822 79.6839 25.2387C78.7894 25.4952 77.7367 25.6234 76.5259 25.6234C74.8678 25.6234 73.5261 25.2868 72.5007 24.6134C71.4753 23.9401 70.6517 23.037 70.03 21.9041C69.4191 20.7606 69.1137 19.4406 69.1137 17.9444C69.1137 15.7 69.7627 13.8778 71.0608 12.4777C72.3589 11.0669 74.0443 10.3615 76.1169 10.3615C78.1131 10.3615 79.7057 11.0455 80.8947 12.4136C82.0837 13.7816 82.6782 15.6145 82.6782 17.9123V18.281ZM72.1571 16.5336H79.733C79.6566 15.3687 79.3021 14.4709 78.6694 13.8404C78.0367 13.2098 77.1859 12.8945 76.1169 12.8945C75.0478 12.8945 74.1697 13.2098 73.4825 13.8404C72.8062 14.4709 72.3644 15.3687 72.1571 16.5336Z" fill="#099DEE"/>
<path d="M96.4194 12.9568L102.015 7.57022V10.6162H106.777V13.2453H102.015V20.4755C102.015 22.1641 102.73 23.0084 104.159 23.0084C105.228 23.0084 106.357 22.6558 107.546 21.9504V24.6757C106.401 25.3063 105.152 25.6216 103.799 25.6216C102.435 25.6216 101.301 25.2315 100.396 24.4513C100.112 24.2161 99.8774 23.9543 99.6919 23.6657C99.5065 23.3665 99.3483 22.9817 99.2174 22.5115C99.0974 22.0305 99.0374 21.1221 99.0374 19.7861V13.2453H96.4194V12.9568Z" fill="white"/>
<path d="M122.518 18.2471H111.931C112.008 19.6579 112.487 20.7801 113.371 21.6137C114.266 22.4473 115.416 22.8642 116.824 22.8642C118.787 22.8642 120.598 22.2657 122.256 21.0686V23.9222C121.34 24.5207 120.429 24.9482 119.523 25.2047C118.629 25.4612 117.576 25.5895 116.365 25.5895C114.707 25.5895 113.366 25.2528 112.34 24.5795C111.315 23.9062 110.491 23.0031 109.869 21.8702C109.259 20.7266 108.953 19.4067 108.953 17.9105C108.953 15.6661 109.602 13.8438 110.9 12.4438C112.198 11.033 113.884 10.3276 115.956 10.3276C117.953 10.3276 119.545 11.0116 120.734 12.3796C121.923 13.7476 122.518 15.5806 122.518 17.8784V18.2471ZM111.997 16.4997H119.572C119.496 15.3348 119.142 14.437 118.509 13.8064C117.876 13.1759 117.025 12.8606 115.956 12.8606C114.887 12.8606 114.009 13.1759 113.322 13.8064C112.646 14.437 112.204 15.3348 111.997 16.4997Z" fill="white"/>
<path d="M137.048 21.9183V24.804C135.553 25.349 134.092 25.6216 132.663 25.6216C130.306 25.6216 128.425 24.9375 127.017 23.5695C125.621 22.2015 124.923 20.3686 124.923 18.0708C124.923 15.7516 125.605 13.8812 126.968 12.4598C128.332 11.0383 130.126 10.3276 132.352 10.3276C133.126 10.3276 133.819 10.4024 134.43 10.5521C135.051 10.691 135.815 10.9582 136.72 11.3536V14.4637C135.215 13.5232 133.819 13.053 132.532 13.053C131.19 13.053 130.088 13.5179 129.226 14.4477C128.365 15.3668 127.934 16.5424 127.934 17.9746C127.934 19.4815 128.397 20.6785 129.325 21.5656C130.263 22.4527 131.523 22.8962 133.104 22.8962C134.25 22.8962 135.564 22.5702 137.048 21.9183Z" fill="white"/>
<path d="M140.386 2.96922H143.364V12.556C144.607 11.0704 146.151 10.3276 147.994 10.3276C148.998 10.3276 149.898 10.5734 150.694 11.0651C151.49 11.5567 152.079 12.2354 152.461 13.101C152.854 13.9667 153.05 15.2546 153.05 16.9646V25.6234H150.072V16.2432C150.072 15.1638 149.8 14.2981 149.254 13.6461C148.72 12.9835 148.011 12.6522 147.127 12.6522C146.473 12.6522 145.856 12.8178 145.278 13.1491C144.7 13.4805 144.062 14.0309 143.364 14.8004V25.6234H140.386V2.96922Z" fill="white"/>
</svg>
