<?xml version="1.0" encoding="utf-8"?>
<!-- Generator: Adobe Illustrator 23.0.1, SVG Export Plug-In . SVG Version: 6.00 Build 0)  -->
<svg version="1.1" id="Layer_1" xmlns="http://www.w3.org/2000/svg" xmlns:xlink="http://www.w3.org/1999/xlink" x="0px" y="0px"
	 viewBox="0 0 515 137.6" style="enable-background:new 0 0 515 137.6;" xml:space="preserve">
<style type="text/css">
	.st0{fill:#1F96FF;}
	.st1{fill:#FFFFFF;}
</style>
<title>shiptech-color</title>
<g>
	<g id="shiptech">
		<g id="shiptech-color">
			<path class="st0" d="M34.3,108c19,0,36.1-8.8,36.1-29.4c0-16.3-10.6-23-27.5-31.1c-11.2-5.5-19.9-8.6-19.9-19
				c0-8.9,6.5-13.4,16.7-13.4c6.3,0,14.4,2.2,23.8,7.3l4-15.9C58.6,2.4,48.9,0.1,39.1,0c-19.7,0-34,10.8-34,28.5
				c0,16.4,12.1,23.2,27.1,30.5c11.2,5.6,20.5,9.4,20.5,19.6s-8.6,13.8-18.1,13.8c-9.9,0-21.6-3.9-29.4-8.8L0,98.2
				C9.4,104.4,22.2,108,34.3,108z"/>
			<path class="st0" d="M118.8,43.5c-6.5,0-13.8,3.3-19,8.6V1.4H84.9v105.1h14.8V61.9c4.5-4.2,9.4-6.8,14.3-6.8
				c8.2,0,13.1,5.5,13.1,16.8v34.6H142V71.3C142,54.5,132.9,43.5,118.8,43.5z"/>
			<path class="st0" d="M168.4,34.7c4.7,0.2,8.8-3.4,9-8.2c0.2-4.7-3.4-8.8-8.1-9c-0.3,0-0.6,0-0.8,0c-4.8-0.1-8.8,3.7-8.9,8.5
				c0,0,0,0,0,0c0,0,0,0.1,0,0.1C159.6,31,163.6,34.8,168.4,34.7L168.4,34.7z M160.9,106.6h14.8V45.1h-14.8V106.6z"/>
			<path class="st0" d="M228,43.5c-6.2,0-12.2,2.1-17,6v-4.4h-14.8v92.5H211v-34.9c5,3.4,10.9,5.3,17,5.3c18,0,30-12.8,30-32.1
				S246,43.5,228,43.5z M226.3,96.8c-5.7-0.1-11.2-2.4-15.3-6.5V61.1c4.1-3.9,9.6-6,15.3-5.9c10.1,0,17,8.3,17,20.7
				S236.4,96.8,226.3,96.8z"/>
			<path class="st1" d="M309.1,95.1c-2.3,1-4.7,1.4-7.2,1.4c-8.2,0-13.1-5.6-13.1-16.9V57.3h20.6V45.1l-20.6,1.2V24.5L274,29.4v17.7
				l-9.5,5.4v4.8h9.5v23c0,16.9,9,27.7,23.2,27.7c5.5,0.1,10.9-1.9,15.1-5.5L309.1,95.1z"/>
			<path class="st1" d="M381.5,73.3c0-16.4-11.3-29.9-30.8-29.9c-18.7,0-31.1,13-31.1,32.3c0,20.6,13.7,32.3,31.5,32.3
				c9.7,0,19.1-2.9,27.1-8.3l-2.6-8.3c-6.5,3.6-13.8,5.5-21.2,5.6c-11.8,0-19.9-7.3-20.4-17.4h46.8
				C381.3,77.4,381.5,75.4,381.5,73.3z M334,71c0.6-7.5,5.8-15.7,16-15.8c9.9-0.2,16.6,6.2,16.6,15.8H334z"/>
			<path class="st1" d="M424,108c7.3,0,14.8-2,19.5-5.2l-5-9.2c-4.1,2.1-8.6,3.2-13.1,3.1c-10.8,0-18.3-8.4-18.3-21
				s7.5-20.9,18.3-20.9c4.6,0.1,9.1,1.2,13.1,3.3l5-9.4c-5.9-3.4-12.6-5.3-19.5-5.3c-19.2,0-31.7,12.2-31.7,32.4
				C392.3,95.4,405.1,108,424,108z"/>
			<path class="st1" d="M491.8,43.5c-6.5,0-13.8,3.3-19,8.6V1.4H458v105.1h14.8V61.9c4.5-4.2,9.4-6.8,14.3-6.8
				c8.2,0,13.1,5.5,13.1,16.8v34.6H515V71.3C515,54.5,505.9,43.5,491.8,43.5z"/>
		</g>
	</g>
</g>
</svg>
