<svg width="112" height="32" viewBox="0 0 112 32" fill="none" xmlns="http://www.w3.org/2000/svg">
<path d="M54.3798 12.0027L59.9772 6.61472V9.66148H64.74V12.2913H59.9772V19.5233C59.9772 21.2124 60.6919 22.057 62.1213 22.057C63.1906 22.057 64.3199 21.7042 65.5092 20.9986V23.7247C64.3635 24.3554 63.1142 24.6708 61.7612 24.6708C60.3973 24.6708 59.2625 24.2806 58.3569 23.5002C58.0732 23.265 57.8386 23.0031 57.6531 22.7144C57.4676 22.4151 57.3094 22.0302 57.1785 21.5599C57.0585 21.0788 56.9985 20.1701 56.9985 18.8338V12.2913H54.3798V12.0027Z" fill="white"/>
<path d="M80.4849 17.2944H69.8955C69.9719 18.7055 70.452 19.828 71.3358 20.6619C72.2305 21.4957 73.3816 21.9126 74.7892 21.9126C76.7532 21.9126 78.5645 21.314 80.223 20.1167V22.971C79.3064 23.5696 78.3954 23.9973 77.4897 24.2538C76.595 24.5104 75.5421 24.6387 74.3309 24.6387C72.6724 24.6387 71.3303 24.3019 70.3047 23.6284C69.279 22.955 68.4552 22.0516 67.8333 20.9184C67.2223 19.7746 66.9168 18.4543 66.9168 16.9577C66.9168 14.7127 67.566 12.89 68.8644 11.4895C70.1628 10.0784 71.8486 9.37284 73.9218 9.37284C75.9185 9.37284 77.5115 10.057 78.7009 11.4254C79.8902 12.7938 80.4849 14.6272 80.4849 16.9256V17.2944ZM69.961 15.5465H77.5388C77.4624 14.3813 77.1078 13.4833 76.475 12.8526C75.8421 12.2218 74.9911 11.9065 73.9218 11.9065C72.8525 11.9065 71.9741 12.2218 71.2867 12.8526C70.6102 13.4833 70.1683 14.3813 69.961 15.5465Z" fill="white"/>
<path d="M95.0186 20.9665V23.8529C93.5238 24.3981 92.0617 24.6708 90.6323 24.6708C88.2755 24.6708 86.3933 23.9866 84.9857 22.6182C83.5891 21.2498 82.8908 19.4164 82.8908 17.118C82.8908 14.7982 83.5727 12.9274 84.9366 11.5056C86.3005 10.0837 88.0954 9.37284 90.3213 9.37284C91.096 9.37284 91.7889 9.44767 92.3999 9.59733C93.0218 9.73631 93.7856 10.0036 94.6913 10.3991V13.51C93.1855 12.5693 91.7889 12.0989 90.5014 12.0989C89.1593 12.0989 88.0572 12.5639 87.1953 13.494C86.3333 14.4133 85.9023 15.5893 85.9023 17.0218C85.9023 18.5291 86.366 19.7265 87.2935 20.6138C88.2318 21.5011 89.4921 21.9447 91.0742 21.9447C92.2199 21.9447 93.5347 21.6187 95.0186 20.9665Z" fill="white"/>
<path d="M98.3574 2.01252H101.336V11.6018C102.58 10.1158 104.124 9.37284 105.968 9.37284C106.972 9.37284 107.872 9.61871 108.669 10.1105C109.465 10.6022 110.054 11.2811 110.436 12.147C110.829 13.0129 111.025 14.3011 111.025 16.0116V24.4142H108.047V15.29C108.047 14.2102 107.774 13.3443 107.228 12.6922C106.694 12.0294 105.984 11.698 105.101 11.698C104.446 11.698 103.829 11.8637 103.251 12.1951C102.673 12.5265 102.035 13.077 101.336 13.8468V24.4142H98.3574V2.01252Z" fill="white"/>
<path d="M6.89274 14.3392L4.37424 12.8455C2.79465 11.9038 1.66796 10.9784 0.994146 10.0692C0.331382 9.14914 0 8.0938 0 6.90316C0 5.1172 0.629626 3.66678 1.88888 2.55191C3.15917 1.43704 4.80504 0.879604 6.82647 0.879604C8.75953 0.879604 10.5324 1.40998 12.1451 2.47073V6.1563C10.4772 4.58682 8.68221 3.80208 6.76019 3.80208C5.67768 3.80208 4.78847 4.05104 4.09257 4.54894C3.39666 5.03602 3.04871 5.66381 3.04871 6.43232C3.04871 7.11423 3.30277 7.75284 3.81089 8.34816C4.31901 8.94348 5.14194 9.56586 6.27969 10.2153L8.81476 11.6765C11.6426 13.3218 13.0564 15.4216 13.0564 17.9761C13.0564 19.7945 12.4323 21.272 11.1841 22.4085C9.94698 23.5451 8.33426 24.1133 6.34596 24.1133C4.05943 24.1133 1.97725 23.426 0.0994146 22.0513V17.9274C1.88888 20.1463 3.96001 21.2558 6.31283 21.2558C7.35116 21.2558 8.21275 20.9744 8.8976 20.4115C9.59351 19.8378 9.94146 19.1235 9.94146 18.2684C9.94146 16.8829 8.92522 15.5732 6.89274 14.3392Z" fill="#099DEE"/>
<path d="M16.2211 1.17185H19.2367V10.881C20.496 9.37644 22.059 8.62418 23.9258 8.62418C24.942 8.62418 25.8533 8.87313 26.6597 9.37103C27.466 9.86894 28.0625 10.5563 28.4491 11.433C28.8468 12.3097 29.0456 13.614 29.0456 15.3459V23.8535H26.0301V14.6153C26.0301 13.522 25.7539 12.6453 25.2016 11.985C24.6603 11.3139 23.9423 10.9784 23.0476 10.9784C22.3848 10.9784 21.7607 11.1462 21.1753 11.4817C20.5899 11.8173 19.9437 12.3747 19.2367 13.154V23.8535H16.2211V1.17185Z" fill="#099DEE"/>
<path d="M34.8117 2.63309C35.3087 2.63309 35.734 2.80086 36.0875 3.13641C36.441 3.47195 36.6177 3.88326 36.6177 4.37034C36.6177 4.8466 36.441 5.25791 36.0875 5.60428C35.734 5.95065 35.3087 6.12383 34.8117 6.12383C34.3477 6.12383 33.939 5.95065 33.5856 5.60428C33.2321 5.24709 33.0553 4.83578 33.0553 4.37034C33.0553 3.91574 33.2321 3.51525 33.5856 3.16888C33.939 2.81169 34.3477 2.63309 34.8117 2.63309ZM33.3205 8.91642H36.336V23.8535H33.3205V8.91642Z" fill="#099DEE"/>
<path d="M40.5114 31.4682V8.91642H45.797C48.5033 8.91642 50.6075 9.57669 52.1098 10.8972C53.6231 12.2177 54.3798 14.0632 54.3798 16.4337C54.3798 18.6743 53.6673 20.5143 52.2424 21.9539C50.8285 23.3935 49.0224 24.1133 46.8243 24.1133C45.8522 24.1133 44.7752 23.9023 43.5933 23.4801V31.4682H40.5114ZM45.7307 11.6765H43.5933V20.8661C44.5212 21.3316 45.4932 21.5643 46.5095 21.5643C47.9233 21.5643 49.0777 21.0826 49.9724 20.1193C50.8782 19.1559 51.3311 17.9166 51.3311 16.4012C51.3311 15.4271 51.1157 14.5666 50.6849 13.8197C50.2651 13.0728 49.6852 12.5316 48.9451 12.1961C48.2161 11.8497 47.1446 11.6765 45.7307 11.6765Z" fill="#099DEE"/>
</svg>
