<svg xmlns="http://www.w3.org/2000/svg" viewBox="0 0 515 137.56"><defs><style>.cls-1{fill:#fff;}</style></defs><title>shiptech-white</title><g id="Layer_2" data-name="Layer 2"><g id="shiptech"><g id="shiptech-white"><path class="cls-1" d="M34.28,108c19,0,36.05-8.79,36.05-29.38,0-16.28-10.59-23-27.55-31.12-11.23-5.48-19.87-8.64-19.87-19,0-8.93,6.48-13.39,16.7-13.39,6.34,0,14.42,2.16,23.77,7.35l4-15.86A66.85,66.85,0,0,0,39.14,0c-19.69,0-34,10.8-34,28.52,0,16.42,12.13,23.19,27.12,30.54,11.23,5.61,20.45,9.36,20.45,19.57S44.07,92.47,34.57,92.47c-9.94,0-21.63-3.89-29.39-8.78L0,98.23C9.36,104.43,22.19,108,34.28,108Z"/><path class="cls-1" d="M118.77,43.5c-6.48,0-13.83,3.31-19,8.64V1.44H84.92V106.59H99.76V61.93c4.46-4.17,9.36-6.76,14.25-6.76,8.24,0,13.11,5.47,13.11,16.85v34.57H142V71.3C142,54.45,132.87,43.5,118.77,43.5Z"/><path class="cls-1" d="M168.37,34.71a8.58,8.58,0,1,0,.84-17.14q-.42,0-.84,0a8.73,8.73,0,0,0-8.92,8.54.34.34,0,0,0,0,.1,8.71,8.71,0,0,0,8.91,8.5Zm-7.48,71.88h14.84V45.08H160.89Z"/><path class="cls-1" d="M228,43.5a27.5,27.5,0,0,0-17,6V45.08H196.19v92.48H211V102.7A30.48,30.48,0,0,0,228,108c18,0,30-12.82,30-32.12S246,43.5,228,43.5ZM226.3,96.82A22.35,22.35,0,0,1,211,90.33V61.07a21.94,21.94,0,0,1,15.27-5.9c10.08,0,17,8.35,17,20.74S236.38,96.82,226.3,96.82Z"/><path class="cls-1" d="M309.11,95.07a18.74,18.74,0,0,1-7.21,1.44c-8.24,0-13.11-5.62-13.11-16.86V57.33h20.6V45.08l-20.6,1.16V24.48L274,29.39V47.1l-9.52,5.43v4.76H274V80.34C274,97.2,283.05,108,297.17,108a23.05,23.05,0,0,0,15.12-5.47Z"/><path class="cls-1" d="M381.52,73.32c0-16.42-11.33-29.87-30.82-29.87-18.72,0-31.11,13-31.11,32.27,0,20.6,13.69,32.25,31.55,32.25a47.93,47.93,0,0,0,27.08-8.35l-2.6-8.35a46,46,0,0,1-21.18,5.62c-11.8,0-19.88-7.35-20.44-17.44h46.81A30.81,30.81,0,0,0,381.52,73.32ZM334,71c.56-7.49,5.76-15.7,16-15.84,9.94-.15,16.57,6.18,16.57,15.84Z"/><path class="cls-1" d="M424,108c7.34,0,14.84-2,19.45-5.15l-5-9.15a27.78,27.78,0,0,1-13.11,3.09c-10.81,0-18.3-8.36-18.3-21s7.49-20.89,18.3-20.89a29,29,0,0,1,13.11,3.32l5-9.37A39.23,39.23,0,0,0,424,43.52c-19.16,0-31.68,12.24-31.68,32.41C392.32,95.36,405.13,108,424,108Z"/><path class="cls-1" d="M491.8,43.5c-6.47,0-13.82,3.31-19,8.64V1.44H458V106.59h14.81V61.93c4.46-4.17,9.36-6.76,14.26-6.76,8.24,0,13.11,5.47,13.11,16.85v34.57H515V71.3C515,54.45,505.93,43.5,491.8,43.5Z"/></g></g></g></svg>