<svg width="94" height="24" viewBox="0 0 94 24" fill="none" xmlns="http://www.w3.org/2000/svg">
<path d="M0 0.543488H19.1071V3.43677H11.1335V23.2834H7.84259V3.43677H0V0.543488Z" fill="white"/>
<path d="M29.6021 16.0665H19.0089C19.0853 17.4968 19.5656 18.6347 20.4497 19.4799C21.3447 20.3251 22.4963 20.7477 23.9044 20.7477C25.8691 20.7477 27.681 20.1409 29.3401 18.9272V21.8205C28.4233 22.4274 27.5118 22.8608 26.6059 23.1209C25.7108 23.3809 24.6575 23.511 23.4459 23.511C21.7868 23.511 20.4442 23.1696 19.4182 22.4869C18.3922 21.8043 17.5681 20.8886 16.9459 19.74C16.3346 18.5805 16.029 17.2422 16.029 15.7251C16.029 13.4495 16.6785 11.6019 17.9774 10.1824C19.2763 8.75197 20.9627 8.03677 23.0366 8.03677C25.0341 8.03677 26.6277 8.7303 27.8175 10.1173C29.0072 11.5044 29.6021 13.3628 29.6021 15.6926V16.0665ZM19.0744 14.2947H26.655C26.5786 13.1136 26.2238 12.2033 25.5908 11.564C24.9577 10.9246 24.1063 10.605 23.0366 10.605C21.9669 10.605 21.0882 10.9246 20.4006 11.564C19.7238 12.2033 19.2818 13.1136 19.0744 14.2947Z" fill="white"/>
<path d="M44.1412 19.7887V22.7145C42.6458 23.2672 41.1832 23.5435 39.7533 23.5435C37.3956 23.5435 35.5127 22.85 34.1046 21.4629C32.7075 20.0759 32.0089 18.2175 32.0089 15.8877C32.0089 13.5362 32.6911 11.6398 34.0555 10.1986C35.4199 8.75739 37.2155 8.03677 39.4422 8.03677C40.2172 8.03677 40.9103 8.11263 41.5215 8.26434C42.1437 8.40521 42.9078 8.67611 43.8137 9.07706V12.2304C42.3074 11.2768 40.9103 10.8 39.6223 10.8C38.2797 10.8 37.1773 11.2714 36.315 12.2142C35.4527 13.1461 35.0215 14.3381 35.0215 15.7901C35.0215 17.318 35.4854 18.5317 36.4132 19.4311C37.3519 20.3305 38.6126 20.7802 40.1953 20.7802C41.3414 20.7802 42.6567 20.4497 44.1412 19.7887Z" fill="white"/>
<path d="M47.4813 0.575996H50.4611V10.2961C51.7055 8.7899 53.25 8.03677 55.0946 8.03677C56.0988 8.03677 56.9993 8.28601 57.7962 8.78448C58.593 9.28295 59.1824 9.97105 59.5644 10.8488C59.9574 11.7265 60.1538 13.0323 60.1538 14.7661V23.2834H57.174V14.0347C57.174 12.9402 56.9011 12.0625 56.3553 11.4014C55.8205 10.7296 55.111 10.3937 54.2269 10.3937C53.572 10.3937 52.9553 10.5616 52.3767 10.8976C51.7982 11.2335 51.1597 11.7915 50.4611 12.5718V23.2834H47.4813V0.575996Z" fill="white"/>
<path d="M71.7241 8.27526C74.005 8.27526 75.9002 9.01317 77.4099 10.489C78.9196 11.954 79.6745 13.7987 79.6745 16.0233C79.6745 18.1828 78.9088 19.9787 77.3774 21.4111C75.8459 22.8327 73.9181 23.5435 71.5938 23.5435C69.3455 23.5435 67.4666 22.8219 65.9569 21.3786C64.4472 19.9245 63.6923 18.1123 63.6923 15.9419C63.6923 13.7499 64.4526 11.9268 65.9732 10.4727C67.5046 9.00775 69.4216 8.27526 71.7241 8.27526ZM71.5612 10.9448C70.1384 10.9448 68.9708 11.4114 68.0585 12.3446C67.1462 13.2779 66.69 14.4661 66.69 15.9094C66.69 17.3418 67.157 18.5138 68.0911 19.4253C69.0251 20.326 70.2253 20.7763 71.6915 20.7763C73.1469 20.7763 74.3362 20.3206 75.2594 19.409C76.1935 18.4866 76.6605 17.3092 76.6605 15.8768C76.6605 14.4553 76.1772 13.2779 75.2106 12.3446C74.2439 11.4114 73.0275 10.9448 71.5612 10.9448Z" fill="#099DEE"/>
<path d="M84.4968 2.00846C84.9856 2.00846 85.4037 2.17666 85.7513 2.51306C86.0988 2.84946 86.2726 3.26182 86.2726 3.75014C86.2726 4.22761 86.0988 4.63997 85.7513 4.98722C85.4037 5.33448 84.9856 5.5081 84.4968 5.5081C84.0407 5.5081 83.6388 5.33448 83.2912 4.98722C82.9437 4.62912 82.7699 4.21676 82.7699 3.75014C82.7699 3.29437 82.9437 2.89286 83.2912 2.54561C83.6388 2.18751 84.0407 2.00846 84.4968 2.00846ZM83.0306 8.30782H85.9957V23.283H83.0306V8.30782Z" fill="#099DEE"/>
<path d="M90.3618 0.543488H93.3269V23.283H90.3618V0.543488Z" fill="#099DEE"/>
</svg>
