<svg xmlns="http://www.w3.org/2000/svg" viewBox="0 0 455 121.33"><defs><style>.cls-1{fill:#fff;}</style></defs><title>techoil-white</title><g id="Layer_2" data-name="Layer 2"><g id="techoil"><g id="techoil-white"><path class="cls-1" d="M343.27,121.33c21.24,0,35.61-14.59,35.61-36.72,0-22-14.4-36.73-35.61-36.73-21.52,0-35.6,14.76-35.6,36.73C307.67,106.74,322.07,121.33,343.27,121.33Zm0-12.79c-11.48,0-19.1-9-19.1-23.93s7.62-23.78,19.1-23.78c11.66,0,19.1,9,19.1,23.78S354.9,108.54,343.27,108.54Z"/><path class="cls-1" d="M405,37.88a9.76,9.76,0,1,0,0-19.52h0a9.76,9.76,0,1,0,0,19.52Zm-8.41,81.82h16.66v-70H396.62Z"/><path class="cls-1" d="M438.33,119.7H455V0H438.33Z"/><path class="cls-1" d="M37.07,119.7H55.75V17.05H92.82V0H0V17.05H37.07Z"/><path class="cls-1" d="M145.34,81.82c0-18.7-12.73-33.94-34.48-33.94-21,0-34.81,14.76-34.81,36.73,0,23.44,15.3,36.72,35.29,36.72a53,53,0,0,0,30.34-9.51l-2.9-9.51c-8.09,4.27-16.12,6.39-23.7,6.39-13.21,0-22.24-8.36-22.88-19.83h52.39A34.81,34.81,0,0,0,145.34,81.82ZM92.16,79.19c.65-8.52,6.44-17.87,17.89-18,11.12-.17,18.53,7.08,18.53,18Z"/><path class="cls-1" d="M192.86,121.33c8.22,0,16.6-2.29,21.76-5.9L209,105.16a30.77,30.77,0,0,1-14.66,3.43c-12.14,0-20.48-9.5-20.48-23.93,0-14.27,8.38-23.78,20.48-23.78A32.1,32.1,0,0,1,209,64.65L214.62,54a43.31,43.31,0,0,0-21.76-6.06c-21.44,0-35.45,13.94-35.45,36.89C157.41,106.9,171.75,121.33,192.86,121.33Z"/><path class="cls-1" d="M268.72,47.88c-7.25,0-15.47,3.77-21.23,9.83V0H230.85V119.7h16.6V68.87c5-4.76,10.47-7.71,15.95-7.71,9.19,0,14.67,6.23,14.67,19.21v39.36h16.6V79.52C294.67,60.34,284.52,47.88,268.72,47.88Z"/></g></g></g></svg>