<?xml version="1.0" encoding="utf-8"?>
<!-- Generator: Adobe Illustrator 23.0.1, SVG Export Plug-In . SVG Version: 6.00 Build 0)  -->
<svg version="1.1" id="Layer_1" xmlns="http://www.w3.org/2000/svg" xmlns:xlink="http://www.w3.org/1999/xlink" x="0px" y="0px"
	 viewBox="0 0 455 121.3" style="enable-background:new 0 0 455 121.3;" xml:space="preserve">
<style type="text/css">
	.st0{fill:#1F96FF;}
	.st1{fill:#FFFFFF;}
</style>
<title>techoil-color</title>
<g>
	<g id="techoil">
		<g id="techoil-color">
			<path class="st0" d="M343.3,121.3c21.2,0,35.6-14.6,35.6-36.7c0-22-14.4-36.7-35.6-36.7c-21.5,0-35.6,14.8-35.6,36.7
				C307.7,106.7,322.1,121.3,343.3,121.3z M343.3,108.5c-11.5,0-19.1-9-19.1-23.9s7.6-23.8,19.1-23.8c11.7,0,19.1,9,19.1,23.8
				S354.9,108.5,343.3,108.5z"/>
			<path class="st0" d="M405,37.9c5.4,0,9.8-4.4,9.8-9.8c0-5.4-4.4-9.8-9.8-9.8c0,0,0,0,0,0l0,0c-5.4,0-9.8,4.4-9.8,9.8
				C395.2,33.5,399.6,37.9,405,37.9C405,37.9,405,37.9,405,37.9z M396.6,119.7h16.7v-70h-16.6L396.6,119.7z"/>
			<path class="st0" d="M438.3,119.7H455V0h-16.7V119.7z"/>
			<path class="st1" d="M37.1,119.7h18.7V17h37.1V0H0v17h37.1V119.7z"/>
			<path class="st1" d="M145.3,81.8c0-18.7-12.7-33.9-34.5-33.9c-21,0-34.8,14.8-34.8,36.7c0,23.4,15.3,36.7,35.3,36.7
				c10.8,0,21.4-3.3,30.3-9.5l-2.9-9.5c-8.1,4.3-16.1,6.4-23.7,6.4c-13.2,0-22.2-8.4-22.9-19.8h52.4
				C145.1,86.6,145.3,84.2,145.3,81.8z M92.2,79.2c0.7-8.5,6.4-17.9,17.9-18c11.1-0.2,18.5,7.1,18.5,18H92.2z"/>
			<path class="st1" d="M192.9,121.3c8.2,0,16.6-2.3,21.8-5.9l-5.6-10.3c-4.5,2.3-9.6,3.5-14.7,3.4c-12.1,0-20.5-9.5-20.5-23.9
				c0-14.3,8.4-23.8,20.5-23.8c5.1,0.1,10.1,1.4,14.7,3.8l5.6-10.7c-6.6-3.9-14.1-6-21.8-6.1c-21.4,0-35.4,13.9-35.4,36.9
				C157.4,106.9,171.8,121.3,192.9,121.3z"/>
			<path class="st1" d="M268.7,47.9c-7.3,0-15.5,3.8-21.2,9.8V0h-16.6v119.7h16.6V68.9c5-4.8,10.5-7.7,16-7.7
				c9.2,0,14.7,6.2,14.7,19.2v39.4h16.6V79.5C294.7,60.3,284.5,47.9,268.7,47.9z"/>
		</g>
	</g>
</g>
</svg>
