<svg xmlns="http://www.w3.org/2000/svg" xmlns:xlink="http://www.w3.org/1999/xlink" viewBox="0 0 58.89 26"><defs><style>.cls-1{fill:none;}.cls-2{fill:#0a0505;}.cls-3{clip-path:url(#clip-path);}.cls-4{fill:#d6002a;}</style><clipPath id="clip-path"><rect id="SVGID" class="cls-1" width="58.89" height="12.78"/></clipPath></defs><title>sp-logo-platts</title><g id="Layer_2" data-name="Layer 2"><g id="Layer_1-2" data-name="Layer 1"><path class="cls-2" d="M2,17.76a3.53,3.53,0,0,1,2.21.6A2.15,2.15,0,0,1,5,20.19a2.25,2.25,0,0,1-.81,1.91A3.59,3.59,0,0,1,2,22.71H.84v3.16H.13V17.76Zm0,4.37a2.79,2.79,0,0,0,1.69-.44,1.72,1.72,0,0,0,.6-1.49,1.65,1.65,0,0,0-.58-1.42A2.67,2.67,0,0,0,2,18.34H.84v3.79Z"/><path class="cls-2" d="M7.74,26a1.09,1.09,0,0,1-.81-.3,1.2,1.2,0,0,1-.28-.87V17.15l.69-.08V24.8c0,.41.16.61.49.61a1.1,1.1,0,0,0,.43-.08l.19.5A1.58,1.58,0,0,1,7.74,26Z"/><path class="cls-2" d="M13.87,24.5a1.64,1.64,0,0,0,.11.69.78.78,0,0,0,.41.32l-.16.49a1.28,1.28,0,0,1-.66-.32,1.33,1.33,0,0,1-.3-.72,2.12,2.12,0,0,1-1.93,1,2,2,0,0,1-1.41-.5,1.82,1.82,0,0,1-.51-1.35,1.77,1.77,0,0,1,.68-1.48A3.05,3.05,0,0,1,12,22.15h1.19v-.6a1.48,1.48,0,0,0-.33-1.08,1.48,1.48,0,0,0-1.1-.34,5,5,0,0,0-1.69.35L9.89,20a5.17,5.17,0,0,1,1.95-.41,1.76,1.76,0,0,1,2,2Zm-2.41.94a1.88,1.88,0,0,0,1.72-1.09v-1.7H12.1a2.36,2.36,0,0,0-1.44.37,1.25,1.25,0,0,0-.5,1.1,1.33,1.33,0,0,0,.34,1A1.3,1.3,0,0,0,11.46,25.44Z"/><path class="cls-2" d="M19.18,25.61a2.29,2.29,0,0,1-1.3.39,1.5,1.5,0,0,1-1.11-.41,1.73,1.73,0,0,1-.4-1.22V20.23H15.32v-.55h1.05V18.2l.68-.09v1.57h1.6l-.08.55H17.05v4.1a1.27,1.27,0,0,0,.23.82.88.88,0,0,0,.69.26,1.87,1.87,0,0,0,.94-.27Z"/><path class="cls-2" d="M23.22,25.61a2.31,2.31,0,0,1-1.3.39,1.47,1.47,0,0,1-1.11-.41,1.73,1.73,0,0,1-.41-1.22V20.23h-1v-.55h1V18.2l.69-.09v1.57h1.6l-.08.55H21.09v4.1a1.27,1.27,0,0,0,.22.82.88.88,0,0,0,.69.26,1.91,1.91,0,0,0,.95-.27Z"/><path class="cls-2" d="M26,19.55a3,3,0,0,1,1.06.17,3.38,3.38,0,0,1,.92.51l-.32.45a3.26,3.26,0,0,0-.8-.42,2.27,2.27,0,0,0-.83-.15,1.65,1.65,0,0,0-1,.29.91.91,0,0,0-.38.76.82.82,0,0,0,.32.69,3.67,3.67,0,0,0,1.19.48,3.55,3.55,0,0,1,1.51.69,1.47,1.47,0,0,1,.48,1.18,1.55,1.55,0,0,1-.64,1.31,2.54,2.54,0,0,1-1.6.49,3.58,3.58,0,0,1-1.24-.2,3.32,3.32,0,0,1-1-.59l.37-.44a3.26,3.26,0,0,0,.85.5,3,3,0,0,0,1,.15,1.77,1.77,0,0,0,1.1-.31,1,1,0,0,0,.43-.87,1.14,1.14,0,0,0-.15-.62,1,1,0,0,0-.48-.4,5.35,5.35,0,0,0-1-.36,3.49,3.49,0,0,1-1.42-.65,1.36,1.36,0,0,1-.43-1,1.3,1.3,0,0,1,.28-.83,1.69,1.69,0,0,1,.73-.58A2.59,2.59,0,0,1,26,19.55Z"/><g class="cls-3"><path class="cls-4" d="M6.71,10.07A2.43,2.43,0,0,1,6,11.82a2.76,2.76,0,0,1-1.17.69,5.38,5.38,0,0,1-1.47.2,4.53,4.53,0,0,1-1.32-.19,3,3,0,0,1-1.18-.67A2.78,2.78,0,0,1,.25,11,2.4,2.4,0,0,1,0,9.91H1.56a1.39,1.39,0,0,0,.12.57,1.63,1.63,0,0,0,.31.45,1.34,1.34,0,0,0,.66.36,3.2,3.2,0,0,0,.75.09,3.12,3.12,0,0,0,.82-.1,1.3,1.3,0,0,0,.63-.35,1.72,1.72,0,0,0,.23-.32,1,1,0,0,0,.1-.48.81.81,0,0,0-.3-.69,1.65,1.65,0,0,0-.69-.3A8.29,8.29,0,0,0,3.25,9c-.33,0-.64-.06-.92-.1a3.06,3.06,0,0,1-.81-.25A2.5,2.5,0,0,1,.84,8.2a2.25,2.25,0,0,1-.46-.69,2.45,2.45,0,0,1-.17-.93,2.13,2.13,0,0,1,.2-.91,3,3,0,0,1,.53-.74A2.88,2.88,0,0,1,2,4.28a4,4,0,0,1,1.4-.23,4,4,0,0,1,1.29.2,2.75,2.75,0,0,1,1,.61,3,3,0,0,1,.61.8,2.32,2.32,0,0,1,.24,1H5a1.14,1.14,0,0,0-.11-.44,1.53,1.53,0,0,0-.25-.39,1.36,1.36,0,0,0-.57-.33,2.56,2.56,0,0,0-.71-.11,3.08,3.08,0,0,0-.72.09A1.26,1.26,0,0,0,2,5.83a1,1,0,0,0-.21.3,1,1,0,0,0-.07.4A.79.79,0,0,0,2,7.16a1.12,1.12,0,0,0,.61.28c.27,0,.57.08.91.11l.91.1a3.8,3.8,0,0,1,.89.26A2.44,2.44,0,0,1,6,8.39a2.25,2.25,0,0,1,.5.73,2.4,2.4,0,0,1,.18,1"/></g><g class="cls-3"><path class="cls-4" d="M13.29,12.57l-.59-.66a3.34,3.34,0,0,1-1.11.66,3.87,3.87,0,0,1-1.26.21,3.41,3.41,0,0,1-1.06-.17,2.64,2.64,0,0,1-.88-.51,2.24,2.24,0,0,1-.6-.79,2.46,2.46,0,0,1-.23-1.06A2.22,2.22,0,0,1,8,8.91,3.75,3.75,0,0,1,9.05,8a4.64,4.64,0,0,1-.37-.42,3.41,3.41,0,0,1-.28-.42,1.77,1.77,0,0,1-.18-.45,1.7,1.7,0,0,1-.07-.53,2.07,2.07,0,0,1,.18-.88,2.37,2.37,0,0,1,.49-.67,2.29,2.29,0,0,1,.73-.42A2.86,2.86,0,0,1,10.44,4a2.89,2.89,0,0,1,.88.14,2.07,2.07,0,0,1,.73.4,1.82,1.82,0,0,1,.51.65,1.86,1.86,0,0,1,.19.87,2.09,2.09,0,0,1-.12.74,2.13,2.13,0,0,1-.33.59,2.91,2.91,0,0,1-.5.49,4.93,4.93,0,0,1-.63.42L12.62,9.9a1.46,1.46,0,0,0,.15-.46c0-.18.05-.36.06-.56a5.25,5.25,0,0,0,0-.56V7.85H15V9h-1a6.41,6.41,0,0,1-.13,1,2.74,2.74,0,0,1-.38.9l1.54,1.67ZM9.91,8.87l-.39.25a1.34,1.34,0,0,0-.31.27A1.11,1.11,0,0,0,9,9.73a1.35,1.35,0,0,0-.07.46,1.32,1.32,0,0,0,.12.57,1.2,1.2,0,0,0,.33.41,1.57,1.57,0,0,0,.48.25,2.1,2.1,0,0,0,.56.08,2.79,2.79,0,0,0,.76-.11,1.36,1.36,0,0,0,.65-.41Zm1.46-2.73a.85.85,0,0,0-.27-.67,1,1,0,0,0-.66-.23,1.05,1.05,0,0,0-.65.21.79.79,0,0,0-.28.66,1,1,0,0,0,.07.38,2.17,2.17,0,0,0,.19.33,1.87,1.87,0,0,0,.26.3,3.44,3.44,0,0,0,.27.27l.38-.21A1.87,1.87,0,0,0,11,6.92a1.2,1.2,0,0,0,.25-.33,1,1,0,0,0,.09-.45"/></g><g class="cls-3"><path class="cls-4" d="M22.42,6.88A2.94,2.94,0,0,1,22.23,8a2.14,2.14,0,0,1-.56.85,2.4,2.4,0,0,1-.92.55,3.87,3.87,0,0,1-1.28.19H17.71v3H16.2V4.2h3.27a3.87,3.87,0,0,1,1.28.19,2.4,2.4,0,0,1,.92.55,2.11,2.11,0,0,1,.56.84,3,3,0,0,1,.19,1.1m-1.53,0a1.4,1.4,0,0,0-.35-1,1.49,1.49,0,0,0-1.12-.38H17.71v2.7h1.71a1.48,1.48,0,0,0,1.12-.37,1.37,1.37,0,0,0,.35-1"/></g><g class="cls-3"><path class="cls-4" d="M31.38,12.56l-.17-.92a1.79,1.79,0,0,1-.29.37,1.86,1.86,0,0,1-.46.35,2.87,2.87,0,0,1-.62.25,2.48,2.48,0,0,1-.73.1,4.26,4.26,0,0,1-1.36-.2,2.57,2.57,0,0,1-1.13-.73,3.56,3.56,0,0,1-.54-.72,5.16,5.16,0,0,1-.33-.8,5,5,0,0,1-.17-.89c0-.31,0-.64,0-1s0-.66,0-1a4.9,4.9,0,0,1,.15-.88,3.43,3.43,0,0,1,.34-.79A3.28,3.28,0,0,1,26.62,5a3.19,3.19,0,0,1,1.15-.73,3.91,3.91,0,0,1,1.34-.24,3.73,3.73,0,0,1,1.41.25,3.11,3.11,0,0,1,1.06.7,2.76,2.76,0,0,1,.52.73,2.34,2.34,0,0,1,.25,1H30.79a1,1,0,0,0-.13-.43,4,4,0,0,0-.23-.34,1.67,1.67,0,0,0-1.34-.51,2,2,0,0,0-.74.15,1.62,1.62,0,0,0-.62.42,1.67,1.67,0,0,0-.34.52,2.5,2.5,0,0,0-.2.62,3.51,3.51,0,0,0-.09.65c0,.22,0,.43,0,.61s0,.4,0,.62a4.92,4.92,0,0,0,.1.67,2.72,2.72,0,0,0,.2.63,1.72,1.72,0,0,0,.34.53,1.48,1.48,0,0,0,.62.4,2.39,2.39,0,0,0,.73.13,2,2,0,0,0,.73-.13,1.51,1.51,0,0,0,.52-.36,1.64,1.64,0,0,0,.45-.75,3.85,3.85,0,0,0,.1-.87h-2V8h3.47v4.58Z"/></g><g class="cls-3"><path class="cls-4" d="M36.05,12.55l-.32.06-.33,0a1.8,1.8,0,0,1-1.21-.39A1.56,1.56,0,0,1,33.73,11V4h1.48v6.7a.76.76,0,0,0,.11.43c.07.11.23.16.48.16h.25Z"/></g><g class="cls-3"><path class="cls-4" d="M42.31,9.49a4.08,4.08,0,0,1-.19,1.31,3.46,3.46,0,0,1-.53,1,2.69,2.69,0,0,1-.88.67,2.76,2.76,0,0,1-1.27.28,2.79,2.79,0,0,1-1.27-.28,2.65,2.65,0,0,1-.87-.67,3.22,3.22,0,0,1-.53-1,3.82,3.82,0,0,1-.19-1.31,3.76,3.76,0,0,1,.19-1.3,3.22,3.22,0,0,1,.53-1,2.65,2.65,0,0,1,.87-.67,2.79,2.79,0,0,1,1.27-.29,2.76,2.76,0,0,1,1.27.29,2.69,2.69,0,0,1,.88.67,3.46,3.46,0,0,1,.53,1,4,4,0,0,1,.19,1.3m-1.5,0a4.6,4.6,0,0,0-.08-.84,1.47,1.47,0,0,0-.36-.7A1.3,1.3,0,0,0,40,7.67a1.27,1.27,0,0,0-.54-.11,1.33,1.33,0,0,0-.54.11,1.3,1.3,0,0,0-.39.28,1.37,1.37,0,0,0-.35.7,3.86,3.86,0,0,0-.09.84,4,4,0,0,0,.09.85,1.41,1.41,0,0,0,.35.7,1.3,1.3,0,0,0,.39.28,1.33,1.33,0,0,0,.54.11,1.27,1.27,0,0,0,.54-.11,1.3,1.3,0,0,0,.39-.28,1.51,1.51,0,0,0,.36-.7,4.71,4.71,0,0,0,.08-.85"/></g><g class="cls-3"><path class="cls-4" d="M49.11,9.5a4.13,4.13,0,0,1-.27,1.55A2.69,2.69,0,0,1,48,12.18a2.22,2.22,0,0,1-1.48.52,2.52,2.52,0,0,1-1-.19,1.58,1.58,0,0,1-.75-.62l-.09.67H43.44V4.05h1.47V6.88a1.54,1.54,0,0,1,.63-.44,2.63,2.63,0,0,1,1-.17,2.76,2.76,0,0,1,.85.13,2.2,2.2,0,0,1,.65.37,3.34,3.34,0,0,1,1.1,2.73m-1.5,0a4.15,4.15,0,0,0-.08-.79,1.48,1.48,0,0,0-.72-1,1.16,1.16,0,0,0-.58-.14,1.19,1.19,0,0,0-1.13.66,2.13,2.13,0,0,0-.21.63,5.45,5.45,0,0,0,0,.68,3.73,3.73,0,0,0,.11.92,1.46,1.46,0,0,0,.42.76,1,1,0,0,0,.37.22,1.23,1.23,0,0,0,.49.08,1.06,1.06,0,0,0,.58-.14,1.52,1.52,0,0,0,.41-.34,1.64,1.64,0,0,0,.31-.7,4.34,4.34,0,0,0,.08-.8"/></g><g class="cls-3"><path class="cls-4" d="M55.65,12.49l-.32.12a1.44,1.44,0,0,1-.41,0,1,1,0,0,1-1-.86,1.71,1.71,0,0,1-.7.65,2.39,2.39,0,0,1-1.16.27,2.63,2.63,0,0,1-1-.16,2,2,0,0,1-.69-.42,1.77,1.77,0,0,1-.41-.61,1.87,1.87,0,0,1-.15-.73A1.94,1.94,0,0,1,50,10a2,2,0,0,1,.44-.59A2.09,2.09,0,0,1,51.07,9a3,3,0,0,1,.81-.17l1.8-.13V8.36a1.16,1.16,0,0,0-.2-.7,1,1,0,0,0-.84-.27,1.27,1.27,0,0,0-.8.23.82.82,0,0,0-.32.65H50.1a2.06,2.06,0,0,1,.24-.9,1.83,1.83,0,0,1,.55-.62,2.48,2.48,0,0,1,.79-.36,3.71,3.71,0,0,1,1-.12,3.48,3.48,0,0,1,1.41.28,1.67,1.67,0,0,1,.89,1,2.16,2.16,0,0,1,.15.62c0,.21,0,.42,0,.62V11a.47.47,0,0,0,.08.3.33.33,0,0,0,.26.09.31.31,0,0,0,.13,0h.06v1.09Zm-2-2.66L52.13,10a1.15,1.15,0,0,0-.62.23.73.73,0,0,0,0,1.13.93.93,0,0,0,.6.21,1.73,1.73,0,0,0,1.14-.36,1.27,1.27,0,0,0,.43-1Z"/></g><g class="cls-3"><path class="cls-4" d="M58.89,12.55l-.32.06-.33,0A1.8,1.8,0,0,1,57,12.24,1.56,1.56,0,0,1,56.57,11V4h1.48v6.7a.76.76,0,0,0,.11.43c.07.11.23.16.48.16h.25v1.24Z"/></g><g class="cls-3"><rect width="58.89" height="1.36"/></g></g></g></svg>